<svg xmlns="http://www.w3.org/2000/svg" viewBox="0 0 1695.96 2626.7"><defs><style>.a,.c{fill:none}.b{clip-path:url(#a)}.c{stroke:#3a3b3d;stroke-miterlimit:10;stroke-width:19.67px}.d{fill:#3a3b3d}.e{fill:#8ed1e5}</style><clipPath id="a" transform="translate(0 876.66)"><path class="a" d="M1448 344.29C1448 154.38 1294 .42 1104.13.42s-343.87 154-343.87 343.87v509.42c0 189.91 154 343.87 343.87 343.87S1448 1043.62 1448 853.71z"/></clipPath></defs><title>fav</title><g class="b"><path class="c" d="M1689.01 6.96L743.52 949.92"/><path class="c" d="M1689.01 86.48L743.52 1029.43"/><path class="c" d="M1689.01 165.99L743.52 1108.95"/><path class="c" d="M1689.01 245.51L743.52 1188.46"/><path class="c" d="M1689.01 325.02L743.52 1267.98"/><path class="c" d="M1689.01 404.54L743.52 1347.49"/><path class="c" d="M1689.01 484.05L743.52 1427.01"/><path class="c" d="M1689.01 563.57L743.52 1506.53"/><path class="c" d="M1689.01 643.08L743.52 1586.04"/><path class="c" d="M1689.01 722.6L743.52 1665.56"/><path class="c" d="M1689.01 802.12L743.52 1745.07"/><path class="c" d="M1689.01 881.63L743.52 1824.59"/><path class="c" d="M1689.01 961.15L743.52 1904.1"/><path class="c" d="M1689.01 1040.66L743.52 1983.62"/><path class="c" d="M1689.01 1120.18L743.52 2063.13"/><path class="c" d="M1689.01 1199.69L743.52 2142.65"/><path class="c" d="M1689.01 1279.21L743.52 2222.16"/><path class="c" d="M1689.01 1358.72L743.52 2301.68"/><path class="c" d="M1689.01 1438.24L743.52 2381.19"/><path class="c" d="M1689.01 1517.75L743.52 2460.71"/><path class="c" d="M1689.01 1597.27L743.52 2540.22"/><path class="c" d="M1689.01 1676.78L743.52 2619.74"/></g><path class="d" d="M575.08 1474.53c69-62.89 112.66-153.24 112.66-254 0-189.87-153.96-343.87-343.87-343.87S0 1030.66 0 1220.53c0 100.76 43.6 191.13 112.65 254C43.6 1537.42 0 1627.77 0 1728.53c0 189.91 154 343.87 343.87 343.87s343.87-154 343.87-343.87c0-100.76-43.61-191.11-112.66-254z"/><path class="e" d="M293.11 1221.6l-38.06-121.19c-2-6.61 1.21-11 8-11h12.41c5.61 0 9.42 2.81 10.82 8.22l23.44 78.72 23-74.32c1.6-5.41 5.21-8 10.82-8h6.81c5.61 0 9.21 2.6 10.82 8l22.83 74.32 23.48-78.69c1.41-5.41 5.21-8.22 10.62-8.22h12.62c6.81 0 10 4.41 8 11l-38.05 121.16c-1.8 5.2-5.41 8-11 8h-8.41c-5.61 0-9.22-2.61-10.82-8l-23.64-77.72-23.43 77.72c-1.81 5.4-5.21 8-10.82 8h-8.41c-5.62.06-9.22-2.8-11.03-8zm-11.42 217.27l46.87-121.59c1.8-5 5.61-7.61 11.22-7.61H354c5.61 0 9.21 2.6 11.21 7.61l47.47 121.59c2.41 6.61-.4 11-7.61 11h-13c-5.41 0-9.21-2.4-11.21-7.61l-7-18.42h-54.11l-6.81 18.22c-2 5.21-5.61 7.81-11 7.81H289.3c-7.21.01-10.02-4.39-7.61-11zm85.73-40.06L347 1342.32l-21 56.49zm36.75 140.76v7.61c0 6.21-3.6 9.61-9.82 9.61h-32.44v103.76c0 6.22-3.41 9.62-9.62 9.62h-12c-6.21 0-9.61-3.4-9.61-9.62v-103.76h-32.07c-6.21 0-9.61-3.4-9.61-9.61v-7.61c0-6.21 3.4-9.61 9.61-9.61h95.74c6.22 0 9.82 3.4 9.82 9.61zm0 220.28v7.61c0 6.21-3.6 9.61-9.82 9.61h-32.44v103.76c0 6.21-3.41 9.61-9.62 9.61h-12c-6.21 0-9.61-3.4-9.61-9.61v-103.76h-32.07c-6.21 0-9.61-3.4-9.61-9.61v-7.61c0-6.22 3.4-9.62 9.61-9.62h95.74c6.22 0 9.82 3.43 9.82 9.62z"/></svg>