<svg id="50020e39-c74b-4de3-869f-f6f2b9dea062" data-name="Layer 1" xmlns="http://www.w3.org/2000/svg" viewBox="0 0 57.99 37.8">
  <title>email</title>
  <path d="M29,37.79H2.86C.5,37.79,0,37.3,0,35V2.74C0,.57.59,0,2.79,0H55.18C57.35,0,58,.61,58,2.75Q58,18.88,58,35c0,2.26-.57,2.8-2.9,2.8Zm-22.19-4H51.22L34.51,20c-1.38,1-2.63,1.86-3.77,2.82a2.42,2.42,0,0,1-3.58,0,17.62,17.62,0,0,0-2.72-2,1.8,1.8,0,0,0-1.6,0C17.56,25,12.33,29.29,6.79,33.8ZM50.46,4H7.91c.06.18.06.3.12.35,6.75,5,13.51,10.07,20.29,15.05a1.48,1.48,0,0,0,1.37,0C36.52,14.32,43.32,9.26,50.46,4ZM36.92,18.23,54,32.3V5.58Zm-33,14.15L21.17,18.33C15.38,14,9.74,9.84,3.94,5.55Z" style="fill: #f3f1ea"/>
</svg>
