<svg id="d8ed27d2-8474-4350-962e-db6920031022" data-name="Layer 1" xmlns="http://www.w3.org/2000/svg" viewBox="0 0 1747.99 72.57">
  <title>lines-wide</title>
  <path d="M71.16,1.41,1.41,71.16M87.75,1.41,18,71.16M104.34,1.41,34.59,71.16M120.93,1.41,51.18,71.16M137.51,1.41,67.77,71.16M154.1,1.41,84.36,71.16M170.69,1.41,100.94,71.16M187.28,1.41,117.53,71.16M203.87,1.41,134.12,71.16m16.59,0L220.46,1.41M167.3,71.16,237,1.41m16.59,0L183.89,71.16M270.22,1.41,200.47,71.16M286.81,1.41,217.06,71.16m16.59,0L303.4,1.41m16.58,0L250.24,71.16M336.57,1.41,266.83,71.16M353.16,1.41,283.41,71.16M369.75,1.41,300,71.16M386.34,1.41,316.59,71.16M402.93,1.41,333.18,71.16M419.51,1.41,349.77,71.16M436.1,1.41,366.36,71.16M452.69,1.41,382.94,71.16M469.28,1.41,399.53,71.16M485.87,1.41,416.12,71.16M502.46,1.41,432.71,71.16M519,1.41,449.3,71.16M535.63,1.41,465.89,71.16M552.22,1.41,482.47,71.16M568.81,1.41,499.06,71.16M585.4,1.41,515.65,71.16M602,1.41,532.24,71.16M618.57,1.41,548.83,71.16M635.16,1.41,565.42,71.16m16.58,0L651.75,1.41m16.59,0L598.59,71.16M684.93,1.41,615.18,71.16M701.52,1.41,631.77,71.16M718.1,1.41,648.36,71.16M734.69,1.41,665,71.16M751.28,1.41,681.53,71.16M767.87,1.41,698.12,71.16m16.59,0L784.46,1.41m16.59,0L731.3,71.16M817.63,1.41,747.89,71.16m16.59,0L834.22,1.41m16.59,0L781.06,71.16M867.4,1.41,797.65,71.16M884,1.41,814.24,71.16M900.57,1.41,830.83,71.16M917.16,1.41,847.42,71.16M933.75,1.41,864,71.16M950.34,1.41,880.59,71.16M966.93,1.41,897.18,71.16M983.52,1.41,913.77,71.16M1000.1,1.41,930.36,71.16m86.33-69.75L947,71.16m86.33-69.75L963.53,71.16m16.59,0,69.75-69.75m16.59,0L996.71,71.16m86.34-69.75L1013.3,71.16m86.33-69.75-69.74,69.75m86.33-69.75-69.74,69.75m86.33-69.75-69.75,69.75M1149.4,1.41l-69.75,69.75M1166,1.41l-69.75,69.75m86.34-69.75-69.75,69.75m86.33-69.75-69.74,69.75m86.33-69.75L1146,71.16m86.33-69.75-69.75,69.75m16.59,0,69.75-69.75m16.59,0-69.75,69.75m86.34-69.75-69.75,69.75m86.33-69.75L1229,71.16m86.33-69.75-69.74,69.75m86.33-69.75-69.75,69.75m16.59,0,69.75-69.75m16.59,0L1295.3,71.16m86.33-69.75-69.74,69.75m86.33-69.75-69.74,69.75m86.33-69.75-69.75,69.75M1431.4,1.41l-69.75,69.75m16.59,0L1448,1.41m16.59,0-69.75,69.75m86.33-69.75-69.74,69.75m86.33-69.75L1428,71.16m86.33-69.75-69.75,69.75m86.34-69.75-69.75,69.75m86.34-69.75-69.75,69.75m16.59,0,69.75-69.75m16.58,0L1511,71.16m86.33-69.75-69.74,69.75m86.33-69.75-69.75,69.75m86.34-69.75-69.75,69.75m86.34-69.75L1577.3,71.16m16.59,0,69.75-69.75m16.58,0-69.74,69.75m86.33-69.75-69.74,69.75M1713.4,1.41l-69.75,69.75M1730,1.41l-69.75,69.75m86.34-69.75-69.75,69.75" style="fill: none;stroke: #3b3c3e;stroke-miterlimit: 10;stroke-width: 4px"/>
</svg>
