<svg id="22990a0a-ba3d-4e5e-8525-b10e4aaf5611" data-name="Layer 1" xmlns="http://www.w3.org/2000/svg" xmlns:xlink="http://www.w3.org/1999/xlink" viewBox="0 0 517.62 517.62"><defs><style>.\30 457c03b-45fe-4df7-9cfe-71ebcfb90acb,.\34 77a66e3-4cd0-4ddb-ac83-c8637931997d{fill:none;}.e1cbba67-d1d7-494e-b31d-814e0951da4f{clip-path:url(#243350f9-b2a8-4106-a314-eb1ea37df250);}.\34 77a66e3-4cd0-4ddb-ac83-c8637931997d{stroke:#3b3b3d;stroke-miterlimit:10;stroke-width:3px;}</style><clipPath id="243350f9-b2a8-4106-a314-eb1ea37df250" transform="translate(17.74 17.74)"><circle class="0457c03b-45fe-4df7-9cfe-71ebcfb90acb" cx="241.07" cy="241.07" r="241.07"/></clipPath></defs><title>lines</title><g class="e1cbba67-d1d7-494e-b31d-814e0951da4f"><path class="477a66e3-4cd0-4ddb-ac83-c8637931997d" d="M190.87,493.46,493.46,190.87c-1-4.89-2.06-9.74-3.3-14.53L176.34,490.16C181.13,491.4,186,492.49,190.87,493.46Z" transform="translate(17.74 17.74)"/><path class="477a66e3-4cd0-4ddb-ac83-c8637931997d" d="M124.58,470.55l346-346c-2-3.91-4.08-7.78-6.26-11.58L113,464.29C116.8,466.47,120.67,468.56,124.58,470.55Z" transform="translate(17.74 17.74)"/><path class="477a66e3-4cd0-4ddb-ac83-c8637931997d" d="M136.67,476.3,476.3,136.67c-1.82-4.08-3.73-8.12-5.75-12.09l-346,346C128.55,472.57,132.59,474.48,136.67,476.3Z" transform="translate(17.74 17.74)"/><path class="477a66e3-4cd0-4ddb-ac83-c8637931997d" d="M162.51,486.14,486.14,162.51c-1.43-4.45-3-8.86-4.63-13.2l-332.2,332.2C153.65,483.17,158.06,484.71,162.51,486.14Z" transform="translate(17.74 17.74)"/><path class="477a66e3-4cd0-4ddb-ac83-c8637931997d" d="M176.34,490.16,490.16,176.34c-1.21-4.67-2.56-9.27-4-13.83L162.51,486.14C167.07,487.6,171.67,489,176.34,490.16Z" transform="translate(17.74 17.74)"/><path class="477a66e3-4cd0-4ddb-ac83-c8637931997d" d="M149.31,481.51l332.2-332.2q-2.44-6.41-5.21-12.64L136.67,476.3Q142.91,479.06,149.31,481.51Z" transform="translate(17.74 17.74)"/><path class="477a66e3-4cd0-4ddb-ac83-c8637931997d" d="M113,464.29,464.29,113q-3.24-5.62-6.76-11.08L101.92,457.53Q107.37,461,113,464.29Z" transform="translate(17.74 17.74)"/><path class="477a66e3-4cd0-4ddb-ac83-c8637931997d" d="M91.3,450.31l359-359q-3.72-5.17-7.68-10.16L81.14,442.63Q86.12,446.59,91.3,450.31Z" transform="translate(17.74 17.74)"/><path class="477a66e3-4cd0-4ddb-ac83-c8637931997d" d="M71.42,434.51,434.51,71.42q-4.17-4.74-8.56-9.28L62.14,426Q66.67,430.35,71.42,434.51Z" transform="translate(17.74 17.74)"/><path class="477a66e3-4cd0-4ddb-ac83-c8637931997d" d="M101.92,457.53,457.53,101.92q-3.48-5.4-7.22-10.62l-359,359Q96.52,454,101.92,457.53Z" transform="translate(17.74 17.74)"/><path class="477a66e3-4cd0-4ddb-ac83-c8637931997d" d="M81.14,442.63,442.63,81.14q-3.94-5-8.12-9.72L71.42,434.51Q76.18,438.68,81.14,442.63Z" transform="translate(17.74 17.74)"/><path class="477a66e3-4cd0-4ddb-ac83-c8637931997d" d="M324.78,484.43,484.43,324.78a256.19,256.19,0,0,0,7.22-25L299.73,491.65A256.19,256.19,0,0,0,324.78,484.43Z" transform="translate(17.74 17.74)"/><path class="477a66e3-4cd0-4ddb-ac83-c8637931997d" d="M355.48,471.58l116.1-116.1a256.07,256.07,0,0,0,12.85-30.7L324.78,484.43A256.07,256.07,0,0,0,355.48,471.58Z" transform="translate(17.74 17.74)"/><path class="477a66e3-4cd0-4ddb-ac83-c8637931997d" d="M408.27,436.63l28.36-28.36a258.07,258.07,0,0,0,34.95-52.79l-116.1,116.1A258.07,258.07,0,0,0,408.27,436.63Z" transform="translate(17.74 17.74)"/><path class="477a66e3-4cd0-4ddb-ac83-c8637931997d" d="M206.17,496,496,206.17q-1-7.72-2.55-15.3L190.87,493.46Q198.45,495,206.17,496Z" transform="translate(17.74 17.74)"/><path class="477a66e3-4cd0-4ddb-ac83-c8637931997d" d="M436.63,408.27l-28.36,28.36A260.08,260.08,0,0,0,436.63,408.27Z" transform="translate(17.74 17.74)"/><path class="477a66e3-4cd0-4ddb-ac83-c8637931997d" d="M299.73,491.65,491.65,299.73q2.52-10.8,4.1-22l-218,218Q288.91,494.16,299.73,491.65Z" transform="translate(17.74 17.74)"/><path class="477a66e3-4cd0-4ddb-ac83-c8637931997d" d="M222.33,497.69,497.69,222.33c-.39-5.44-1-10.83-1.68-16.16L206.17,496C211.5,496.73,216.89,497.3,222.33,497.69Z" transform="translate(17.74 17.74)"/><path class="477a66e3-4cd0-4ddb-ac83-c8637931997d" d="M239.5,498.35,498.35,239.5q0-8.66-.66-17.17L222.33,497.69Q230.83,498.31,239.5,498.35Z" transform="translate(17.74 17.74)"/><path class="477a66e3-4cd0-4ddb-ac83-c8637931997d" d="M241.07,498.37c5.65,0,11.25-.2,16.82-.56L497.81,257.89c.36-5.57.56-11.17.56-16.82,0-.53,0-1,0-1.57L239.5,498.35Z" transform="translate(17.74 17.74)"/><path class="477a66e3-4cd0-4ddb-ac83-c8637931997d" d="M277.78,495.75l218-218q1.41-9.82,2.06-19.89L257.89,497.81Q267.94,497.17,277.78,495.75Z" transform="translate(17.74 17.74)"/><path class="477a66e3-4cd0-4ddb-ac83-c8637931997d" d="M-16.18,236.67,236.67-16.18q-9.51.15-18.84,1l-233,233Q-16,227.16-16.18,236.67Z" transform="translate(17.74 17.74)"/><path class="477a66e3-4cd0-4ddb-ac83-c8637931997d" d="M-16.24,241.07q0,6.62.33,13.16L254.23-15.91q-6.54-.33-13.16-.33c-1.47,0-2.94,0-4.4.06L-16.18,236.67C-16.21,238.13-16.24,239.6-16.24,241.07Z" transform="translate(17.74 17.74)"/><path class="477a66e3-4cd0-4ddb-ac83-c8637931997d" d="M-15.18,217.83l233-233q-10.38.93-20.51,2.66L-12.52,197.32Q-14.24,207.45-15.18,217.83Z" transform="translate(17.74 17.74)"/><path class="477a66e3-4cd0-4ddb-ac83-c8637931997d" d="M-12.27,286.28,286.28-12.27c-5.14-.92-10.34-1.66-15.58-2.26L-14.53,270.7C-13.93,275.94-13.19,281.14-12.27,286.28Z" transform="translate(17.74 17.74)"/><path class="477a66e3-4cd0-4ddb-ac83-c8637931997d" d="M-14.53,270.7,270.7-14.53c-5.45-.62-10.93-1.1-16.47-1.38L-15.91,254.23C-15.63,259.77-15.15,265.25-14.53,270.7Z" transform="translate(17.74 17.74)"/><path class="477a66e3-4cd0-4ddb-ac83-c8637931997d" d="M-7.52,174.48l182-182A255.13,255.13,0,0,0,148,1.12L1.12,148A255.13,255.13,0,0,0-7.52,174.48Z" transform="translate(17.74 17.74)"/><path class="477a66e3-4cd0-4ddb-ac83-c8637931997d" d="M1.12,148,148,1.12A256.65,256.65,0,0,0,114,17.3L17.3,114A256.65,256.65,0,0,0,1.12,148Z" transform="translate(17.74 17.74)"/><path class="477a66e3-4cd0-4ddb-ac83-c8637931997d" d="M114,17.3A258.47,258.47,0,0,0,17.3,114Z" transform="translate(17.74 17.74)"/><path class="477a66e3-4cd0-4ddb-ac83-c8637931997d" d="M-9.19,301,301-9.19q-7.31-1.76-14.76-3.08L-12.27,286.28Q-11,293.74-9.19,301Z" transform="translate(17.74 17.74)"/><path class="477a66e3-4cd0-4ddb-ac83-c8637931997d" d="M-12.52,197.32,197.32-12.52q-11.61,2-22.84,5l-182,182Q-10.52,185.72-12.52,197.32Z" transform="translate(17.74 17.74)"/><path class="477a66e3-4cd0-4ddb-ac83-c8637931997d" d="M4,341.33,341.33,4Q335,1.36,328.51-1L-1,328.51Q1.36,335,4,341.33Z" transform="translate(17.74 17.74)"/><path class="477a66e3-4cd0-4ddb-ac83-c8637931997d" d="M29.38,387.35l358-358q-5.3-3.66-10.78-7.07L22.31,376.57Q25.71,382.06,29.38,387.35Z" transform="translate(17.74 17.74)"/><path class="477a66e3-4cd0-4ddb-ac83-c8637931997d" d="M36.91,397.66,397.66,36.91q-5.06-3.88-10.31-7.53l-358,358Q33,392.6,36.91,397.66Z" transform="translate(17.74 17.74)"/><path class="477a66e3-4cd0-4ddb-ac83-c8637931997d" d="M53.29,417,417,53.29q-4.6-4.32-9.43-8.41L44.88,407.53Q49,412.35,53.29,417Z" transform="translate(17.74 17.74)"/><path class="477a66e3-4cd0-4ddb-ac83-c8637931997d" d="M22.31,376.57,376.57,22.31q-5.52-3.43-11.24-6.59L15.72,365.33Q18.87,371,22.31,376.57Z" transform="translate(17.74 17.74)"/><path class="477a66e3-4cd0-4ddb-ac83-c8637931997d" d="M44.88,407.53,407.53,44.88q-4.83-4.11-9.87-8L36.91,397.66Q40.78,402.7,44.88,407.53Z" transform="translate(17.74 17.74)"/><path class="477a66e3-4cd0-4ddb-ac83-c8637931997d" d="M-5.41,315.1,315.1-5.41q-7-2.08-14.06-3.78L-9.19,301Q-7.5,308.15-5.41,315.1Z" transform="translate(17.74 17.74)"/><path class="477a66e3-4cd0-4ddb-ac83-c8637931997d" d="M62.14,426,426,62.14q-4.38-4.53-9-8.85L53.29,417Q57.61,421.56,62.14,426Z" transform="translate(17.74 17.74)"/><path class="477a66e3-4cd0-4ddb-ac83-c8637931997d" d="M-1,328.51,328.51-1C324.1-2.58,319.62-4,315.1-5.41L-5.41,315.1C-4,319.62-2.58,324.1-1,328.51Z" transform="translate(17.74 17.74)"/><path class="477a66e3-4cd0-4ddb-ac83-c8637931997d" d="M15.72,365.33,365.33,15.72q-5.79-3.2-11.74-6.1l-344,344Q12.52,359.55,15.72,365.33Z" transform="translate(17.74 17.74)"/><path class="477a66e3-4cd0-4ddb-ac83-c8637931997d" d="M9.62,353.59l344-344q-6-3-12.26-5.59L4,341.33Q6.67,347.56,9.62,353.59Z" transform="translate(17.74 17.74)"/></g></svg>