<svg id="ceac5569-7541-4f69-9ca8-a6cf80ade10d" data-name="Layer 1" xmlns="http://www.w3.org/2000/svg" xmlns:xlink="http://www.w3.org/1999/xlink" viewBox="0 0 495.86 495.86">
  <defs>
    <clipPath id="20261f99-d8cf-4e98-9db5-0ed56abfc0e3" transform="translate(6.87 6.87)">
      <circle id="bff7d24a-6fde-4f3c-a15d-6b17191819e1" data-name="SVGID" cx="241.07" cy="241.07" r="241.07" style="fill: none"/>
    </clipPath>
  </defs>
  <title>lines</title>
  <g style="clip-path: url(#20261f99-d8cf-4e98-9db5-0ed56abfc0e3)">
    <g>
      <path d="M79.4,427.06,427.06,79.4q-4.24-4.86-8.73-9.5L69.9,418.33Q74.54,422.82,79.4,427.06Z" transform="translate(6.87 6.87)" style="fill: none;stroke: #3b3b3d;stroke-miterlimit: 10;stroke-width: 3px"/>
      <path d="M160.21,473.91l313.7-313.7q-2.32-6.69-5-13.21L147,468.89Q153.51,471.58,160.21,473.91Z" transform="translate(6.87 6.87)" style="fill: none;stroke: #3b3b3d;stroke-miterlimit: 10;stroke-width: 3px"/>
      <path d="M174.08,478.28l304.2-304.2c-1.32-4.68-2.79-9.3-4.37-13.87l-313.7,313.7C164.78,475.49,169.4,477,174.08,478.28Z" transform="translate(6.87 6.87)" style="fill: none;stroke: #3b3b3d;stroke-miterlimit: 10;stroke-width: 3px"/>
      <path d="M134.38,463.27,463.27,134.38q-2.94-6.1-6.22-12l-334.7,334.7Q128.28,460.32,134.38,463.27Z" transform="translate(6.87 6.87)" style="fill: none;stroke: #3b3b3d;stroke-miterlimit: 10;stroke-width: 3px"/>
      <path d="M147,468.89,468.89,147c-1.77-4.27-3.63-8.48-5.62-12.62L134.38,463.27C138.52,465.26,142.73,467.12,147,468.89Z" transform="translate(6.87 6.87)" style="fill: none;stroke: #3b3b3d;stroke-miterlimit: 10;stroke-width: 3px"/>
      <path d="M99.88,443.05,443.05,99.88q-3.74-5.34-7.75-10.48L89.4,435.3Q94.53,439.32,99.88,443.05Z" transform="translate(6.87 6.87)" style="fill: none;stroke: #3b3b3d;stroke-miterlimit: 10;stroke-width: 3px"/>
      <path d="M69.9,418.33,418.33,69.9q-4.49-4.65-9.2-9L60.86,409.13Q65.26,413.84,69.9,418.33Z" transform="translate(6.87 6.87)" style="fill: none;stroke: #3b3b3d;stroke-miterlimit: 10;stroke-width: 3px"/>
      <path d="M122.35,457.05l334.7-334.7q-3.21-5.84-6.74-11.49L110.86,450.31Q116.51,453.84,122.35,457.05Z" transform="translate(6.87 6.87)" style="fill: none;stroke: #3b3b3d;stroke-miterlimit: 10;stroke-width: 3px"/>
      <path d="M110.86,450.31,450.31,110.86q-3.49-5.58-7.26-11L99.88,443.05Q105.27,446.83,110.86,450.31Z" transform="translate(6.87 6.87)" style="fill: none;stroke: #3b3b3d;stroke-miterlimit: 10;stroke-width: 3px"/>
      <path d="M188.69,481.9,481.9,188.69q-1.61-7.38-3.62-14.61l-304.2,304.2Q181.29,480.31,188.69,481.9Z" transform="translate(6.87 6.87)" style="fill: none;stroke: #3b3b3d;stroke-miterlimit: 10;stroke-width: 3px"/>
      <path d="M299.51,480.5l181-181q2.72-11.11,4.4-22.62l-208,208Q288.38,483.22,299.51,480.5Z" transform="translate(6.87 6.87)" style="fill: none;stroke: #3b3b3d;stroke-miterlimit: 10;stroke-width: 3px"/>
      <path d="M204.1,484.74,484.74,204.1q-1.19-7.78-2.84-15.41L188.69,481.9Q196.31,483.55,204.1,484.74Z" transform="translate(6.87 6.87)" style="fill: none;stroke: #3b3b3d;stroke-miterlimit: 10;stroke-width: 3px"/>
      <path d="M325.67,472.59,472.59,325.67a242.38,242.38,0,0,0,7.91-26.16l-181,181A242.38,242.38,0,0,0,325.67,472.59Z" transform="translate(6.87 6.87)" style="fill: none;stroke: #3b3b3d;stroke-miterlimit: 10;stroke-width: 3px"/>
      <path d="M457.49,359,359,457.49A247.66,247.66,0,0,0,457.49,359Z" transform="translate(6.87 6.87)" style="fill: none;stroke: #3b3b3d;stroke-miterlimit: 10;stroke-width: 3px"/>
      <path d="M359,457.49,457.49,359a246.16,246.16,0,0,0,15.1-33.34L325.67,472.59A246.16,246.16,0,0,0,359,457.49Z" transform="translate(6.87 6.87)" style="fill: none;stroke: #3b3b3d;stroke-miterlimit: 10;stroke-width: 3px"/>
      <path d="M220.44,486.63,486.63,220.44q-.69-8.25-1.89-16.34L204.1,484.74Q212.19,486,220.44,486.63Z" transform="translate(6.87 6.87)" style="fill: none;stroke: #3b3b3d;stroke-miterlimit: 10;stroke-width: 3px"/>
      <path d="M237.85,487.46,487.46,237.85q-.12-8.78-.83-17.41L220.44,486.63Q229.07,487.35,237.85,487.46Z" transform="translate(6.87 6.87)" style="fill: none;stroke: #3b3b3d;stroke-miterlimit: 10;stroke-width: 3px"/>
      <path d="M241.07,487.5c5.2,0,10.36-.18,15.48-.5L487,256.55c.32-5.12.5-10.28.5-15.48,0-1.08,0-2.15,0-3.22L237.85,487.46C238.92,487.47,240,487.5,241.07,487.5Z" transform="translate(6.87 6.87)" style="fill: none;stroke: #3b3b3d;stroke-miterlimit: 10;stroke-width: 3px"/>
      <path d="M276.89,484.9l208-208q1.46-10,2.1-20.34L256.55,487Q266.84,486.36,276.89,484.9Z" transform="translate(6.87 6.87)" style="fill: none;stroke: #3b3b3d;stroke-miterlimit: 10;stroke-width: 3px"/>
      <path d="M89.4,435.3,435.3,89.4q-4-5.12-8.24-10L79.4,427.06Q84.29,431.3,89.4,435.3Z" transform="translate(6.87 6.87)" style="fill: none;stroke: #3b3b3d;stroke-miterlimit: 10;stroke-width: 3px"/>
      <path d="M146.5,13.45,13.45,146.5a243.61,243.61,0,0,0-9.69,27.93L174.43,3.76A243.61,243.61,0,0,0,146.5,13.45Z" transform="translate(6.87 6.87)" style="fill: none;stroke: #3b3b3d;stroke-miterlimit: 10;stroke-width: 3px"/>
      <path d="M108.27,33.44,33.44,108.27a246.13,246.13,0,0,0-20,38.23l133.05-133A246.13,246.13,0,0,0,108.27,33.44Z" transform="translate(6.87 6.87)" style="fill: none;stroke: #3b3b3d;stroke-miterlimit: 10;stroke-width: 3px"/>
      <path d="M33.44,108.27l74.83-74.83A247.72,247.72,0,0,0,33.44,108.27Z" transform="translate(6.87 6.87)" style="fill: none;stroke: #3b3b3d;stroke-miterlimit: 10;stroke-width: 3px"/>
      <path d="M-3.35,272.72,272.72-3.35Q264.45-4.4,256-4.9L-4.9,256Q-4.39,264.45-3.35,272.72Z" transform="translate(6.87 6.87)" style="fill: none;stroke: #3b3b3d;stroke-miterlimit: 10;stroke-width: 3px"/>
      <path d="M-5.36,241.07c0,5,.17,10,.46,15L256-4.9c-5-.29-10-.46-15-.46-.95,0-1.9,0-2.84,0L-5.33,238.23C-5.34,239.17-5.36,240.12-5.36,241.07Z" transform="translate(6.87 6.87)" style="fill: none;stroke: #3b3b3d;stroke-miterlimit: 10;stroke-width: 3px"/>
      <path d="M198-1.61-1.61,198c-1.22,6.9-2.13,13.91-2.76,21L219-4.37C212-3.74,204.94-2.83,198-1.61Z" transform="translate(6.87 6.87)" style="fill: none;stroke: #3b3b3d;stroke-miterlimit: 10;stroke-width: 3px"/>
      <path d="M-4.37,219q-.84,9.51-1,19.2L238.23-5.33q-9.69.12-19.2,1Z" transform="translate(6.87 6.87)" style="fill: none;stroke: #3b3b3d;stroke-miterlimit: 10;stroke-width: 3px"/>
      <path d="M60.86,409.13,409.13,60.86q-4.72-4.41-9.68-8.57L52.29,399.45Q56.45,404.4,60.86,409.13Z" transform="translate(6.87 6.87)" style="fill: none;stroke: #3b3b3d;stroke-miterlimit: 10;stroke-width: 3px"/>
      <path d="M174.43,3.76,3.76,174.43Q.52,186-1.61,198L198-1.61Q186,.51,174.43,3.76Z" transform="translate(6.87 6.87)" style="fill: none;stroke: #3b3b3d;stroke-miterlimit: 10;stroke-width: 3px"/>
      <path d="M-.8,288.41,288.41-.8q-7.76-1.52-15.69-2.55L-3.35,272.72Q-2.33,280.65-.8,288.41Z" transform="translate(6.87 6.87)" style="fill: none;stroke: #3b3b3d;stroke-miterlimit: 10;stroke-width: 3px"/>
      <path d="M29.52,367.51l338-338q-5.73-3.43-11.67-6.56L23,355.84Q26.1,361.77,29.52,367.51Z" transform="translate(6.87 6.87)" style="fill: none;stroke: #3b3b3d;stroke-miterlimit: 10;stroke-width: 3px"/>
      <path d="M2.57,303.28,303.28,2.57c-4.89-1.28-9.86-2.4-14.87-3.37L-.8,288.41C.17,293.42,1.29,298.39,2.57,303.28Z" transform="translate(6.87 6.87)" style="fill: none;stroke: #3b3b3d;stroke-miterlimit: 10;stroke-width: 3px"/>
      <path d="M36.61,378.67,378.67,36.61q-5.48-3.69-11.16-7.09l-338,338Q32.92,373.2,36.61,378.67Z" transform="translate(6.87 6.87)" style="fill: none;stroke: #3b3b3d;stroke-miterlimit: 10;stroke-width: 3px"/>
      <path d="M52.29,399.45,399.45,52.29q-5-4.17-10.14-8.09L44.2,389.31Q48.12,394.49,52.29,399.45Z" transform="translate(6.87 6.87)" style="fill: none;stroke: #3b3b3d;stroke-miterlimit: 10;stroke-width: 3px"/>
      <path d="M44.2,389.31,389.31,44.2q-5.22-3.93-10.64-7.59L36.61,378.67Q40.25,384.1,44.2,389.31Z" transform="translate(6.87 6.87)" style="fill: none;stroke: #3b3b3d;stroke-miterlimit: 10;stroke-width: 3px"/>
      <path d="M6.7,317.38,317.38,6.7c-4.64-1.51-9.34-2.9-14.1-4.13L2.57,303.28C3.8,308,5.19,312.74,6.7,317.38Z" transform="translate(6.87 6.87)" style="fill: none;stroke: #3b3b3d;stroke-miterlimit: 10;stroke-width: 3px"/>
      <path d="M11.5,330.82,330.82,11.5q-6.61-2.6-13.44-4.8L6.7,317.38Q8.92,324.19,11.5,330.82Z" transform="translate(6.87 6.87)" style="fill: none;stroke: #3b3b3d;stroke-miterlimit: 10;stroke-width: 3px"/>
      <path d="M16.94,343.62,343.62,16.94q-6.3-2.9-12.8-5.44L11.5,330.82Q14,337.31,16.94,343.62Z" transform="translate(6.87 6.87)" style="fill: none;stroke: #3b3b3d;stroke-miterlimit: 10;stroke-width: 3px"/>
      <path d="M23,355.84,355.84,23c-4-2.11-8.08-4.13-12.22-6L16.94,343.62C18.83,347.76,20.85,351.83,23,355.84Z" transform="translate(6.87 6.87)" style="fill: none;stroke: #3b3b3d;stroke-miterlimit: 10;stroke-width: 3px"/>
    </g>
  </g>
</svg>
