<svg id="09487694-cdc9-42f9-b6a7-394b33c2b4a2" data-name="Layer 1" xmlns="http://www.w3.org/2000/svg" viewBox="0 0 618.47 623.64">
  <title>map</title>
  <g>
    <path d="M365.67,421l92.81-92.56V315.64L352.88,421C356.94,421,361.19,421,365.67,421Z" transform="translate(28)" style="fill: none;stroke: #3b3b3d;stroke-miterlimit: 10;stroke-width: 1.27323540188854px"/>
    <path d="M366.25,421l12.21,0,80-79.79v-12.8L365.67,421Z" transform="translate(28)" style="fill: none;stroke: #3b3b3d;stroke-miterlimit: 10;stroke-width: 1.27323540188854px"/>
    <path d="M352.88,421,458.49,315.64v-12.8L339.94,421.09C344,421,348.34,421,352.88,421Z" transform="translate(28)" style="fill: none;stroke: #3b3b3d;stroke-miterlimit: 10;stroke-width: 1.27323540188854px"/>
    <path d="M391.23,421.11l67.23-67.05V341.25l-80,79.79Z" transform="translate(28)" style="fill: none;stroke: #3b3b3d;stroke-miterlimit: 10;stroke-width: 1.27323540188854px"/>
    <path d="M339.94,421.09,458.5,302.84l0-12.8L326.21,422C330.56,421.48,335.11,421.22,339.94,421.09Z" transform="translate(28)" style="fill: none;stroke: #3b3b3d;stroke-miterlimit: 10;stroke-width: 1.27323540188854px"/>
    <path d="M299.29,430.23a62.06,62.06,0,0,1,10.58-4.74L458.53,277.23v-12.8L285,437.49C289.89,435,294.82,432.76,299.29,430.23Z" transform="translate(28)" style="fill: none;stroke: #3b3b3d;stroke-miterlimit: 10;stroke-width: 1.27323540188854px"/>
    <path d="M263.05,453.57c5.43-7.24,13.61-11.9,22-16.08L458.54,264.43V251.62L235,474.54C247.72,471.38,255.62,463.48,263.05,453.57Z" transform="translate(28)" style="fill: none;stroke: #3b3b3d;stroke-miterlimit: 10;stroke-width: 1.27323540188854px"/>
    <path d="M326.21,422,458.52,290V277.23L309.87,425.49A78.89,78.89,0,0,1,326.21,422Z" transform="translate(28)" style="fill: none;stroke: #3b3b3d;stroke-miterlimit: 10;stroke-width: 1.27323540188854px"/>
    <path d="M454.87,421.6l3.53-3.52V405.27l-16.26,16.22Z" transform="translate(28)" style="fill: none;stroke: #3b3b3d;stroke-miterlimit: 10;stroke-width: 1.27323540188854px"/>
    <path d="M458.39,421.63v-3.55l-3.53,3.52Z" transform="translate(28)" style="fill: none;stroke: #3b3b3d;stroke-miterlimit: 10;stroke-width: 1.27323540188854px"/>
    <path d="M442.15,421.49l16.26-16.22v-12.8l-29,28.91Z" transform="translate(28)" style="fill: none;stroke: #3b3b3d;stroke-miterlimit: 10;stroke-width: 1.27323540188854px"/>
    <path d="M429.43,421.38l29-28.91v-12.8l-41.72,41.61Z" transform="translate(28)" style="fill: none;stroke: #3b3b3d;stroke-miterlimit: 10;stroke-width: 1.27323540188854px"/>
    <path d="M416.71,421.28l41.72-41.61V366.86L404,421.19Z" transform="translate(28)" style="fill: none;stroke: #3b3b3d;stroke-miterlimit: 10;stroke-width: 1.27323540188854px"/>
    <path d="M404,421.19l54.47-54.33,0-12.8-67.23,67.05Z" transform="translate(28)" style="fill: none;stroke: #3b3b3d;stroke-miterlimit: 10;stroke-width: 1.27323540188854px"/>
    <path d="M89,530.69,458.63,162V149.19L75.55,531.26C79.47,531.21,84,531.05,89,530.69Z" transform="translate(28)" style="fill: none;stroke: #3b3b3d;stroke-miterlimit: 10;stroke-width: 1.27323540188854px"/>
    <path d="M228.65,475.69a48.27,48.27,0,0,0,6.38-1.15L458.55,251.62v-12.8L221.07,475.68A38.4,38.4,0,0,0,228.65,475.69Z" transform="translate(28)" style="fill: none;stroke: #3b3b3d;stroke-miterlimit: 10;stroke-width: 1.27323540188854px"/>
    <path d="M75.55,531.26,458.64,149.19l0-12.8L63,531C64.72,531.12,69.32,531.33,75.55,531.26Z" transform="translate(28)" style="fill: none;stroke: #3b3b3d;stroke-miterlimit: 10;stroke-width: 1.27323540188854px"/>
    <path d="M388.57,142.94c-12.51,13.9-53.8,61.63-76.63,88.6L452.13,91.73c-4,2.45-9.27,5.59-14.52,8.31C428.16,105,403.31,126.56,388.57,142.94Z" transform="translate(28)" style="fill: none;stroke: #3b3b3d;stroke-miterlimit: 10;stroke-width: 1.27323540188854px"/>
    <path d="M180.12,393.37c-5.7,8-19.58,24.73-35.91,43.83L458.67,123.58v-12.8L195.47,373.28C188.72,381.83,183.33,388.84,180.12,393.37Z" transform="translate(28)" style="fill: none;stroke: #3b3b3d;stroke-miterlimit: 10;stroke-width: 1.27323540188854px"/>
    <path d="M301.75,243.69c-8,9.63-29,34.82-51.51,62.18L458.69,98V87.55s-2.64,1.75-6.57,4.18L311.94,231.54C307.87,236.35,304.38,240.51,301.75,243.69Z" transform="translate(28)" style="fill: none;stroke: #3b3b3d;stroke-miterlimit: 10;stroke-width: 1.27323540188854px"/>
    <path d="M195.47,373.28l263.21-262.5V98L250.24,305.87C230.66,329.63,209.91,355,195.47,373.28Z" transform="translate(28)" style="fill: none;stroke: #3b3b3d;stroke-miterlimit: 10;stroke-width: 1.27323540188854px"/>
    <path d="M62.17,531l.79,0,395.7-394.63V123.58L144.21,437.2C108.9,478.5,62.17,531,62.17,531Z" transform="translate(28)" style="fill: none;stroke: #3b3b3d;stroke-miterlimit: 10;stroke-width: 1.27323540188854px"/>
    <path d="M178.68,492.37,458.59,213.21v-12.8L143,515.15A321.11,321.11,0,0,0,178.68,492.37Z" transform="translate(28)" style="fill: none;stroke: #3b3b3d;stroke-miterlimit: 10;stroke-width: 1.27323540188854px"/>
    <path d="M204.69,472s2.21.81,5.55,1.69L458.57,226l0-12.81L178.68,492.37C193.89,481.33,204.69,472,204.69,472Z" transform="translate(28)" style="fill: none;stroke: #3b3b3d;stroke-miterlimit: 10;stroke-width: 1.27323540188854px"/>
    <path d="M103.47,529,458.62,174.8V162L89,530.69C93.57,530.34,98.49,529.8,103.47,529Z" transform="translate(28)" style="fill: none;stroke: #3b3b3d;stroke-miterlimit: 10;stroke-width: 1.27323540188854px"/>
    <path d="M221.07,475.68,458.56,238.82V226L210.24,473.69A69.56,69.56,0,0,0,221.07,475.68Z" transform="translate(28)" style="fill: none;stroke: #3b3b3d;stroke-miterlimit: 10;stroke-width: 1.27323540188854px"/>
    <path d="M120.17,525.14,458.61,187.6V174.8L103.47,529A118.61,118.61,0,0,0,120.17,525.14Z" transform="translate(28)" style="fill: none;stroke: #3b3b3d;stroke-miterlimit: 10;stroke-width: 1.27323540188854px"/>
    <path d="M121.14,524.83A139.66,139.66,0,0,0,143,515.15L458.6,200.41V187.6L120.17,525.14Z" transform="translate(28)" style="fill: none;stroke: #3b3b3d;stroke-miterlimit: 10;stroke-width: 1.27323540188854px"/>
  </g>
  <path d="M437.61,100c-9.45,4.91-34.3,26.52-49,42.9s-69.45,79.74-86.82,100.75C283.63,265.6,198.14,368,180.12,393.37S62.17,531,62.17,531s33.11,2.35,59-6.15C157.28,513,204.69,472,204.69,472s13.3,4.87,24,3.69c16.58-1.84,25.8-10.65,34.4-22.12s24.11-16.46,36.24-23.34c18.43-10.44,38.09-9.21,67-9.21,26.62,0,92.14.61,92.14.61l.31-334.08S448.05,94.62,437.61,100Z" transform="translate(28)" style="fill: none;stroke: #3b3b3d;stroke-miterlimit: 10;stroke-width: 3.686000108718872px"/>
  <path d="M37.6,555.85c16-14.74,184.29-208.55,227.29-266.29S396.35,131.07,423.38,110.18,476.21,81.92,495.87,66s23.34-43,23.34-43" transform="translate(28)" style="fill: none;stroke: #3b3b3d;stroke-miterlimit: 10;stroke-width: 3.68580365180969px"/>
  <polyline points="487.01 62.47 485.05 424.72 484.55 454.8" style="fill: none;stroke: #3b3b3d;stroke-miterlimit: 10;stroke-width: 3.68580365180969px"/>
  <path d="M481.84,369.52c-17.92,0-84.12,4.11-112.52,7.27C314,382.93,284.24,388.46,256,415.49s-58,61.12-91.22,83.23-64.5,36.56-106.28,31.64c0,0-33.58-4.91-41.77-4.91" transform="translate(28)" style="fill: none;stroke: #3b3b3d;stroke-miterlimit: 10;stroke-width: 7.37160730361939px"/>
  <path d="M457.17,421.63H339.83c-24.75,0-41.77,6.14-68.18,24.57-10.44,7.28-35,43-63.28,25.8-23.3-14.18-64.23-39.21-62.65-36.86" transform="translate(28)" style="fill: none;stroke: #3b3b3d;stroke-miterlimit: 10;stroke-width: 3.68580365180969px"/>
  <text transform="translate(510.69 273.24) rotate(-90)" style="font-size: 17.200420379638672px;fill: #3b3b3d;font-family: InfoTextPro-Bold, Info Text Pro;font-weight: 700"><tspan style="letter-spacing: -0.004996244167481521em">W</tspan><tspan x="13.66" y="0" style="letter-spacing: -0.06997580609569289em">A</tspan><tspan x="22.17" y="0" style="letter-spacing: 0.03999834109080377em">T</tspan><tspan x="30.72" y="0" style="letter-spacing: 0.019984976669926085em">T</tspan><tspan x="38.92" y="0" style="letter-spacing: -0.009992488334963042em"> </tspan><tspan x="42.98" y="0" style="letter-spacing: -0.020013364420877682em">A</tspan><tspan x="52.36" y="0">VE.</tspan></text>
  <text transform="translate(458.79 498.02)" style="font-size: 14.743209838867188px;fill: #3b3b3d;font-family: InfoTextPro, Info Text Pro"><tspan style="letter-spacing: -0.04997666141246581em">T</tspan><tspan x="5.71" y="0">o</tspan><tspan x="12.84" y="0" xml:space="preserve" style="letter-spacing: -0.005000978047238129em"> A</tspan><tspan x="24.56" y="0" style="letter-spacing: -0.02497177117627516em">r</tspan><tspan x="29.34" y="0">den</tspan></text>
  <text transform="translate(27.89 587.2)" style="font-size: 14.743209838867188px;fill: #3b3b3d;font-family: InfoTextPro, Info Text Pro"><tspan style="letter-spacing: -0.04997666141246581em">T</tspan><tspan x="5.71" y="0">o Dow</tspan><tspan x="41.99" y="0" style="letter-spacing: -0.010001956094476258em">n</tspan><tspan x="49.33" y="0">town </tspan><tspan x="5.17" y="17.2" style="letter-spacing: -0.010001956094476258em">S</tspan><tspan x="12.08" y="17.2">a</tspan><tspan x="19.08" y="17.2" style="letter-spacing: -0.015002934141714388em">c</tspan><tspan x="24.72" y="17.2" style="letter-spacing: -0.03997470531798955em">r</tspan><tspan x="29.27" y="17.2">ame</tspan><tspan x="54.39" y="17.2" style="letter-spacing: -0.010001956094476258em">n</tspan><tspan x="61.74" y="17.2">to</tspan></text>
  <text transform="translate(459.67 12.31)" style="font-size: 14.743209838867188px;fill: #3b3b3d;font-family: InfoTextPro, Info Text Pro"><tspan style="letter-spacing: -0.04997666141246581em">T</tspan><tspan x="5.71" y="0">o No</tspan><tspan x="32.57" y="0" style="letter-spacing: 0.009968837034560774em">r</tspan><tspan x="37.86" y="0" style="letter-spacing: -0.004967858987322645em">t</tspan><tspan x="41.77" y="0">h</tspan><tspan x="-4.33" y="17.2">Hi</tspan><tspan x="7.92" y="17.2" style="letter-spacing: -0.010001956094476258em">g</tspan><tspan x="15.12" y="17.2">h</tspan><tspan x="22.61" y="17.2" style="letter-spacing: -0.010001956094476258em">l</tspan><tspan x="26.12" y="17.2">an</tspan><tspan x="40.61" y="17.2" style="letter-spacing: -0.009968837034560774em">d</tspan><tspan x="47.83" y="17.2">s</tspan></text>
  <text transform="translate(232.8 154.78)" style="font-size: 14.743209838867188px;fill: #3b3b3d;font-family: InfoTextPro, Info Text Pro"><tspan style="letter-spacing: -0.010001956094476258em">M</tspan><tspan x="10.87" y="0">c</tspan><tspan x="16.72" y="0" style="letter-spacing: -0.01997079312903703em">C</tspan><tspan x="23.65" y="0">lel</tspan><tspan x="37.79" y="0" style="letter-spacing: -0.010001956094476258em">l</tspan><tspan x="41.3" y="0">an </tspan><tspan x="-13.59" y="17.2">Ind</tspan><tspan x="5.02" y="17.2" style="letter-spacing: -0.010001956094476258em">us</tspan><tspan x="18.02" y="17.2" style="letter-spacing: -0.004967858987322645em">t</tspan><tspan x="21.93" y="17.2" style="letter-spacing: -0.020003912188952516em">r</tspan><tspan x="26.78" y="17.2" style="letter-spacing: -0.009968837034560774em">i</tspan><tspan x="30.29" y="17.2">al </tspan><tspan x="44.61" y="17.2" style="letter-spacing: -0.06001173656685755em">P</tspan><tspan x="51.21" y="17.2">a</tspan><tspan x="58.21" y="17.2" style="letter-spacing: -0.020003912188952516em">r</tspan><tspan x="63.06" y="17.2" style="letter-spacing: -0.009968837034560774em">k</tspan></text>
  <text transform="translate(258.13 314.16) rotate(-54.41)" style="font-size: 17.200420379638672px;fill: #3b3b3d;font-family: InfoTextPro-Bold, Info Text Pro;font-weight: 700"><tspan style="letter-spacing: -0.015002926377920361em">R</tspan><tspan x="9.18" y="0" style="letter-spacing: -0.004982050292005721em">OS</tspan><tspan x="27.11" y="0">EVILLE </tspan><tspan x="76.33" y="0" style="letter-spacing: -0.004982050292005721em">R</tspan><tspan x="85.69" y="0" style="letter-spacing: -0.009992488334963042em">D</tspan><tspan x="94.93" y="0">.</tspan></text>
  <text transform="matrix(1, -0.01, 0.01, 1, 360.67, 443.31)" style="font-size: 17.200420379638672px;fill: #3b3b3d;font-family: InfoTextPro-Bold, Info Text Pro;font-weight: 700"><tspan style="letter-spacing: -0.030005852755840723em">L</tspan><tspan x="6.9" y="0">ON</tspan><tspan x="26.69" y="0" style="letter-spacing: -0.009992488334963042em">G</tspan><tspan x="36.19" y="0">VIEW D</tspan><tspan x="85.52" y="0" style="letter-spacing: 0.009992488334963042em">R</tspan><tspan x="95.13" y="0">.</tspan></text>
  <path d="M587.4,306.45h0Z" transform="translate(28)" style="fill: #f2f2eb"/>
  <g>
    <rect x="402.17" y="374.43" width="2.58" height="3.44" rx="0.77" ry="0.77" style="fill: #3b3b3d"/>
    <path d="M379.56,359.18A14.44,14.44,0,1,0,394,373.61,14.44,14.44,0,0,0,379.56,359.18Zm-1,18.12a2.15,2.15,0,0,1-2.15,2.15h-1.83a2.15,2.15,0,0,1-2.15-2.15v-2.23a1.73,1.73,0,0,1,1.24-1.45v-.05a1.55,1.55,0,0,1-1.08-1.44V370a2.15,2.15,0,0,1,2.15-2.15h1.51a2.15,2.15,0,0,1,2.15,2.15v2.15a1.55,1.55,0,0,1-1.08,1.44v.05a1.73,1.73,0,0,1,1.24,1.45Zm8.18,0a2.15,2.15,0,0,1-2.15,2.15h-1.82a2.15,2.15,0,0,1-2.15-2.15V370a2.15,2.15,0,0,1,2.15-2.15h1.82a2.15,2.15,0,0,1,2.15,2.15Z" transform="translate(28)" style="fill: #3b3b3d"/>
    <rect x="402.33" y="369.41" width="2.27" height="3.44" rx="0.77" ry="0.77" style="fill: #3b3b3d"/>
    <rect x="410.36" y="369.41" width="2.58" height="8.46" rx="0.77" ry="0.77" style="fill: #3b3b3d"/>
    <path d="M377.29,373.62v-.05a1.55,1.55,0,0,0,1.08-1.44V370a2.15,2.15,0,0,0-2.15-2.15h-1.51a2.15,2.15,0,0,0-2.15,2.15v2.15a1.55,1.55,0,0,0,1.08,1.44v.05a1.73,1.73,0,0,0-1.24,1.45v2.23a2.15,2.15,0,0,0,2.15,2.15h1.83a2.15,2.15,0,0,0,2.15-2.15v-2.23A1.73,1.73,0,0,0,377.29,373.62Zm-3-3.43a.77.77,0,0,1,.77-.78h.73a.77.77,0,0,1,.77.78v1.89a.76.76,0,0,1-.77.77h-.73a.76.76,0,0,1-.77-.77Zm2.42,6.91a.76.76,0,0,1-.77.77h-1a.77.77,0,0,1-.78-.77v-1.89a.78.78,0,0,1,.78-.78h1a.77.77,0,0,1,.77.78Z" transform="translate(28)" style="fill: #f2f2eb"/>
    <path d="M384.56,367.83h-1.82a2.15,2.15,0,0,0-2.15,2.15v7.32a2.15,2.15,0,0,0,2.15,2.15h1.82a2.15,2.15,0,0,0,2.15-2.15V370A2.15,2.15,0,0,0,384.56,367.83Zm.38,9.27a.76.76,0,0,1-.77.77h-1a.77.77,0,0,1-.78-.77v-6.91a.78.78,0,0,1,.78-.78h1a.77.77,0,0,1,.77.78Z" transform="translate(28)" style="fill: #f2f2eb"/>
  </g>
</svg>
