<svg id="0fb57495-61e9-4d29-90e3-1b3d5c4a02ad" data-name="Layer 1" xmlns="http://www.w3.org/2000/svg" viewBox="0 0 520.77 602.6">
  <title>map</title>
  <g>
    <g>
      <path d="M352.62,419.1,458.23,313.77V301L339.67,419.22C343.78,419.11,348.08,419.09,352.62,419.1Z" style="fill: none;stroke: #3b3b3d;stroke-miterlimit: 10;stroke-width: 0.5px"/>
      <path d="M339.67,419.22,458.24,301V288.16L326,420.11C330.3,419.61,334.85,419.35,339.67,419.22Z" style="fill: none;stroke: #3b3b3d;stroke-miterlimit: 10;stroke-width: 0.5px"/>
      <path d="M365.4,419.14l92.82-92.57v-12.8L352.62,419.1C356.68,419.11,360.93,419.14,365.4,419.14Z" style="fill: none;stroke: #3b3b3d;stroke-miterlimit: 10;stroke-width: 0.5px"/>
      <path d="M326,420.11l132.3-131.95v-12.8L309.61,423.62A77.61,77.61,0,0,1,326,420.11Z" style="fill: none;stroke: #3b3b3d;stroke-miterlimit: 10;stroke-width: 0.5px"/>
      <path d="M262.78,451.7c5.44-7.24,13.62-11.9,22-16.09L458.28,262.55v-12.8L234.77,472.67C247.46,469.51,255.36,461.6,262.78,451.7Z" style="fill: none;stroke: #3b3b3d;stroke-miterlimit: 10;stroke-width: 0.5px"/>
      <path d="M366,419.14l12.21,0,80-79.79V326.57L365.4,419.14Z" style="fill: none;stroke: #3b3b3d;stroke-miterlimit: 10;stroke-width: 0.5px"/>
      <path d="M299,428.36a60.21,60.21,0,0,1,10.58-4.74L458.26,275.36l0-12.81L284.75,435.61C289.63,433.17,294.56,430.89,299,428.36Z" style="fill: none;stroke: #3b3b3d;stroke-miterlimit: 10;stroke-width: 0.5px"/>
      <path d="M441.89,419.61l16.26-16.21V390.59l-29,28.91Z" style="fill: none;stroke: #3b3b3d;stroke-miterlimit: 10;stroke-width: 0.5px"/>
      <path d="M454.61,419.72l3.52-3.52,0-12.8-16.26,16.21Z" style="fill: none;stroke: #3b3b3d;stroke-miterlimit: 10;stroke-width: 0.5px"/>
      <path d="M391,419.23l67.23-67.05,0-12.8-80,79.79Z" style="fill: none;stroke: #3b3b3d;stroke-miterlimit: 10;stroke-width: 0.5px"/>
      <path d="M458.13,419.76V416.2l-3.52,3.52Z" style="fill: none;stroke: #3b3b3d;stroke-miterlimit: 10;stroke-width: 0.5px"/>
      <path d="M403.71,419.31,458.18,365V352.18L391,419.23Z" style="fill: none;stroke: #3b3b3d;stroke-miterlimit: 10;stroke-width: 0.5px"/>
      <path d="M416.44,419.41l41.73-41.62V365l-54.47,54.32Z" style="fill: none;stroke: #3b3b3d;stroke-miterlimit: 10;stroke-width: 0.5px"/>
      <path d="M429.17,419.5l29-28.91v-12.8l-41.73,41.62Z" style="fill: none;stroke: #3b3b3d;stroke-miterlimit: 10;stroke-width: 0.5px"/>
      <path d="M204.43,470.13s2.2.81,5.54,1.68L458.31,224.14v-12.8L178.42,490.5C193.63,479.45,204.43,470.13,204.43,470.13Z" style="fill: none;stroke: #3b3b3d;stroke-miterlimit: 10;stroke-width: 0.5px"/>
      <path d="M179.85,391.5c-5.69,8-19.58,24.73-35.9,43.82L458.41,121.71V108.9L195.21,371.41C188.45,380,183.07,387,179.85,391.5Z" style="fill: none;stroke: #3b3b3d;stroke-miterlimit: 10;stroke-width: 0.5px"/>
      <path d="M75.29,529.38,458.38,147.32V134.51L62.7,529.15C64.45,529.25,69.05,529.46,75.29,529.38Z" style="fill: none;stroke: #3b3b3d;stroke-miterlimit: 10;stroke-width: 0.5px"/>
      <path d="M61.91,529.1l.79,0L458.39,134.51l0-12.8L144,435.32C108.64,476.62,61.91,529.1,61.91,529.1Z" style="fill: none;stroke: #3b3b3d;stroke-miterlimit: 10;stroke-width: 0.5px"/>
      <path d="M195.21,371.41,458.42,108.9V96.1L250,304C230.4,327.75,209.65,353.13,195.21,371.41Z" style="fill: none;stroke: #3b3b3d;stroke-miterlimit: 10;stroke-width: 0.5px"/>
      <path d="M301.48,241.81c-8,9.64-29,34.82-51.51,62.19L458.43,96.1V85.68s-2.64,1.75-6.57,4.17L311.68,229.67C307.61,234.48,304.12,238.63,301.48,241.81Z" style="fill: none;stroke: #3b3b3d;stroke-miterlimit: 10;stroke-width: 0.5px"/>
      <path d="M388.31,141.07c-12.52,13.9-53.8,61.62-76.63,88.6L451.87,89.85c-4,2.45-9.28,5.59-14.52,8.32C427.9,103.08,403.05,124.69,388.31,141.07Z" style="fill: none;stroke: #3b3b3d;stroke-miterlimit: 10;stroke-width: 0.5px"/>
      <path d="M103.2,527.13l355.16-354.2V160.12L88.69,528.81C93.31,528.46,98.23,527.93,103.2,527.13Z" style="fill: none;stroke: #3b3b3d;stroke-miterlimit: 10;stroke-width: 0.5px"/>
      <path d="M88.69,528.81,458.37,160.12v-12.8L75.29,529.38C79.21,529.34,83.77,529.18,88.69,528.81Z" style="fill: none;stroke: #3b3b3d;stroke-miterlimit: 10;stroke-width: 0.5px"/>
      <path d="M178.42,490.5l279.9-279.16V198.53L142.74,513.28A321.27,321.27,0,0,0,178.42,490.5Z" style="fill: none;stroke: #3b3b3d;stroke-miterlimit: 10;stroke-width: 0.5px"/>
      <path d="M220.81,473.8,458.3,237V224.14L210,471.81A67.42,67.42,0,0,0,220.81,473.8Z" style="fill: none;stroke: #3b3b3d;stroke-miterlimit: 10;stroke-width: 0.5px"/>
      <path d="M120.88,523a139.16,139.16,0,0,0,21.86-9.68L458.33,198.53l0-12.8L119.91,523.26Z" style="fill: none;stroke: #3b3b3d;stroke-miterlimit: 10;stroke-width: 0.5px"/>
      <path d="M119.91,523.26,458.35,185.73v-12.8L103.2,527.13A118.45,118.45,0,0,0,119.91,523.26Z" style="fill: none;stroke: #3b3b3d;stroke-miterlimit: 10;stroke-width: 0.5px"/>
      <path d="M228.38,473.81a48.16,48.16,0,0,0,6.39-1.14L458.29,249.75V237L220.81,473.8A36.84,36.84,0,0,0,228.38,473.81Z" style="fill: none;stroke: #3b3b3d;stroke-miterlimit: 10;stroke-width: 0.5px"/>
    </g>
    <path id="de6a0450-3b2c-4fd1-bc96-de3b584a2f2d" data-name="SVGID" d="M61.91,529.1s99.92-112.21,117.94-137.6S283.36,263.72,301.48,241.81c17.38-21,72.08-84.36,86.83-100.74s39.59-38,49-42.9c10.44-5.43,21.09-12.49,21.09-12.49l-.31,334.08s-65.52-.62-92.14-.62c-28.88,0-48.53-1.23-67,9.22-12.14,6.87-27.65,11.87-36.25,23.34S245,472,228.38,473.81c-10.65,1.19-23.95-3.68-23.95-3.68S157,511.08,120.88,523C95,531.46,61.91,529.1,61.91,529.1Z" style="fill: none;stroke: #3b3b3d;stroke-miterlimit: 10;stroke-width: 0.5px"/>
  </g>
  <path d="M37.34,554c16-14.74,184.29-208.55,227.29-266.3S396.09,129.19,423.12,108.3,476,80.05,495.6,64.08s23.35-43,23.35-43" style="fill: none;stroke: #3b3b3d;stroke-miterlimit: 10;stroke-width: 3.68580365180969px"/>
  <polyline points="458.75 60.59 456.78 422.85 456.29 452.93" style="fill: none;stroke: #3b3b3d;stroke-miterlimit: 10;stroke-width: 3.68580365180969px"/>
  <path d="M481.58,367.65c-17.92,0-84.13,4.11-112.52,7.26-55.29,6.14-85.08,11.67-113.34,38.7s-58.05,61.13-91.22,83.24S100,533.4,58.22,528.49c0,0-33.58-4.92-41.77-4.92" style="fill: none;stroke: #3b3b3d;stroke-miterlimit: 10;stroke-width: 7.37160730361939px"/>
  <path d="M456.9,419.76H339.57c-24.75,0-41.77,6.14-68.19,24.57-10.43,7.28-35,43-63.27,25.8-23.31-14.19-64.23-39.22-62.66-36.86" style="fill: none;stroke: #3b3b3d;stroke-miterlimit: 10;stroke-width: 3.68580365180969px"/>
  <g>
    <path d="M482,259.43a.6.6,0,0,1,.43.6v2.27a.61.61,0,0,1-.43.6l-7.62,1.31c-.45.07-1.68.16-2.18.21.48,0,1.73.1,2.2.19l7.6,1.27a.61.61,0,0,1,.43.6v2.31a.61.61,0,0,1-.43.6l-10.49,1.67c-.31.05-.6-.06-.6-.4V269.1a.56.56,0,0,1,.51-.62l7.12-.79c.57-.07,1.71-.13,2.43-.18-.74-.08-1.76-.17-2.43-.29L471.41,266a.55.55,0,0,1-.5-.62v-2a.56.56,0,0,1,.5-.62l7.1-1.29c.74-.14,1.6-.23,2.46-.31l-2.41-.21-7.15-.72a.55.55,0,0,1-.5-.59v-1.32c0-.34.29-.45.6-.4Z" style="fill: #3b3b3d"/>
    <path d="M482.43,248.56v1.55a.59.59,0,0,1-.43.6l-2.15.55v3.35l2.15.52a.6.6,0,0,1,.43.6v1.43c0,.34-.29.48-.6.39l-10.49-2.8a.62.62,0,0,1-.43-.6v-2.36a.62.62,0,0,1,.43-.6l10.49-3C482.14,248.08,482.43,248.22,482.43,248.56Zm-8.67,4.14a11.43,11.43,0,0,1-1.55.28,8.81,8.81,0,0,1,1.55.27l4,.88v-2.35Z" style="fill: #3b3b3d"/>
    <path d="M473,241.61v2.24H482a.49.49,0,0,1,.48.48v1.36a.49.49,0,0,1-.48.48H473v2.23a.49.49,0,0,1-.48.48h-1.13a.49.49,0,0,1-.48-.48v-6.79a.49.49,0,0,1,.48-.48h1.13A.49.49,0,0,1,473,241.61Z" style="fill: #3b3b3d"/>
    <path d="M473,233.06v2.24H482a.49.49,0,0,1,.48.48v1.36a.49.49,0,0,1-.48.48H473v2.23a.5.5,0,0,1-.48.49h-1.13a.5.5,0,0,1-.48-.49v-6.79a.49.49,0,0,1,.48-.48h1.13A.49.49,0,0,1,473,233.06Z" style="fill: #3b3b3d"/>
    <path d="M482.43,219.23v1.55a.59.59,0,0,1-.43.6l-2.15.55v3.36l2.15.51a.6.6,0,0,1,.43.6v1.43c0,.35-.29.48-.6.4l-10.49-2.81a.62.62,0,0,1-.43-.6v-2.35a.64.64,0,0,1,.43-.61l10.49-3C482.14,218.75,482.43,218.89,482.43,219.23Zm-8.67,4.15a11.41,11.41,0,0,1-1.55.27,9.85,9.85,0,0,1,1.55.28l4,.88v-2.36Z" style="fill: #3b3b3d"/>
    <path d="M482,212.68a.62.62,0,0,1,.43.6v2a.64.64,0,0,1-.43.61l-10.49,2.94c-.31.08-.6-.06-.6-.4v-1.56a.58.58,0,0,1,.5-.62l7-1.65a18.33,18.33,0,0,1,2.66-.37,21.53,21.53,0,0,1-2.66-.39l-7-1.6a.59.59,0,0,1-.53-.64v-1.39c0-.34.29-.48.6-.39Z" style="fill: #3b3b3d"/>
    <path d="M482.43,202.76v5.43a.49.49,0,0,1-.48.48H471.39a.49.49,0,0,1-.48-.48v-5.43a.5.5,0,0,1,.48-.49h1a.5.5,0,0,1,.48.49v3.59h2.5V203.1a.49.49,0,0,1,.48-.48h.93a.49.49,0,0,1,.48.48v3.25h3.1v-3.59a.5.5,0,0,1,.48-.49H482A.5.5,0,0,1,482.43,202.76Z" style="fill: #3b3b3d"/>
    <path d="M482.55,199.25a1.38,1.38,0,1,1-1.38-1.38A1.38,1.38,0,0,1,482.55,199.25Z" style="fill: #3b3b3d"/>
  </g>
  <g>
    <path d="M436.89,487.34h-2.24v8.51a.31.31,0,0,1-.31.29h-.57a.3.3,0,0,1-.31-.29v-8.51h-2.24a.3.3,0,0,1-.33-.29v-.49a.3.3,0,0,1,.33-.29h5.67a.29.29,0,0,1,.3.29v.49A.29.29,0,0,1,436.89,487.34Z" style="fill: #3b3b3d"/>
    <path d="M439.8,496.22c-1.71,0-2.83-1.36-2.83-3.63s1.12-3.63,2.83-3.63,2.83,1.37,2.83,3.63S441.51,496.22,439.8,496.22Zm0-6.27c-1,0-1.61.87-1.61,2.64s.59,2.65,1.61,2.65,1.6-.84,1.6-2.65S440.81,490,439.8,490Z" style="fill: #3b3b3d"/>
    <path d="M454.51,496.14h-.77a.46.46,0,0,1-.4-.29l-.7-2.46h-3.31l-.66,2.46a.38.38,0,0,1-.35.29h-.72a.22.22,0,0,1-.21-.32l2.71-9.26a.41.41,0,0,1,.4-.29h.93a.41.41,0,0,1,.4.29l2.88,9.26A.22.22,0,0,1,454.51,496.14Zm-3.33-8a9.25,9.25,0,0,1-.22-1.21,9.25,9.25,0,0,1-.22,1.21l-1.14,4.27h2.76Z" style="fill: #3b3b3d"/>
    <path d="M459.77,490.08a.31.31,0,0,1-.43.27,3.14,3.14,0,0,0-.82-.16c-.43,0-1,.53-1,1.81v3.85a.31.31,0,0,1-.31.29h-.56a.31.31,0,0,1-.31-.29v-6.52a.3.3,0,0,1,.31-.29H457a.31.31,0,0,1,.31.22l.2.8a2,2,0,0,1,1.65-1.1c.47,0,.84.23.77.52Z" style="fill: #3b3b3d"/>
    <path d="M465.67,496.14h-.31a.33.33,0,0,1-.38-.29l-.12-.64a1.82,1.82,0,0,1-1.73,1c-1.51,0-2.46-1.21-2.46-3.6,0-1.56.52-3.66,2.51-3.66a1.72,1.72,0,0,1,1.65,1V486a.3.3,0,0,1,.31-.29h.53a.3.3,0,0,1,.31.29v9.85A.31.31,0,0,1,465.67,496.14Zm-2.24-6.2c-1.3,0-1.5,1.74-1.5,2.67,0,1.88.56,2.63,1.49,2.63s1.44-.84,1.44-2.61S464.33,489.94,463.43,489.94Z" style="fill: #3b3b3d"/>
    <path d="M473,492.89h-3.76c.06,1.48.57,2.29,1.9,2.29a4.56,4.56,0,0,0,1.4-.23.28.28,0,0,1,.38.19l.14.37a.3.3,0,0,1-.2.38,3.79,3.79,0,0,1-1.71.33c-2,0-3.14-1.29-3.14-3.67s1.1-3.59,2.67-3.59c1.36,0,2.61.83,2.61,3.62A.31.31,0,0,1,473,492.89Zm-2.29-3c-.48,0-1.29.28-1.47,2h2.84C472.08,491,471.71,489.91,470.74,489.91Z" style="fill: #3b3b3d"/>
    <path d="M480,496.14h-.56a.3.3,0,0,1-.31-.29v-4.78c0-.78-.27-1.1-.92-1.1a1.75,1.75,0,0,0-1.71,1.82v4.06a.31.31,0,0,1-.31.29h-.56a.31.31,0,0,1-.31-.29v-6.52a.3.3,0,0,1,.31-.29H476c.2,0,.29.06.34.23l.16.73a2.54,2.54,0,0,1,2-1,1.72,1.72,0,0,1,1.81,1.85v5A.3.3,0,0,1,480,496.14Z" style="fill: #3b3b3d"/>
  </g>
  <g>
    <path d="M6,576.53H3.76V585a.31.31,0,0,1-.31.3H2.87a.31.31,0,0,1-.31-.3v-8.5H.32a.31.31,0,0,1-.32-.3v-.48a.31.31,0,0,1,.32-.3H6a.29.29,0,0,1,.29.3v.48A.29.29,0,0,1,6,576.53Z" style="fill: #3b3b3d"/>
    <path d="M8.9,585.4c-1.7,0-2.83-1.35-2.83-3.62s1.13-3.63,2.83-3.63,2.83,1.37,2.83,3.63S10.61,585.4,8.9,585.4Zm0-6.26c-1,0-1.6.87-1.6,2.64s.59,2.65,1.6,2.65,1.61-.84,1.61-2.65S9.92,579.14,8.9,579.14Z" style="fill: #3b3b3d"/>
    <path d="M19.79,585.33h-2.1a.31.31,0,0,1-.31-.3v-9.28a.3.3,0,0,1,.31-.3h2c2.71,0,3.85,1.64,3.85,4.82C23.59,583.66,22.6,585.33,19.79,585.33Zm1.71-8.14a2.34,2.34,0,0,0-1.76-.69H18.58v7.75h1.16c1.45,0,2.55-.44,2.55-3.77C22.29,578.61,22,577.78,21.5,577.19Z" style="fill: #3b3b3d"/>
    <path d="M28,585.4c-1.71,0-2.83-1.35-2.83-3.62s1.12-3.63,2.83-3.63,2.83,1.37,2.83,3.63S29.68,585.4,28,585.4Zm0-6.26c-1,0-1.61.87-1.61,2.64s.59,2.65,1.61,2.65,1.6-.84,1.6-2.65S29,579.14,28,579.14Z" style="fill: #3b3b3d"/>
    <path d="M39.69,585.06a.33.33,0,0,1-.34.27H38.27c-.17,0-.26-.06-.31-.27l-1.12-4.51a10.81,10.81,0,0,1-.25-1.51,10.57,10.57,0,0,1-.25,1.51l-1.12,4.51a.32.32,0,0,1-.34.27H33.79c-.18,0-.26-.06-.31-.27l-1.63-6.48a.26.26,0,0,1,.23-.36h.69c.2,0,.3.08.34.3l1.06,4.63a11.11,11.11,0,0,1,.21,1.57,15,15,0,0,1,.27-1.56l1.18-4.66a.33.33,0,0,1,.35-.28H37a.36.36,0,0,1,.37.3l1.2,4.64a12.05,12.05,0,0,1,.25,1.56c.06-.48.11-1.06.22-1.56l1-4.66a.34.34,0,0,1,.35-.28h.65a.24.24,0,0,1,.24.34Z" style="fill: #3b3b3d"/>
    <path d="M47.55,585.33H47a.3.3,0,0,1-.31-.3v-4.77c0-.78-.27-1.11-.92-1.11A1.76,1.76,0,0,0,44.05,581v4a.3.3,0,0,1-.31.3h-.56a.31.31,0,0,1-.31-.3v-6.51a.3.3,0,0,1,.31-.3h.33c.2,0,.29.06.34.24l.16.72a2.56,2.56,0,0,1,2-1A1.72,1.72,0,0,1,47.86,580v5A.31.31,0,0,1,47.55,585.33Z" style="fill: #3b3b3d"/>
    <path d="M52.5,585.3a3.08,3.08,0,0,1-.81.1c-1,0-1.48-.45-1.48-1.4v-4.83h-.73a.3.3,0,0,1-.3-.31v-.33a.3.3,0,0,1,.3-.31h.73v-1.48a.33.33,0,0,1,.23-.33l.54-.19c.18-.06.39-.07.39.16v1.84h.88a.31.31,0,0,1,.29.31v.33a.31.31,0,0,1-.29.31h-.88v4.68c0,.4.16.58.53.58a2.66,2.66,0,0,0,.45-.06.26.26,0,0,1,.31.24l.06.31A.29.29,0,0,1,52.5,585.3Z" style="fill: #3b3b3d"/>
    <path d="M56.51,585.4c-1.71,0-2.83-1.35-2.83-3.62s1.12-3.63,2.83-3.63,2.83,1.37,2.83,3.63S58.22,585.4,56.51,585.4Zm0-6.26c-1,0-1.61.87-1.61,2.64s.59,2.65,1.61,2.65,1.61-.84,1.61-2.65S57.53,579.14,56.51,579.14Z" style="fill: #3b3b3d"/>
    <path d="M68.23,585.06a.32.32,0,0,1-.34.27H66.81c-.17,0-.26-.06-.31-.27l-1.12-4.51a12.51,12.51,0,0,1-.25-1.51,9.32,9.32,0,0,1-.25,1.51l-1.12,4.51a.31.31,0,0,1-.34.27H62.33c-.17,0-.26-.06-.31-.27l-1.63-6.48a.26.26,0,0,1,.23-.36h.7c.19,0,.29.08.34.3l1.06,4.63a12.73,12.73,0,0,1,.2,1.57c.08-.48.14-1.06.27-1.56l1.18-4.66a.33.33,0,0,1,.35-.28h.86a.38.38,0,0,1,.37.3l1.19,4.64a12.05,12.05,0,0,1,.25,1.56c.06-.48.12-1.06.22-1.56l1-4.66a.34.34,0,0,1,.36-.28h.65a.24.24,0,0,1,.23.34Z" style="fill: #3b3b3d"/>
    <path d="M76.09,585.33h-.56a.31.31,0,0,1-.31-.3v-4.77c0-.78-.27-1.11-.92-1.11A1.76,1.76,0,0,0,72.59,581v4a.3.3,0,0,1-.3.3h-.57a.3.3,0,0,1-.3-.3v-6.51a.29.29,0,0,1,.3-.3h.33c.21,0,.29.06.34.24l.16.72a2.56,2.56,0,0,1,2-1A1.72,1.72,0,0,1,76.4,580v5A.31.31,0,0,1,76.09,585.33Z" style="fill: #3b3b3d"/>
    <path d="M8,602.6a7.21,7.21,0,0,1-2.29-.41.28.28,0,0,1-.2-.37l.14-.57a.28.28,0,0,1,.39-.21,5.9,5.9,0,0,0,2,.43,1.58,1.58,0,0,0,1.79-1.65,1.7,1.7,0,0,0-1.27-1.68l-.69-.3c-1.08-.45-2.2-1-2.2-2.64s1.06-2.62,3-2.62a6.3,6.3,0,0,1,1.79.31.31.31,0,0,1,.18.38l-.12.47a.31.31,0,0,1-.34.24,4.66,4.66,0,0,0-1.51-.28c-1.21,0-1.71.55-1.71,1.46s.69,1.22,1.51,1.58l.82.35a2.6,2.6,0,0,1,1.85,2.68A2.75,2.75,0,0,1,8,602.6Z" style="fill: #3b3b3d"/>
    <path d="M17.4,602.53h-.6a.3.3,0,0,1-.33-.27l-.11-.73a2.25,2.25,0,0,1-2,1.07,1.83,1.83,0,0,1-1.89-2.06,2.08,2.08,0,0,1,2.14-2.26l1.72-.1v-.38c0-.93-.23-1.39-1.34-1.39a5,5,0,0,0-1.4.25.28.28,0,0,1-.37-.22l-.09-.47a.27.27,0,0,1,.21-.35,6.88,6.88,0,0,1,1.71-.27c2.23,0,2.43,1.43,2.43,2.61v2.61a5.85,5.85,0,0,0,.09,1.22l.09.44A.23.23,0,0,1,17.4,602.53ZM16.31,599l-1,.05c-1,0-1.67.28-1.67,1.47,0,.77.38,1.12,1,1.12a1.68,1.68,0,0,0,1.65-1.47Z" style="fill: #3b3b3d"/>
    <path d="M23.74,602.43a4.35,4.35,0,0,1-1.34.17c-1.72,0-2.87-1.31-2.87-3.68,0-2.09,1.22-3.57,2.86-3.57a3.31,3.31,0,0,1,1.25.25c.19.09.28.21.22.37l-.15.43a.24.24,0,0,1-.37.17,3,3,0,0,0-1-.2c-.91,0-1.56,1-1.56,2.55,0,1.74.58,2.59,1.7,2.59a4.31,4.31,0,0,0,1-.13.28.28,0,0,1,.37.22l.1.46A.32.32,0,0,1,23.74,602.43Z" style="fill: #3b3b3d"/>
    <path d="M29,596.47a.31.31,0,0,1-.43.27,3.29,3.29,0,0,0-.83-.17c-.42,0-1,.54-1,1.82v3.84a.31.31,0,0,1-.31.3h-.56a.31.31,0,0,1-.31-.3v-6.51a.3.3,0,0,1,.31-.3h.34a.3.3,0,0,1,.31.23l.21.79a1.93,1.93,0,0,1,1.65-1.09c.47,0,.84.22.76.52Z" style="fill: #3b3b3d"/>
    <path d="M34.59,602.53H34a.29.29,0,0,1-.32-.27l-.12-.73a2.24,2.24,0,0,1-2,1.07,1.83,1.83,0,0,1-1.89-2.06,2.08,2.08,0,0,1,2.14-2.26l1.72-.1v-.38c0-.93-.23-1.39-1.34-1.39a5,5,0,0,0-1.4.25.28.28,0,0,1-.37-.22L30.3,596c0-.18,0-.31.21-.35a6.88,6.88,0,0,1,1.71-.27c2.23,0,2.43,1.43,2.43,2.61v2.61a5.85,5.85,0,0,0,.09,1.22l.09.44A.23.23,0,0,1,34.59,602.53ZM33.5,599l-1,.05c-1,0-1.67.28-1.67,1.47,0,.77.38,1.12,1,1.12a1.68,1.68,0,0,0,1.65-1.47Z" style="fill: #3b3b3d"/>
    <path d="M45.64,602.53h-.56a.3.3,0,0,1-.31-.3v-4.77c0-.78-.27-1.11-.92-1.11a1.76,1.76,0,0,0-1.71,1.83v4.05a.3.3,0,0,1-.31.3h-.56a.31.31,0,0,1-.31-.3v-4.77c0-.78-.26-1.11-.91-1.11a1.76,1.76,0,0,0-1.71,1.83v4.05a.31.31,0,0,1-.31.3h-.56a.31.31,0,0,1-.31-.3v-6.51a.3.3,0,0,1,.31-.3h.32c.21,0,.3.06.34.24l.16.72a2.57,2.57,0,0,1,2-1A1.67,1.67,0,0,1,42,596.47a2.59,2.59,0,0,1,2.11-1.12A1.72,1.72,0,0,1,46,597.19v5A.31.31,0,0,1,45.64,602.53Z" style="fill: #3b3b3d"/>
    <path d="M53,599.27H49.23c.06,1.49.58,2.3,1.91,2.3a4.61,4.61,0,0,0,1.4-.23.29.29,0,0,1,.38.19l.13.37a.28.28,0,0,1-.19.38,3.85,3.85,0,0,1-1.71.32c-2,0-3.14-1.28-3.14-3.67,0-2.22,1.09-3.58,2.67-3.58,1.36,0,2.61.83,2.61,3.61A.31.31,0,0,1,53,599.27Zm-2.28-3c-.49,0-1.3.28-1.48,2h2.85C52.05,597.34,51.68,596.29,50.71,596.29Z" style="fill: #3b3b3d"/>
    <path d="M60,602.53h-.56a.31.31,0,0,1-.31-.3v-4.77c0-.78-.26-1.11-.91-1.11a1.76,1.76,0,0,0-1.71,1.83v4.05a.31.31,0,0,1-.31.3h-.56a.31.31,0,0,1-.31-.3v-6.51a.3.3,0,0,1,.31-.3h.32c.21,0,.3.06.34.24l.16.72a2.57,2.57,0,0,1,2-1,1.72,1.72,0,0,1,1.81,1.84v5A.31.31,0,0,1,60,602.53Z" style="fill: #3b3b3d"/>
    <path d="M64.91,602.5a3.08,3.08,0,0,1-.81.1c-1,0-1.48-.45-1.48-1.4v-4.83h-.74a.3.3,0,0,1-.29-.31v-.33a.3.3,0,0,1,.29-.31h.74v-1.48a.33.33,0,0,1,.22-.33l.55-.19c.17-.06.38-.07.38.16v1.84h.89a.31.31,0,0,1,.29.31v.33a.31.31,0,0,1-.29.31h-.89v4.69c0,.39.16.57.53.57a2.77,2.77,0,0,0,.46-.06.27.27,0,0,1,.31.24l.06.31A.3.3,0,0,1,64.91,602.5Z" style="fill: #3b3b3d"/>
    <path d="M68.92,602.6c-1.71,0-2.83-1.35-2.83-3.62s1.12-3.63,2.83-3.63,2.83,1.37,2.83,3.63S70.63,602.6,68.92,602.6Zm0-6.26c-1,0-1.61.87-1.61,2.64s.59,2.65,1.61,2.65,1.6-.84,1.6-2.65S69.93,596.34,68.92,596.34Z" style="fill: #3b3b3d"/>
  </g>
  <g>
    <path d="M437.78,1.64h-2.25v8.5a.31.31,0,0,1-.3.3h-.58a.32.32,0,0,1-.31-.3V1.64H432.1a.3.3,0,0,1-.32-.3V.85a.3.3,0,0,1,.32-.29h5.68a.28.28,0,0,1,.29.29v.49A.29.29,0,0,1,437.78,1.64Z" style="fill: #3b3b3d"/>
    <path d="M440.68,10.51c-1.71,0-2.83-1.36-2.83-3.63s1.12-3.62,2.83-3.62,2.83,1.37,2.83,3.62S442.39,10.51,440.68,10.51Zm0-6.26c-1,0-1.61.86-1.61,2.63s.59,2.66,1.61,2.66,1.61-.84,1.61-2.66S441.7,4.25,440.68,4.25Z" style="fill: #3b3b3d"/>
    <path d="M455.28,10.44h-1a.4.4,0,0,1-.35-.24l-3.13-7a14.07,14.07,0,0,1-.64-1.93c.07.63.17,1.62.17,2.18v6.68a.31.31,0,0,1-.31.28h-.51a.31.31,0,0,1-.31-.28V.84c0-.19.13-.28.31-.28h1.12a.34.34,0,0,1,.34.21l3.06,7c.3.66.46,1.33.64,1.83a16.56,16.56,0,0,1-.18-2.17V.84a.3.3,0,0,1,.31-.28h.52a.29.29,0,0,1,.3.28v9.32A.3.3,0,0,1,455.28,10.44Z" style="fill: #3b3b3d"/>
    <path d="M460.41,10.51c-1.71,0-2.83-1.36-2.83-3.63s1.12-3.62,2.83-3.62,2.83,1.37,2.83,3.62S462.12,10.51,460.41,10.51Zm0-6.26c-1,0-1.61.86-1.61,2.63s.59,2.66,1.61,2.66S462,8.7,462,6.88,461.42,4.25,460.41,4.25Z" style="fill: #3b3b3d"/>
    <path d="M468.66,4.38a.3.3,0,0,1-.42.26,3.31,3.31,0,0,0-.83-.16c-.43,0-1,.53-1,1.81v3.85a.32.32,0,0,1-.31.3h-.56a.32.32,0,0,1-.31-.3V3.63a.3.3,0,0,1,.31-.3h.34a.32.32,0,0,1,.31.22l.2.8A2,2,0,0,1,468,3.26c.48,0,.84.22.77.51Z" style="fill: #3b3b3d"/>
    <path d="M472.81,10.41a3.14,3.14,0,0,1-.81.1c-1,0-1.48-.46-1.48-1.4V4.27h-.74a.29.29,0,0,1-.29-.3V3.64a.3.3,0,0,1,.29-.31h.74V1.84a.32.32,0,0,1,.22-.32l.55-.19c.17-.06.38-.08.38.16V3.33h.88a.31.31,0,0,1,.3.31V4a.3.3,0,0,1-.3.3h-.88V9c0,.4.16.58.53.58a2.77,2.77,0,0,0,.46-.06.26.26,0,0,1,.31.23L473,10A.31.31,0,0,1,472.81,10.41Z" style="fill: #3b3b3d"/>
    <path d="M479.1,10.44h-.53a.32.32,0,0,1-.31-.3V5.37c0-.79-.29-1.11-.94-1.11a1.78,1.78,0,0,0-1.74,1.83v4.05a.32.32,0,0,1-.31.3h-.53a.32.32,0,0,1-.31-.3V.29a.3.3,0,0,1,.31-.29h.53a.3.3,0,0,1,.31.29v4a2.57,2.57,0,0,1,2-1,1.71,1.71,0,0,1,1.81,1.84v5A.32.32,0,0,1,479.1,10.44Z" style="fill: #3b3b3d"/>
    <path d="M434.11,27.64h-.56a.32.32,0,0,1-.31-.3V22.93h-3.73v4.41a.31.31,0,0,1-.31.3h-.56a.32.32,0,0,1-.31-.3V18.06a.3.3,0,0,1,.31-.3h.56a.3.3,0,0,1,.31.3v3.81h3.73V18.06a.3.3,0,0,1,.31-.3h.56a.3.3,0,0,1,.31.3v9.28A.32.32,0,0,1,434.11,27.64Z" style="fill: #3b3b3d"/>
    <path d="M437.5,18.84a.86.86,0,0,1-.85-.86.86.86,0,0,1,1.71,0A.86.86,0,0,1,437.5,18.84Zm.27,8.8h-.53a.32.32,0,0,1-.31-.3V20.83a.31.31,0,0,1,.31-.3h.53a.31.31,0,0,1,.31.3v6.51A.32.32,0,0,1,437.77,27.64Z" style="fill: #3b3b3d"/>
    <path d="M445.6,21.49l-.81,0a2.62,2.62,0,0,1,.56,1.49,2.39,2.39,0,0,1-2.6,2.55,3.08,3.08,0,0,1-.75-.09.77.77,0,0,0-.29.52c0,.34.23.43.85.43h1.15a1.89,1.89,0,0,1,2.15,1.9c0,1.67-1.53,2.28-2.87,2.28s-2.85-.44-2.85-2a.3.3,0,0,1,.31-.3l.65,0a.32.32,0,0,1,.31.29c.1.84.91,1,1.62,1,.87,0,1.67-.4,1.67-1.09s-.34-1-1.17-1h-1.4c-.88,0-1.56-.32-1.56-1.11a1.66,1.66,0,0,1,.65-1.23A2.44,2.44,0,0,1,440.14,23a2.41,2.41,0,0,1,2.6-2.56c.32,0,.59.07.9.07h2a.3.3,0,0,1,.29.31v.37A.28.28,0,0,1,445.6,21.49Zm-2.85-.15c-.75,0-1.38.27-1.38,1.64s.63,1.68,1.38,1.68,1.39-.31,1.39-1.68S443.5,21.34,442.75,21.34Z" style="fill: #3b3b3d"/>
    <path d="M452.45,27.64h-.53a.32.32,0,0,1-.31-.3V22.57c0-.78-.29-1.11-.94-1.11a1.78,1.78,0,0,0-1.74,1.83v4.05a.32.32,0,0,1-.31.3h-.53a.32.32,0,0,1-.31-.3V17.5a.3.3,0,0,1,.31-.3h.53a.3.3,0,0,1,.31.3v4a2.57,2.57,0,0,1,2-1,1.72,1.72,0,0,1,1.81,1.84v5A.32.32,0,0,1,452.45,27.64Z" style="fill: #3b3b3d"/>
    <path d="M456.11,27.64h-.53a.32.32,0,0,1-.31-.3V17.5a.31.31,0,0,1,.31-.3h.53a.31.31,0,0,1,.31.3v9.84A.32.32,0,0,1,456.11,27.64Z" style="fill: #3b3b3d"/>
    <path d="M463.21,27.64h-.6a.3.3,0,0,1-.32-.27l-.12-.74a2.23,2.23,0,0,1-2,1.08,1.83,1.83,0,0,1-1.89-2.06,2.08,2.08,0,0,1,2.14-2.26l1.72-.1v-.38c0-.93-.23-1.39-1.34-1.39a5,5,0,0,0-1.4.25.29.29,0,0,1-.37-.22l-.09-.47c0-.18,0-.31.21-.36a7.44,7.44,0,0,1,1.71-.26c2.23,0,2.43,1.43,2.43,2.61v2.61a5.85,5.85,0,0,0,.09,1.22l.09.44A.23.23,0,0,1,463.21,27.64Zm-1.09-3.51-1,0c-1,0-1.67.28-1.67,1.48,0,.76.38,1.12,1,1.12a1.68,1.68,0,0,0,1.65-1.48Z" style="fill: #3b3b3d"/>
    <path d="M470.45,27.64h-.56a.32.32,0,0,1-.31-.3V22.57c0-.78-.26-1.11-.91-1.11A1.76,1.76,0,0,0,467,23.29v4.05a.32.32,0,0,1-.31.3h-.56a.32.32,0,0,1-.31-.3V20.83a.3.3,0,0,1,.31-.3h.32c.21,0,.3.06.34.24l.17.72a2.51,2.51,0,0,1,2-1,1.72,1.72,0,0,1,1.81,1.84v5A.31.31,0,0,1,470.45,27.64Z" style="fill: #3b3b3d"/>
    <path d="M477.82,27.64h-.31a.34.34,0,0,1-.38-.3l-.12-.63a1.8,1.8,0,0,1-1.72,1c-1.52,0-2.46-1.21-2.46-3.6,0-1.56.51-3.65,2.5-3.65a1.7,1.7,0,0,1,1.65,1V17.5a.3.3,0,0,1,.31-.3h.53a.3.3,0,0,1,.31.3v9.84A.31.31,0,0,1,477.82,27.64Zm-2.24-6.21c-1.29,0-1.5,1.74-1.5,2.67,0,1.89.56,2.64,1.49,2.64S477,25.9,477,24.13,476.48,21.43,475.58,21.43Z" style="fill: #3b3b3d"/>
    <path d="M482,27.71a4.87,4.87,0,0,1-2-.41.3.3,0,0,1-.17-.4l.14-.44a.25.25,0,0,1,.38-.19,3.81,3.81,0,0,0,1.64.39c.73,0,1.07-.32,1.07-.92s-.54-.92-1.26-1.29-1.76-.88-1.76-2,.87-2,2.26-2a3.31,3.31,0,0,1,1.51.31.3.3,0,0,1,.14.4l-.14.36c-.05.18-.2.21-.36.15a3.43,3.43,0,0,0-1.2-.26c-.66,0-1,.35-1,.84s.56.85,1.2,1.19c.95.5,1.85.94,1.85,2.23A2.06,2.06,0,0,1,482,27.71Z" style="fill: #3b3b3d"/>
  </g>
  <g>
    <path d="M214.16,152.9h-.78a.26.26,0,0,1-.28-.25l-.38-6.85c0-.36-.05-1.51-.05-2a16.62,16.62,0,0,1-.31,2l-1.57,5.81c-.06.21-.14.3-.31.3h-.87c-.18,0-.25-.09-.31-.3l-1.58-5.81a18,18,0,0,1-.32-2c0,.48,0,1.63,0,2l-.43,6.86c0,.16-.1.26-.25.26H206a.24.24,0,0,1-.23-.29l.75-9.3a.32.32,0,0,1,.34-.28h1.13a.33.33,0,0,1,.3.23l1.6,6.15a11.55,11.55,0,0,1,.22,1.65,9.88,9.88,0,0,1,.23-1.67l1.6-6.13a.32.32,0,0,1,.31-.23h1.11a.29.29,0,0,1,.32.28l.74,9.34C214.38,152.8,214.32,152.9,214.16,152.9Z" style="fill: #3b3b3d"/>
    <path d="M220.43,152.8a4.35,4.35,0,0,1-1.34.18c-1.73,0-2.88-1.32-2.88-3.69,0-2.09,1.23-3.57,2.86-3.57a3.35,3.35,0,0,1,1.26.26c.19.08.28.2.22.36l-.15.43a.25.25,0,0,1-.37.18,2.82,2.82,0,0,0-1-.21c-.92,0-1.56,1-1.56,2.55,0,1.74.57,2.6,1.69,2.6a3.77,3.77,0,0,0,1-.14.28.28,0,0,1,.37.22l.11.46A.33.33,0,0,1,220.43,152.8Z" style="fill: #3b3b3d"/>
    <path d="M227.61,152.58a3.8,3.8,0,0,1-1.81.4c-2.36,0-3.73-1.85-3.73-5.09s1.56-4.94,3.81-4.94a3.27,3.27,0,0,1,1.7.39.3.3,0,0,1,.12.42l-.24.46a.27.27,0,0,1-.4.12,2.51,2.51,0,0,0-1.13-.28c-1.65,0-2.54,1.15-2.54,3.85s1.05,3.93,2.51,3.93a3.42,3.42,0,0,0,1.21-.28.26.26,0,0,1,.37.1l.26.56A.27.27,0,0,1,227.61,152.58Z" style="fill: #3b3b3d"/>
    <path d="M230.28,152.9h-.53a.31.31,0,0,1-.31-.29v-9.85a.31.31,0,0,1,.31-.29h.53a.31.31,0,0,1,.31.29v9.85A.31.31,0,0,1,230.28,152.9Z" style="fill: #3b3b3d"/>
    <path d="M237.63,149.65h-3.75c.05,1.48.57,2.29,1.9,2.29a4.56,4.56,0,0,0,1.4-.23.29.29,0,0,1,.38.19l.13.37a.28.28,0,0,1-.19.38,3.82,3.82,0,0,1-1.71.33c-2,0-3.14-1.29-3.14-3.67,0-2.23,1.09-3.59,2.67-3.59,1.36,0,2.61.83,2.61,3.62A.31.31,0,0,1,237.63,149.65Zm-2.28-3c-.49,0-1.3.28-1.47,2h2.84C236.69,147.71,236.32,146.67,235.35,146.67Z" style="fill: #3b3b3d"/>
    <path d="M240.76,152.9h-.53a.31.31,0,0,1-.31-.29v-9.85a.31.31,0,0,1,.31-.29h.53a.31.31,0,0,1,.31.29v9.85A.31.31,0,0,1,240.76,152.9Z" style="fill: #3b3b3d"/>
    <path d="M244.42,152.9h-.53a.3.3,0,0,1-.31-.29v-9.85a.3.3,0,0,1,.31-.29h.53a.31.31,0,0,1,.31.29v9.85A.31.31,0,0,1,244.42,152.9Z" style="fill: #3b3b3d"/>
    <path d="M251.52,152.9h-.6a.3.3,0,0,1-.33-.26l-.11-.74a2.26,2.26,0,0,1-2,1.08,1.84,1.84,0,0,1-1.89-2.07,2.08,2.08,0,0,1,2.14-2.25l1.72-.11v-.38c0-.93-.23-1.38-1.34-1.38a4.69,4.69,0,0,0-1.4.25.29.29,0,0,1-.37-.22l-.09-.48a.27.27,0,0,1,.21-.35,7.38,7.38,0,0,1,1.71-.27c2.23,0,2.43,1.43,2.43,2.61v2.61a5.94,5.94,0,0,0,.09,1.23l.09.44A.23.23,0,0,1,251.52,152.9Zm-1.09-3.51-1,.05c-.95,0-1.66.28-1.66,1.47,0,.77.38,1.12,1,1.12a1.68,1.68,0,0,0,1.65-1.47Z" style="fill: #3b3b3d"/>
    <path d="M258.76,152.9h-.56a.31.31,0,0,1-.31-.29v-4.78c0-.78-.26-1.1-.91-1.1a1.75,1.75,0,0,0-1.71,1.82v4.06a.31.31,0,0,1-.31.29h-.56a.31.31,0,0,1-.31-.29v-6.52a.3.3,0,0,1,.31-.29h.32c.21,0,.3.06.34.23l.16.73a2.56,2.56,0,0,1,2-1,1.72,1.72,0,0,1,1.81,1.85v5A.31.31,0,0,1,258.76,152.9Z" style="fill: #3b3b3d"/>
    <path d="M193.13,170.1h-.62a.31.31,0,0,1-.31-.29v-9.29a.3.3,0,0,1,.31-.29h.62a.3.3,0,0,1,.31.29v9.29A.31.31,0,0,1,193.13,170.1Z" style="fill: #3b3b3d"/>
    <path d="M200.62,170.1h-.56a.31.31,0,0,1-.31-.29V165c0-.78-.26-1.1-.91-1.1a1.76,1.76,0,0,0-1.71,1.83v4.05a.31.31,0,0,1-.31.29h-.56a.31.31,0,0,1-.31-.29v-6.52a.3.3,0,0,1,.31-.29h.32c.21,0,.3.06.34.23l.16.73a2.54,2.54,0,0,1,2-1,1.71,1.71,0,0,1,1.81,1.84v5A.31.31,0,0,1,200.62,170.1Z" style="fill: #3b3b3d"/>
    <path d="M208,170.1h-.31c-.22,0-.34-.08-.38-.29l-.12-.64a1.81,1.81,0,0,1-1.72,1c-1.52,0-2.46-1.21-2.46-3.6,0-1.56.51-3.65,2.5-3.65a1.72,1.72,0,0,1,1.65,1V160a.3.3,0,0,1,.31-.29H208a.3.3,0,0,1,.31.29v9.85A.31.31,0,0,1,208,170.1Zm-2.24-6.2c-1.29,0-1.5,1.74-1.5,2.67,0,1.88.56,2.63,1.49,2.63s1.44-.84,1.44-2.6S206.65,163.9,205.75,163.9Z" style="fill: #3b3b3d"/>
    <path d="M215.54,170.1h-.34a.28.28,0,0,1-.29-.25l-.19-.76a2.59,2.59,0,0,1-2.16,1.09,1.65,1.65,0,0,1-1.75-1.87v-5a.3.3,0,0,1,.31-.29h.56a.3.3,0,0,1,.31.29v4.87c0,.72.34,1,.9,1,1,0,1.78-.75,1.78-2.31v-3.59A.3.3,0,0,1,215,163h.56a.3.3,0,0,1,.31.29v6.52A.31.31,0,0,1,215.54,170.1Z" style="fill: #3b3b3d"/>
    <path d="M219.74,170.18a4.75,4.75,0,0,1-2-.42.29.29,0,0,1-.16-.39l.13-.45a.27.27,0,0,1,.39-.19,3.63,3.63,0,0,0,1.63.4c.74,0,1.08-.32,1.08-.93s-.55-.91-1.27-1.28-1.75-.88-1.75-2,.87-2,2.25-2a3.48,3.48,0,0,1,1.52.3.3.3,0,0,1,.13.4l-.13.37a.25.25,0,0,1-.37.15,3.31,3.31,0,0,0-1.19-.27c-.66,0-1,.36-1,.84s.56.86,1.21,1.2c.94.5,1.84.94,1.84,2.22A2.05,2.05,0,0,1,219.74,170.18Z" style="fill: #3b3b3d"/>
    <path d="M226.1,170.07a3,3,0,0,1-.81.11c-1,0-1.48-.46-1.48-1.4v-4.84h-.73a.3.3,0,0,1-.3-.31v-.32a.3.3,0,0,1,.3-.31h.73v-1.49a.32.32,0,0,1,.22-.32l.55-.2c.18-.05.38-.07.38.17V163h.89a.31.31,0,0,1,.29.31v.32a.31.31,0,0,1-.29.31H225v4.69c0,.4.16.57.53.57a4.28,4.28,0,0,0,.46,0,.26.26,0,0,1,.31.23l.06.31A.29.29,0,0,1,226.1,170.07Z" style="fill: #3b3b3d"/>
    <path d="M231.15,164.05a.3.3,0,0,1-.42.26,3.31,3.31,0,0,0-.83-.16c-.43,0-1,.53-1,1.81v3.85a.31.31,0,0,1-.31.29H228a.31.31,0,0,1-.31-.29v-6.52A.3.3,0,0,1,228,163h.34a.3.3,0,0,1,.31.22l.2.8a1.94,1.94,0,0,1,1.66-1.09c.47,0,.84.22.76.51Z" style="fill: #3b3b3d"/>
    <path d="M233.15,161.3a.86.86,0,1,1,.85-.85A.85.85,0,0,1,233.15,161.3Zm.26,8.8h-.53a.31.31,0,0,1-.31-.29v-6.52a.31.31,0,0,1,.31-.29h.53a.31.31,0,0,1,.31.29v6.52A.31.31,0,0,1,233.41,170.1Z" style="fill: #3b3b3d"/>
    <path d="M240.52,170.1h-.61a.29.29,0,0,1-.32-.26l-.12-.74a2.25,2.25,0,0,1-2,1.08,1.84,1.84,0,0,1-1.89-2.07,2.08,2.08,0,0,1,2.14-2.25l1.73-.1v-.39c0-.93-.24-1.38-1.35-1.38a4.69,4.69,0,0,0-1.4.25.28.28,0,0,1-.36-.22l-.09-.48a.27.27,0,0,1,.2-.35,7.44,7.44,0,0,1,1.71-.26c2.23,0,2.44,1.42,2.44,2.6v2.61a6.67,6.67,0,0,0,.08,1.23l.09.44A.22.22,0,0,1,240.52,170.1Zm-1.09-3.5-1,0c-1,0-1.67.28-1.67,1.47,0,.77.39,1.12,1,1.12a1.68,1.68,0,0,0,1.66-1.47Z" style="fill: #3b3b3d"/>
    <path d="M243.92,170.1h-.53a.31.31,0,0,1-.31-.29V160a.31.31,0,0,1,.31-.29h.53a.31.31,0,0,1,.31.29v9.85A.31.31,0,0,1,243.92,170.1Z" style="fill: #3b3b3d"/>
    <path d="M252.75,166h-1.16v3.82a.31.31,0,0,1-.31.29h-.57a.3.3,0,0,1-.31-.29v-9.29a.3.3,0,0,1,.31-.29h2c2,0,3.11,1.13,3.11,2.81A2.81,2.81,0,0,1,252.75,166Zm.05-4.7h-1.21V165h1.21a1.72,1.72,0,0,0,1.78-1.88A1.61,1.61,0,0,0,252.8,161.29Z" style="fill: #3b3b3d"/>
    <path d="M261.44,170.1h-.61a.29.29,0,0,1-.32-.26l-.12-.74a2.25,2.25,0,0,1-2,1.08,1.84,1.84,0,0,1-1.89-2.07,2.08,2.08,0,0,1,2.14-2.25l1.73-.1v-.39c0-.93-.24-1.38-1.35-1.38a4.69,4.69,0,0,0-1.4.25.28.28,0,0,1-.36-.22l-.09-.48a.27.27,0,0,1,.2-.35,7.44,7.44,0,0,1,1.71-.26c2.23,0,2.44,1.42,2.44,2.6v2.61a6.67,6.67,0,0,0,.08,1.23l.09.44A.22.22,0,0,1,261.44,170.1Zm-1.09-3.5-1,0c-1,0-1.67.28-1.67,1.47,0,.77.39,1.12,1,1.12a1.68,1.68,0,0,0,1.66-1.47Z" style="fill: #3b3b3d"/>
    <path d="M267.44,164.05a.31.31,0,0,1-.43.26,3.31,3.31,0,0,0-.83-.16c-.42,0-1,.53-1,1.81v3.85a.31.31,0,0,1-.31.29h-.56a.31.31,0,0,1-.31-.29v-6.52a.3.3,0,0,1,.31-.29h.34a.29.29,0,0,1,.31.22l.21.8a1.91,1.91,0,0,1,1.65-1.09c.47,0,.84.22.76.51Z" style="fill: #3b3b3d"/>
    <path d="M273.53,170.1h-.9a.43.43,0,0,1-.36-.25L270,166.18v3.63a.3.3,0,0,1-.31.29h-.53a.31.31,0,0,1-.31-.29V160a.3.3,0,0,1,.31-.29h.53a.3.3,0,0,1,.31.29v6.09l1.86-2.83a.42.42,0,0,1,.38-.22h.8a.2.2,0,0,1,.16.35l-2,2.71,2.49,3.69C273.79,169.9,273.73,170.1,273.53,170.1Z" style="fill: #3b3b3d"/>
  </g>
  <g>
    <path d="M233.39,303.94l-.92,1.18a.72.72,0,0,1-.9.26,23,23,0,0,0-3.17-1.08,1.93,1.93,0,0,0-2,.46l-.27.35,3.56,2.79a.48.48,0,0,1,.07.66l-.83,1.07a.5.5,0,0,1-.67.1l-8.34-6.53a.48.48,0,0,1-.07-.66l1.93-2.48c1.85-2.36,3.62-1.76,4.6-1a2.64,2.64,0,0,1,.76,3.49,2.61,2.61,0,0,1,2.05-.38c.93.2,3.1.85,3.87,1.08C233.48,303.38,233.68,303.58,233.39,303.94Zm-10.07-2.59-.75,1,2.22,1.73.65-.82a1.42,1.42,0,0,0-.26-2.13A1.27,1.27,0,0,0,223.32,301.35Z" style="fill: #3b3b3d"/>
    <path d="M236.78,299.8c-1.72,2.21-4.22,2.05-7.25-.32s-3.8-4.72-2.06-7,4.26-2,7.24.31S238.51,297.59,236.78,299.8Zm-7.89-6.16c-1,1.24.28,2.52,2.11,3.95,2,1.56,3.35,2.3,4.32,1.07s-.09-2.38-2.08-3.94C231.41,293.29,229.87,292.39,228.89,293.64Z" style="fill: #3b3b3d"/>
    <path d="M242.11,293a8.51,8.51,0,0,1-2.23,2,.5.5,0,0,1-.63-.14l-.71-.86a.45.45,0,0,1,.14-.65,6.79,6.79,0,0,0,1.8-1.5,1.19,1.19,0,0,0-.17-1.9c-.7-.55-1.49-.19-2.38.25-1.25.62-2.74,1.38-4.52,0-1.49-1.16-1.69-3.06-.36-4.77a6.59,6.59,0,0,1,1.84-1.62.43.43,0,0,1,.59.16l.65.82a.36.36,0,0,1-.13.59,4.27,4.27,0,0,0-1.41,1.16,1.08,1.08,0,0,0,.19,1.71c.56.43,1.34,0,2.29-.44,1.26-.59,2.82-1.21,4.54.14S243.47,291.23,242.11,293Z" style="fill: #3b3b3d"/>
    <path d="M249,284l-3.34,4.28a.5.5,0,0,1-.68.08l-8.32-6.5a.49.49,0,0,1-.08-.67l3.34-4.28a.49.49,0,0,1,.68-.09l.8.63a.49.49,0,0,1,.08.67L239.25,281l2,1.53,2-2.56a.5.5,0,0,1,.68-.08l.73.57a.49.49,0,0,1,.08.67l-2,2.57,2.44,1.9,2.22-2.83a.49.49,0,0,1,.67-.08l.87.67A.5.5,0,0,1,249,284Z" style="fill: #3b3b3d"/>
    <path d="M253.34,277.71a.63.63,0,0,1,0,.74L252.07,280a.61.61,0,0,1-.7.21l-10.08-4.14a.42.42,0,0,1-.23-.68l1-1.24a.6.6,0,0,1,.77-.18l6.56,3a18.74,18.74,0,0,1,2.33,1.36,21.33,21.33,0,0,1-1.86-1.95l-4.53-5.57a.6.6,0,0,1,0-.83l.86-1.1c.21-.27.52-.2.72.06Z" style="fill: #3b3b3d"/>
    <path d="M257.33,273.31l-.88,1.12a.5.5,0,0,1-.68.09l-8.32-6.5a.5.5,0,0,1-.08-.68l.88-1.13a.49.49,0,0,1,.67-.08l8.32,6.5A.49.49,0,0,1,257.33,273.31Z" style="fill: #3b3b3d"/>
    <path d="M262.21,267.06,259.15,271a.5.5,0,0,1-.68.08l-8.32-6.5a.5.5,0,0,1-.08-.68l.84-1.07a.49.49,0,0,1,.67-.08l7.07,5.53,1.93-2.47a.5.5,0,0,1,.68-.08l.86.67A.49.49,0,0,1,262.21,267.06Z" style="fill: #3b3b3d"/>
    <path d="M266.77,261.22l-3.06,3.91a.48.48,0,0,1-.67.09l-8.32-6.5a.49.49,0,0,1-.09-.68l.84-1.07a.49.49,0,0,1,.67-.08l7.08,5.53,1.93-2.47a.49.49,0,0,1,.67-.08l.87.67A.5.5,0,0,1,266.77,261.22Z" style="fill: #3b3b3d"/>
    <path d="M271.62,255l-3.34,4.28a.5.5,0,0,1-.68.09l-8.32-6.5a.5.5,0,0,1-.08-.68l3.34-4.28a.5.5,0,0,1,.68-.09l.8.63a.5.5,0,0,1,.08.68L261.89,252l2,1.53,2-2.56a.5.5,0,0,1,.68-.08l.73.57a.5.5,0,0,1,.08.68l-2,2.56,2.44,1.9,2.22-2.83a.49.49,0,0,1,.67-.08l.87.67A.5.5,0,0,1,271.62,255Z" style="fill: #3b3b3d"/>
    <path d="M280.39,243.79l-.92,1.18a.73.73,0,0,1-.9.26,23,23,0,0,0-3.17-1.09,1.94,1.94,0,0,0-2,.47l-.27.35,3.56,2.78a.49.49,0,0,1,.07.67l-.84,1.07a.49.49,0,0,1-.66.09l-8.35-6.52a.49.49,0,0,1-.07-.66l1.94-2.48c1.84-2.36,3.62-1.76,4.6-1a2.65,2.65,0,0,1,.76,3.5,2.62,2.62,0,0,1,2-.39c.93.21,3.11.86,3.87,1.08C280.48,243.23,280.67,243.42,280.39,243.79Zm-10.07-2.59-.75,1,2.22,1.73.65-.83a1.42,1.42,0,0,0-.26-2.12A1.26,1.26,0,0,0,270.32,241.2Z" style="fill: #3b3b3d"/>
    <path d="M283.68,239.57l-2,2.54a.49.49,0,0,1-.67.08l-8.32-6.5a.5.5,0,0,1-.09-.68l1.91-2.44c1-1.28,3-2.95,7.11.26C284.31,234.91,285.67,237,283.68,239.57ZM275.77,234l-.54.69,6.06,4.73.49-.62c1-1.33.68-2.33-1.65-4.15C278.11,233.1,276.78,232.74,275.77,234Z" style="fill: #3b3b3d"/>
    <path d="M287.93,234.33a1.38,1.38,0,1,1-.24-1.93A1.37,1.37,0,0,1,287.93,234.33Z" style="fill: #3b3b3d"/>
  </g>
  <g>
    <path d="M338.86,441.4l-5,0a.5.5,0,0,1-.49-.48l-.06-10.56a.49.49,0,0,1,.48-.48h1.36a.49.49,0,0,1,.48.48l0,9,3.13,0a.5.5,0,0,1,.49.48v1.1A.49.49,0,0,1,338.86,441.4Z" style="fill: #3b3b3d"/>
    <path d="M344.17,441.49c-2.8,0-4.22-2-4.25-5.89s1.34-5.91,4.18-5.93,4.23,2.09,4.25,5.88S347,441.47,344.17,441.49Zm-.06-10c-1.58,0-1.81,1.78-1.8,4.1,0,2.53.28,4.06,1.85,4.05s1.81-1.54,1.8-4.07C346,433.24,345.69,431.47,344.11,431.48Z" style="fill: #3b3b3d"/>
    <path d="M357.62,441.29h-2.08a.54.54,0,0,1-.54-.39l-2.35-6.15c-.28-.7-.51-1.83-.8-2.88.13,1.07.35,2.59.35,3.45l0,5.52a.48.48,0,0,1-.47.47h-1.24a.5.5,0,0,1-.49-.46l-.06-10.6a.48.48,0,0,1,.48-.46l2,0a.85.85,0,0,1,.75.4l2.13,5.76c.26.72.47,1.68.79,2.8-.11-1.12-.2-2.37-.21-3.23l0-5.28a.49.49,0,0,1,.48-.47h1.2a.51.51,0,0,1,.49.47l.06,10.59A.49.49,0,0,1,357.62,441.29Z" style="fill: #3b3b3d"/>
    <path d="M367.16,440.94a8.13,8.13,0,0,1-2.5.43c-3.7,0-4.92-2.47-4.94-5.91s1.75-5.89,4.71-5.91a6.58,6.58,0,0,1,3,.67.45.45,0,0,1,.23.62l-.41.88a.43.43,0,0,1-.62.23,4.61,4.61,0,0,0-2.14-.45c-1.49,0-2.36,1.14-2.34,4.08s1,3.78,2.53,3.77a2.57,2.57,0,0,0,.77-.1v-2.76h-1.17a.5.5,0,0,1-.49-.48v-1a.49.49,0,0,1,.47-.49l3,0a.5.5,0,0,1,.48.48l0,5.09C367.76,440.54,367.7,440.75,367.16,440.94Z" style="fill: #3b3b3d"/>
    <path d="M374.92,440.75a.63.63,0,0,1-.6.44h-2a.62.62,0,0,1-.6-.43l-3-10.47c-.08-.31.05-.6.39-.6h1.57a.58.58,0,0,1,.62.49l1.69,7a17.81,17.81,0,0,1,.38,2.66,21.9,21.9,0,0,1,.38-2.67l1.56-7a.58.58,0,0,1,.63-.53h1.39c.35,0,.49.29.4.6Z" style="fill: #3b3b3d"/>
    <path d="M380.84,441.15h-1.43a.49.49,0,0,1-.48-.48l-.06-10.56a.49.49,0,0,1,.48-.48h1.42a.5.5,0,0,1,.49.48l.06,10.56A.49.49,0,0,1,380.84,441.15Z" style="fill: #3b3b3d"/>
    <path d="M389.23,441.1l-5.43,0a.49.49,0,0,1-.48-.48l-.07-10.56a.49.49,0,0,1,.48-.48l5.44,0a.49.49,0,0,1,.48.48v1a.51.51,0,0,1-.48.49l-3.6,0,0,2.49,3.25,0a.49.49,0,0,1,.48.48v.93a.49.49,0,0,1-.48.48l-3.25,0,0,3.1,3.59,0a.49.49,0,0,1,.49.47v1.11A.49.49,0,0,1,389.23,441.1Z" style="fill: #3b3b3d"/>
    <path d="M402.47,440.59c0,.26-.34.43-.6.44H399.6a.62.62,0,0,1-.6-.43L397.65,433c-.07-.44-.17-1.68-.22-2.18,0,.48-.09,1.74-.18,2.2L396,440.63a.62.62,0,0,1-.6.43l-2.31,0a.59.59,0,0,1-.6-.43l-1.73-10.48c-.06-.31,0-.6.39-.6h1.56a.57.57,0,0,1,.63.51l.83,7.11c.07.57.13,1.71.19,2.43.08-.74.16-1.76.27-2.43l1.2-7.14a.55.55,0,0,1,.62-.5l2,0a.57.57,0,0,1,.63.5l1.33,7.09c.14.74.23,1.6.32,2.46,0-.67.14-1.88.19-2.41l.68-7.16a.55.55,0,0,1,.58-.5h1.33c.34,0,.45.29.4.6Z" style="fill: #3b3b3d"/>
    <path d="M413.21,441,410,441a.5.5,0,0,1-.49-.48l-.06-10.56a.49.49,0,0,1,.48-.48l3.09,0c1.64,0,4.18.52,4.21,5.73C417.25,438.56,416.44,440.94,413.21,441Zm-.56-9.65h-.87l0,7.69h.79c1.69,0,2.25-.91,2.23-3.86C414.83,432.57,414.29,431.3,412.65,431.31Z" style="fill: #3b3b3d"/>
    <path d="M426.63,440.88h-1.5a.73.73,0,0,1-.76-.55,24.68,24.68,0,0,0-1.12-3.16,1.93,1.93,0,0,0-1.59-1.26h-.45l0,4.53a.48.48,0,0,1-.48.46H419.4a.49.49,0,0,1-.48-.46l-.06-10.59a.49.49,0,0,1,.47-.47l3.15,0c3,0,3.62,1.75,3.63,3a2.62,2.62,0,0,1-2.27,2.76,2.67,2.67,0,0,1,1.57,1.37c.42.86,1.26,3,1.55,3.71C427.12,440.6,427.09,440.88,426.63,440.88Zm-4.22-9.5h-1.22v2.82h1.05a1.42,1.42,0,0,0,1.51-1.52A1.26,1.26,0,0,0,422.41,431.38Z" style="fill: #3b3b3d"/>
    <path d="M429.74,441a1.38,1.38,0,0,1,0-2.75,1.38,1.38,0,1,1,0,2.75Z" style="fill: #3b3b3d"/>
  </g>
  <g>
    <circle cx="379.3" cy="371.74" r="14.44" style="fill: #3b3b3d"/>
    <g>
      <path d="M376.11,377.58h-1.82a2.15,2.15,0,0,1-2.15-2.15v-2.24a1.73,1.73,0,0,1,1.24-1.44v-.05a1.57,1.57,0,0,1-1.08-1.45V368.1a2.15,2.15,0,0,1,2.15-2.15H376a2.15,2.15,0,0,1,2.15,2.15v2.15A1.56,1.56,0,0,1,377,371.7v.05a1.71,1.71,0,0,1,1.24,1.44v2.24A2.15,2.15,0,0,1,376.11,377.58Zm.38-4.25a.76.76,0,0,0-.77-.77h-1a.77.77,0,0,0-.78.77v1.89a.78.78,0,0,0,.78.78h1a.77.77,0,0,0,.77-.78Zm-.15-5a.77.77,0,0,0-.78-.77h-.72a.76.76,0,0,0-.77.77v1.89a.77.77,0,0,0,.77.78h.72a.78.78,0,0,0,.78-.78Z" style="fill: #f2f2eb"/>
      <path d="M384.3,377.58h-1.82a2.15,2.15,0,0,1-2.15-2.15V368.1a2.15,2.15,0,0,1,2.15-2.15h1.82a2.15,2.15,0,0,1,2.15,2.15v7.33A2.15,2.15,0,0,1,384.3,377.58Zm.38-9.27a.77.77,0,0,0-.77-.77h-1a.76.76,0,0,0-.77.77v6.91a.77.77,0,0,0,.77.78h1a.78.78,0,0,0,.77-.78Z" style="fill: #f2f2eb"/>
    </g>
  </g>
</svg>
