<svg id="1c566026-2fdd-4c9c-a2fe-685644e52f5f" data-name="Layer 1" xmlns="http://www.w3.org/2000/svg" viewBox="0 0 549.04 623.64"><defs><style>.\35 6d83dd0-c1c5-4414-9101-aefef69b43f8,.\36 161a7ae-eaaa-4e84-9bac-ead473ea3642,.cb5ac8a4-dc2c-472b-8dff-2c5e7fc6197c{fill:none;stroke:#3b3b3d;stroke-miterlimit:10;}.\36 161a7ae-eaaa-4e84-9bac-ead473ea3642{stroke-width:3.69px;}.\35 6d83dd0-c1c5-4414-9101-aefef69b43f8{stroke-width:7.37px;}.\38 936efa4-e56c-419f-8ec2-5aea7a80cfb1,.add50027-13f0-454d-af06-63a3005cc371{font-size:17.2px;font-weight:700;}.add50027-13f0-454d-af06-63a3005cc371,.cc2b284a-59ac-448e-ba14-64dc146c1608,.eac0a083-6d18-4da0-9a31-522cc9abd448{fill:#3b3b3d;}.add50027-13f0-454d-af06-63a3005cc371{font-family:ff-info-text-web-pro,BlinkMacSystemFont,Helvetica,Arial,sans-serif;font-weight:600;}.a0d32fa6-9bc1-4d7d-9161-dc7b5ee173c2{letter-spacing:0em;}.\35 52d626b-c512-4509-85da-8b83b9ce1d72{letter-spacing:-0.07em;}.b573da1e-40fe-4bb5-9bd3-39074710c1ed{letter-spacing:0.04em;}.\34 8e26247-62f9-4379-8ad2-b2e33973580c{letter-spacing:0.02em;}.\30 b47fcbb-524a-4552-8f63-2cab271e28f4{letter-spacing:-0.01em;}.b067f8cf-2ae1-45d6-a72e-b30173263684{letter-spacing:-0.02em;}.eac0a083-6d18-4da0-9a31-522cc9abd448{font-size:14.74px;font-family:ff-info-text-web-pro,BlinkMacSystemFont,Helvetica,Arial,sans-serif;font-weight:300;}.\39 699b01d-27b9-4db0-b2be-bcd4615681aa{letter-spacing:-0.05em;}.\30 d011da5-245d-4bac-902f-0362272c0161{letter-spacing:-0.01em;}.\30 8f94277-6090-421f-b341-fd92bd961376{letter-spacing:-0.02em;}.\36 578b582-af1a-4bc9-b773-96483f19fe9c{letter-spacing:-0.01em;}.\34 03c91c5-0ef4-48bb-b030-9ac7c1179b43{letter-spacing:-0.02em;}.db58ff9f-f91c-45e1-849a-c0e832d3df89{letter-spacing:-0.04em;}.\31 ab13d6a-a320-47b6-8ae9-68f1be0e88b5{letter-spacing:0.01em;}.\31 7bf61ff-45e4-4446-9bb2-18a2f1817c29{letter-spacing:0em;}.\35 9333784-28e0-463d-8818-729d072a7a93{letter-spacing:-0.01em;}.\31 58c9eef-6286-471d-8e69-00e083cb0a3b{letter-spacing:-0.02em;}.a83dbc7a-967b-4356-8ecd-a0eedb3768d9{letter-spacing:-0.02em;}.\38 7dc17c5-ac76-4eee-9a59-a7590b4c9c97{letter-spacing:-0.06em;}.\33 2bec885-cbab-43cd-97e2-6a392b975730{letter-spacing:-0.02em;}.\34 807a609-2adc-4c43-9833-5f04b0495f7c{letter-spacing:0em;}.db6999e7-41ad-40ad-9c8b-450f6c84cc46{letter-spacing:-0.03em;}.\32 7fd865c-01eb-4bb5-9638-eb7709259614{letter-spacing:0.01em;}.\38 936efa4-e56c-419f-8ec2-5aea7a80cfb1{fill:#f3f1ea;font-family:cholla-sans,sans-serif;}</style></defs><title>map</title><path class="cb5ac8a4-dc2c-472b-8dff-2c5e7fc6197c" d="M380.88,421,486.49,315.64v-12.8L367.94,421.09C372,421,376.34,421,380.88,421Z"/><path class="cb5ac8a4-dc2c-472b-8dff-2c5e7fc6197c" d="M393.67,421l92.81-92.56V315.64L380.88,421C384.94,421,389.19,421,393.67,421Z"/><path class="cb5ac8a4-dc2c-472b-8dff-2c5e7fc6197c" d="M394.25,421l12.21,0,80-79.79v-12.8L393.67,421Z"/><path class="cb5ac8a4-dc2c-472b-8dff-2c5e7fc6197c" d="M367.94,421.09,486.5,302.84l0-12.8L354.21,422C358.56,421.48,363.11,421.22,367.94,421.09Z"/><path class="cb5ac8a4-dc2c-472b-8dff-2c5e7fc6197c" d="M291.05,453.57c5.43-7.24,13.61-11.9,22-16.08L486.54,264.43V251.62L263,474.54C275.72,471.38,283.62,463.48,291.05,453.57Z"/><path class="cb5ac8a4-dc2c-472b-8dff-2c5e7fc6197c" d="M327.29,430.23a62.06,62.06,0,0,1,10.58-4.74L486.53,277.23v-12.8L313,437.49C317.89,435,322.82,432.76,327.29,430.23Z"/><path class="cb5ac8a4-dc2c-472b-8dff-2c5e7fc6197c" d="M354.21,422,486.52,290V277.23L337.87,425.49A78.89,78.89,0,0,1,354.21,422Z"/><path class="cb5ac8a4-dc2c-472b-8dff-2c5e7fc6197c" d="M470.15,421.49l16.26-16.22v-12.8l-29,28.91Z"/><path class="cb5ac8a4-dc2c-472b-8dff-2c5e7fc6197c" d="M482.87,421.6l3.53-3.52V405.27l-16.26,16.22Z"/><path class="cb5ac8a4-dc2c-472b-8dff-2c5e7fc6197c" d="M486.39,421.63v-3.55l-3.53,3.52Z"/><path class="cb5ac8a4-dc2c-472b-8dff-2c5e7fc6197c" d="M444.71,421.28l41.72-41.61V366.86L432,421.19Z"/><path class="cb5ac8a4-dc2c-472b-8dff-2c5e7fc6197c" d="M457.43,421.38l29-28.91v-12.8l-41.72,41.61Z"/><path class="cb5ac8a4-dc2c-472b-8dff-2c5e7fc6197c" d="M419.23,421.11l67.23-67.05V341.25l-80,79.79Z"/><path class="cb5ac8a4-dc2c-472b-8dff-2c5e7fc6197c" d="M432,421.19l54.47-54.33,0-12.8-67.23,67.05Z"/><path class="cb5ac8a4-dc2c-472b-8dff-2c5e7fc6197c" d="M90.17,531l.79,0,395.7-394.63V123.58L172.21,437.2C136.9,478.5,90.17,531,90.17,531Z"/><path class="cb5ac8a4-dc2c-472b-8dff-2c5e7fc6197c" d="M208.12,393.37c-5.7,8-19.58,24.73-35.91,43.83L486.67,123.58v-12.8L223.47,373.28C216.72,381.83,211.34,388.84,208.12,393.37Z"/><path class="cb5ac8a4-dc2c-472b-8dff-2c5e7fc6197c" d="M103.55,531.26,486.64,149.19l0-12.8L91,531C92.72,531.12,97.32,531.33,103.55,531.26Z"/><path class="cb5ac8a4-dc2c-472b-8dff-2c5e7fc6197c" d="M117,530.69,486.63,162V149.19L103.55,531.26C107.47,531.21,112,531.05,117,530.69Z"/><path class="cb5ac8a4-dc2c-472b-8dff-2c5e7fc6197c" d="M223.47,373.28l263.21-262.5V98L278.24,305.87C258.66,329.63,237.91,355,223.47,373.28Z"/><path class="cb5ac8a4-dc2c-472b-8dff-2c5e7fc6197c" d="M416.57,142.94c-12.51,13.9-53.8,61.63-76.63,88.6L480.13,91.73c-4,2.45-9.27,5.59-14.52,8.31C456.16,105,431.31,126.56,416.57,142.94Z"/><path class="cb5ac8a4-dc2c-472b-8dff-2c5e7fc6197c" d="M256.65,475.69a48.27,48.27,0,0,0,6.38-1.15L486.55,251.62v-12.8L249.07,475.68A38.4,38.4,0,0,0,256.65,475.69Z"/><path class="cb5ac8a4-dc2c-472b-8dff-2c5e7fc6197c" d="M329.75,243.69c-8,9.63-29,34.82-51.51,62.18L486.69,98V87.55s-2.64,1.75-6.57,4.18L339.94,231.54C335.87,236.35,332.38,240.51,329.75,243.69Z"/><path class="cb5ac8a4-dc2c-472b-8dff-2c5e7fc6197c" d="M232.69,472s2.21.81,5.55,1.69L486.57,226l0-12.81L206.68,492.37C221.89,481.33,232.69,472,232.69,472Z"/><path class="cb5ac8a4-dc2c-472b-8dff-2c5e7fc6197c" d="M206.68,492.37,486.59,213.21v-12.8L171,515.15A321.11,321.11,0,0,0,206.68,492.37Z"/><path class="cb5ac8a4-dc2c-472b-8dff-2c5e7fc6197c" d="M249.07,475.68,486.56,238.82V226L238.24,473.69A69.56,69.56,0,0,0,249.07,475.68Z"/><path class="cb5ac8a4-dc2c-472b-8dff-2c5e7fc6197c" d="M131.47,529,486.62,174.8V162L117,530.69C121.57,530.34,126.49,529.8,131.47,529Z"/><path class="cb5ac8a4-dc2c-472b-8dff-2c5e7fc6197c" d="M149.14,524.83A139.66,139.66,0,0,0,171,515.15L486.6,200.41V187.6L148.17,525.14Z"/><path class="cb5ac8a4-dc2c-472b-8dff-2c5e7fc6197c" d="M148.17,525.14,486.61,187.6V174.8L131.47,529A118.61,118.61,0,0,0,148.17,525.14Z"/><path class="6161a7ae-eaaa-4e84-9bac-ead473ea3642" d="M65.6,555.85c16-14.74,184.29-208.55,227.29-266.29S424.35,131.07,451.38,110.18,504.21,81.92,523.87,66s23.34-43,23.34-43"/><polyline class="6161a7ae-eaaa-4e84-9bac-ead473ea3642" points="487.01 62.47 485.05 424.72 484.55 454.8"/><path class="56d83dd0-c1c5-4414-9101-aefef69b43f8" d="M509.84,369.52c-17.92,0-84.12,4.11-112.52,7.27C342,382.93,312.24,388.46,284,415.49s-58.05,61.12-91.22,83.23-64.5,36.56-106.28,31.64c0,0-33.58-4.91-41.77-4.91"/><path class="6161a7ae-eaaa-4e84-9bac-ead473ea3642" d="M485.17,421.63H367.83c-24.75,0-41.77,6.14-68.18,24.57-10.44,7.28-35,43-63.28,25.8-23.3-14.18-64.23-39.21-62.65-36.86"/><text class="add50027-13f0-454d-af06-63a3005cc371" transform="translate(510.69 273.24) rotate(-90)"><tspan class="a0d32fa6-9bc1-4d7d-9161-dc7b5ee173c2">W</tspan><tspan class="552d626b-c512-4509-85da-8b83b9ce1d72" x="13.66" y="0">A</tspan><tspan class="b573da1e-40fe-4bb5-9bd3-39074710c1ed" x="22.17" y="0">T</tspan><tspan class="48e26247-62f9-4379-8ad2-b2e33973580c" x="30.72" y="0">T</tspan><tspan class="0b47fcbb-524a-4552-8f63-2cab271e28f4" x="38.92" y="0"> </tspan><tspan class="b067f8cf-2ae1-45d6-a72e-b30173263684" x="42.98" y="0">A</tspan><tspan x="52.36" y="0">VE.</tspan></text><text class="eac0a083-6d18-4da0-9a31-522cc9abd448" transform="translate(458.79 498.02)"><tspan class="9699b01d-27b9-4db0-b2be-bcd4615681aa">T</tspan><tspan x="5.71" y="0">o</tspan><tspan class="0d011da5-245d-4bac-902f-0362272c0161" x="12.84" y="0" xml:space="preserve"> A</tspan><tspan class="08f94277-6090-421f-b341-fd92bd961376" x="24.56" y="0">r</tspan><tspan x="29.34" y="0">den</tspan></text><text class="eac0a083-6d18-4da0-9a31-522cc9abd448" transform="translate(27.89 587.2)"><tspan class="9699b01d-27b9-4db0-b2be-bcd4615681aa">T</tspan><tspan x="5.71" y="0">o Dow</tspan><tspan class="6578b582-af1a-4bc9-b773-96483f19fe9c" x="41.99" y="0">n</tspan><tspan x="49.33" y="0">town </tspan><tspan class="6578b582-af1a-4bc9-b773-96483f19fe9c" x="5.17" y="17.2">S</tspan><tspan x="12.08" y="17.2">a</tspan><tspan class="403c91c5-0ef4-48bb-b030-9ac7c1179b43" x="19.08" y="17.2">c</tspan><tspan class="db58ff9f-f91c-45e1-849a-c0e832d3df89" x="24.72" y="17.2">r</tspan><tspan x="29.27" y="17.2">ame</tspan><tspan class="6578b582-af1a-4bc9-b773-96483f19fe9c" x="54.39" y="17.2">n</tspan><tspan x="61.74" y="17.2">to</tspan></text><text class="eac0a083-6d18-4da0-9a31-522cc9abd448" transform="translate(459.67 12.31)"><tspan class="9699b01d-27b9-4db0-b2be-bcd4615681aa">T</tspan><tspan x="5.71" y="0">o No</tspan><tspan class="1ab13d6a-a320-47b6-8ae9-68f1be0e88b5" x="32.57" y="0">r</tspan><tspan class="17bf61ff-45e4-4446-9bb2-18a2f1817c29" x="37.86" y="0">t</tspan><tspan x="41.77" y="0">h</tspan><tspan x="-4.33" y="17.2">Hi</tspan><tspan class="6578b582-af1a-4bc9-b773-96483f19fe9c" x="7.92" y="17.2">g</tspan><tspan x="15.12" y="17.2">h</tspan><tspan class="6578b582-af1a-4bc9-b773-96483f19fe9c" x="22.61" y="17.2">l</tspan><tspan x="26.12" y="17.2">an</tspan><tspan class="59333784-28e0-463d-8818-729d072a7a93" x="40.61" y="17.2">d</tspan><tspan x="47.83" y="17.2">s</tspan></text><text class="eac0a083-6d18-4da0-9a31-522cc9abd448" transform="translate(232.8 154.78)"><tspan class="6578b582-af1a-4bc9-b773-96483f19fe9c">M</tspan><tspan x="10.87" y="0">c</tspan><tspan class="158c9eef-6286-471d-8e69-00e083cb0a3b" x="16.72" y="0">C</tspan><tspan x="23.65" y="0">lel</tspan><tspan class="6578b582-af1a-4bc9-b773-96483f19fe9c" x="37.79" y="0">l</tspan><tspan x="41.3" y="0">an </tspan><tspan x="-13.59" y="17.2">Ind</tspan><tspan class="6578b582-af1a-4bc9-b773-96483f19fe9c" x="5.02" y="17.2">us</tspan><tspan class="17bf61ff-45e4-4446-9bb2-18a2f1817c29" x="18.02" y="17.2">t</tspan><tspan class="a83dbc7a-967b-4356-8ecd-a0eedb3768d9" x="21.93" y="17.2">r</tspan><tspan class="59333784-28e0-463d-8818-729d072a7a93" x="26.78" y="17.2">i</tspan><tspan x="30.29" y="17.2">al </tspan><tspan class="87dc17c5-ac76-4eee-9a59-a7590b4c9c97" x="44.61" y="17.2">P</tspan><tspan x="51.21" y="17.2">a</tspan><tspan class="a83dbc7a-967b-4356-8ecd-a0eedb3768d9" x="58.21" y="17.2">r</tspan><tspan class="59333784-28e0-463d-8818-729d072a7a93" x="63.06" y="17.2">k</tspan></text><text class="add50027-13f0-454d-af06-63a3005cc371" transform="translate(258.13 314.16) rotate(-54.41)"><tspan class="32bec885-cbab-43cd-97e2-6a392b975730">R</tspan><tspan class="4807a609-2adc-4c43-9833-5f04b0495f7c" x="9.18" y="0">OS</tspan><tspan x="27.11" y="0">EVILLE </tspan><tspan class="4807a609-2adc-4c43-9833-5f04b0495f7c" x="76.33" y="0">R</tspan><tspan class="0b47fcbb-524a-4552-8f63-2cab271e28f4" x="85.69" y="0">D</tspan><tspan x="94.93" y="0">.</tspan></text><text class="add50027-13f0-454d-af06-63a3005cc371" transform="matrix(1, -0.01, 0.01, 1, 360.67, 443.31)"><tspan class="db6999e7-41ad-40ad-9c8b-450f6c84cc46">L</tspan><tspan x="6.9" y="0">ON</tspan><tspan class="0b47fcbb-524a-4552-8f63-2cab271e28f4" x="26.69" y="0">G</tspan><tspan x="36.19" y="0">VIEW D</tspan><tspan class="27fd865c-01eb-4bb5-9638-eb7709259614" x="85.52" y="0">R</tspan><tspan x="95.13" y="0">.</tspan></text><circle class="cc2b284a-59ac-448e-ba14-64dc146c1608" cx="407.56" cy="373.61" r="14.44"/><text class="8936efa4-e56c-419f-8ec2-5aea7a80cfb1" transform="translate(399.37 379.45)">80</text></svg>