<svg id="ca29c304-2d5e-4281-8da8-56cb2c1fd888" data-name="Layer 1" xmlns="http://www.w3.org/2000/svg" viewBox="0 0 19.5 19.5"><defs><style>.e9239e84-1c12-4c1a-a1d2-98c4872a008d{fill:#3c3c3d;}</style></defs><title>social--search</title><path class="e9239e84-1c12-4c1a-a1d2-98c4872a008d" d="M19.5,18A1.54,1.54,0,0,1,18,19.5,1.38,1.38,0,0,1,17,19.05l-4-4A8,8,0,0,1,8.25,16.5,8.19,8.19,0,0,1,5,15.85,8.25,8.25,0,1,1,16.5,8.25a8,8,0,0,1-1.45,4.68l4,4A1.41,1.41,0,0,1,19.5,18ZM12,12A5,5,0,0,0,13.5,8.25,5,5,0,0,0,12,4.54,5,5,0,0,0,8.25,3,5,5,0,0,0,4.54,4.54,5,5,0,0,0,3,8.25,5,5,0,0,0,4.54,12,5,5,0,0,0,8.25,13.5,5,5,0,0,0,12,12Z"/></svg>