<svg id="5299a8f4-7a9a-4232-8121-50562c7b15bf" data-name="Layer 1" xmlns="http://www.w3.org/2000/svg" viewBox="0 0 18 18"><defs><style>.\38 e5311de-d5f5-41cb-92c0-42e1a327b157{fill:#3c3c3d;}</style></defs><title>social--instagram</title><path class="8e5311de-d5f5-41cb-92c0-42e1a327b157" d="M18.75,9.75c0,1.79,0,3-.06,3.71a5.51,5.51,0,0,1-1.45,3.78,5.51,5.51,0,0,1-3.78,1.45c-.68,0-1.92.06-3.71.06s-3,0-3.71-.06a5.51,5.51,0,0,1-3.78-1.45A5.51,5.51,0,0,1,.81,13.46c0-.68-.06-1.92-.06-3.71s0-3,.06-3.71A5.51,5.51,0,0,1,2.26,2.26,5.51,5.51,0,0,1,6,.81C6.72.77,8,.75,9.75.75s3,0,3.71.06a5.51,5.51,0,0,1,3.78,1.45A5.51,5.51,0,0,1,18.69,6C18.73,6.72,18.75,8,18.75,9.75Zm-8.1-7.39h-3l-1.13,0a11.24,11.24,0,0,0-1.21.11,4.61,4.61,0,0,0-.84.22A3.08,3.08,0,0,0,2.73,4.44a4.61,4.61,0,0,0-.22.84A11.24,11.24,0,0,0,2.4,6.49c0,.47,0,.85,0,1.13V8.85c0,.55,0,.85,0,.9s0,.35,0,.9v1.23c0,.28,0,.66,0,1.13a11.24,11.24,0,0,0,.11,1.21,4.61,4.61,0,0,0,.22.84,3.08,3.08,0,0,0,1.71,1.71,4.61,4.61,0,0,0,.84.22,11.24,11.24,0,0,0,1.21.11l1.13,0h4.26l1.13,0A11.24,11.24,0,0,0,14.22,17a4.61,4.61,0,0,0,.84-.22,3.08,3.08,0,0,0,1.71-1.71,4.61,4.61,0,0,0,.22-.84A11.24,11.24,0,0,0,17.1,13c0-.47,0-.85,0-1.13V10.65c0-.55,0-.85,0-.9s0-.35,0-.9V7.62c0-.28,0-.66,0-1.13A11.24,11.24,0,0,0,17,5.28a4.61,4.61,0,0,0-.22-.84,3.08,3.08,0,0,0-1.71-1.71,4.61,4.61,0,0,0-.84-.22A11.24,11.24,0,0,0,13,2.4l-1.13,0ZM13,6.48a4.45,4.45,0,0,1,1.35,3.27,4.61,4.61,0,0,1-4.62,4.62A4.61,4.61,0,0,1,5.13,9.75,4.61,4.61,0,0,1,9.75,5.13,4.45,4.45,0,0,1,13,6.48Zm-1.15,5.39a2.86,2.86,0,0,0,.88-2.12,3,3,0,0,0-3-3,3,3,0,0,0-3,3,3,3,0,0,0,3,3A2.86,2.86,0,0,0,11.87,11.87Zm3.45-7.69A1.08,1.08,0,0,1,14.55,6,1.06,1.06,0,0,1,13.48,5a1.08,1.08,0,0,1,1.84-.77Z" transform="translate(-0.75 -0.75)"/></svg>