<svg id="5d12c7e9-c057-402c-bc42-345b28889591" data-name="Layer 1" xmlns="http://www.w3.org/2000/svg" viewBox="0 0 119.79 105.39">
  <title>stat-graph</title>
  <path d="M120.63,117.47l-25.3,0H94.12V43.67a6.67,6.67,0,0,1,.74-.08q12.6,0,25.2,0a5.48,5.48,0,0,1,.57,0Zm-36.94-.09v-1.09q0-23.45,0-46.87c0-.93-.19-1.26-1.21-1.26-8.08,0-16.16,0-24.25,0H57.16v49.19ZM64.29,48.75,47.13,30.93.83,78l5.38,5.75L47.07,42.21l17,17.66,35.57-34,7.7,8V12.08H85.4l8.52,8.3ZM46.69,80.13H20.25v37.29H46.69Z" transform="translate(-0.83 -12.08)" style="fill: #f3c300"/>
</svg>
