<svg data-name="Layer 1" xmlns="http://www.w3.org/2000/svg" viewBox="0 0 57.99 37.8"><path d="M29 37.79H2.86C.5 37.79 0 37.3 0 35V2.74C0 .57.59 0 2.79 0h52.39C57.35 0 58 .61 58 2.75V35c0 2.26-.57 2.8-2.9 2.8zm-22.19-4h44.41L34.51 20c-1.38 1-2.63 1.86-3.77 2.82a2.42 2.42 0 0 1-3.58 0 17.62 17.62 0 0 0-2.72-2 1.8 1.8 0 0 0-1.6 0C17.56 25 12.33 29.29 6.79 33.8zM50.46 4H7.91c.06.18.06.3.12.35 6.75 5 13.51 10.07 20.29 15.05a1.48 1.48 0 0 0 1.37 0C36.52 14.32 43.32 9.26 50.46 4zM36.92 18.23L54 32.3V5.58zm-33 14.15l17.25-14.05C15.38 14 9.74 9.84 3.94 5.55z" fill="#f3f1ea"/></svg>