<svg data-name="Layer 1" xmlns="http://www.w3.org/2000/svg" viewBox="0 0 495.86 495.86"><defs><clipPath id="a" transform="translate(6.87 6.87)"><circle data-name="SVGID" cx="241.07" cy="241.07" r="241.07" fill="none"/></clipPath></defs><g fill="none" stroke="#3b3b3d" stroke-miterlimit="10" stroke-width="3" clip-path="url(#a)"><path d="M86.27 433.93L433.93 86.27q-4.24-4.86-8.73-9.5L76.77 425.2q4.64 4.49 9.5 8.73zM167.08 480.78l313.7-313.7q-2.32-6.69-5-13.21L153.87 475.76q6.51 2.69 13.21 5.02z"/><path d="M180.95 485.15l304.2-304.2c-1.32-4.68-2.79-9.3-4.37-13.87l-313.7 313.7c4.57 1.58 9.19 3.09 13.87 4.37zM141.25 470.14l328.89-328.89q-2.94-6.1-6.22-12l-334.7 334.7q5.93 3.24 12.03 6.19z"/><path d="M153.87 475.76l321.89-321.89c-1.77-4.27-3.63-8.48-5.62-12.62L141.25 470.14c4.14 1.99 8.35 3.85 12.62 5.62zM106.75 449.92l343.17-343.17q-3.74-5.34-7.75-10.48l-345.9 345.9q5.13 4.02 10.48 7.75zM76.77 425.2L425.2 76.77q-4.49-4.65-9.2-9L67.73 416q4.4 4.71 9.04 9.2zM129.22 463.92l334.7-334.7q-3.21-5.84-6.74-11.49L117.73 457.18q5.65 3.53 11.49 6.74z"/><path d="M117.73 457.18l339.45-339.45q-3.49-5.58-7.26-11L106.75 449.92q5.39 3.78 10.98 7.26zM195.56 488.77l293.21-293.21q-1.61-7.38-3.62-14.61l-304.2 304.2q7.21 2.03 14.61 3.62zM306.38 487.37l181-181q2.72-11.11 4.4-22.62l-208 208q11.47-1.66 22.6-4.38z"/><path d="M210.97 491.61l280.64-280.64q-1.19-7.78-2.84-15.41L195.56 488.77q7.62 1.65 15.41 2.84zM332.54 479.46l146.92-146.92a242.38 242.38 0 0 0 7.91-26.16l-181 181a242.38 242.38 0 0 0 26.17-7.92zM464.36 365.87l-98.49 98.49a247.66 247.66 0 0 0 98.49-98.49z"/><path d="M365.87 464.36l98.49-98.49a246.16 246.16 0 0 0 15.1-33.34L332.54 479.46a246.16 246.16 0 0 0 33.33-15.1zM227.31 493.5L493.5 227.31q-.69-8.25-1.89-16.34L210.97 491.61q8.09 1.26 16.34 1.89z"/><path d="M244.72 494.33l249.61-249.61q-.12-8.78-.83-17.41L227.31 493.5q8.63.72 17.41.83zM247.94 494.37c5.2 0 10.36-.18 15.48-.5l230.45-230.45c.32-5.12.5-10.28.5-15.48v-3.22L244.72 494.33c1.07.01 2.15.04 3.22.04z"/><path d="M283.76 491.77l208-208q1.46-10 2.1-20.34L263.42 493.87q10.29-.64 20.34-2.1zM96.27 442.17l345.9-345.9q-4-5.12-8.24-10L86.27 433.93q4.89 4.24 10 8.24zM153.37 20.32L20.32 153.37a243.61 243.61 0 0 0-9.69 27.93L181.3 10.63a243.61 243.61 0 0 0-27.93 9.69z"/><path d="M115.14 40.31l-74.83 74.83a246.13 246.13 0 0 0-20 38.23l133.05-133a246.13 246.13 0 0 0-38.22 19.94z"/><path d="M40.31 115.14l74.83-74.83a247.72 247.72 0 0 0-74.83 74.83zM3.52 279.59L279.59 3.52q-8.27-1.05-16.72-1.55L1.97 262.87q.51 8.45 1.55 16.72z"/><path d="M1.51 247.94c0 5 .17 10 .46 15L262.87 1.97c-5-.29-10-.46-15-.46h-2.84L1.54 245.1c-.01.94-.03 1.89-.03 2.84zM204.87 5.26L5.26 204.87c-1.22 6.9-2.13 13.91-2.76 21L225.87 2.5c-7 .63-14.06 1.54-21 2.76z"/><path d="M2.5 225.87q-.84 9.51-1 19.2L245.1 1.54q-9.69.12-19.2 1zM67.73 416L416 67.73q-4.72-4.41-9.68-8.57L59.16 406.32q4.16 4.95 8.57 9.68zM181.3 10.63L10.63 181.3q-3.24 11.57-5.37 23.57L204.87 5.26q-12 2.12-23.57 5.37zM6.07 295.28L295.28 6.07q-7.76-1.52-15.69-2.55L3.52 279.59q1.02 7.93 2.55 15.69zM36.39 374.38l338-338q-5.73-3.43-11.67-6.56L29.87 362.71q3.1 5.93 6.52 11.67z"/><path d="M9.44 310.15L310.15 9.44a235.7 235.7 0 0 0-14.87-3.37L6.07 295.28a235.7 235.7 0 0 0 3.37 14.87zM43.48 385.54L385.54 43.48q-5.48-3.69-11.16-7.09l-338 338q3.41 5.68 7.1 11.15zM59.16 406.32L406.32 59.16q-5-4.17-10.14-8.09L51.07 396.18q3.92 5.18 8.09 10.14z"/><path d="M51.07 396.18L396.18 51.07q-5.22-3.93-10.64-7.59L43.48 385.54q3.64 5.43 7.59 10.64zM13.57 324.25L324.25 13.57c-4.64-1.51-9.34-2.9-14.1-4.13L9.44 310.15c1.23 4.72 2.62 9.46 4.13 14.1z"/><path d="M18.37 337.69L337.69 18.37q-6.61-2.6-13.44-4.8L13.57 324.25q2.22 6.81 4.8 13.44z"/><path d="M23.81 350.49L350.49 23.81q-6.3-2.9-12.8-5.44L18.37 337.69q2.5 6.49 5.44 12.8zM29.87 362.71L362.71 29.87c-4-2.11-8.08-4.13-12.22-6L23.81 350.49c1.89 4.14 3.91 8.21 6.06 12.22z"/></g></svg>