<svg data-name="Layer 1" xmlns="http://www.w3.org/2000/svg" viewBox="0 0 1747.99 72.57"><path d="M71.16 1.41L1.41 71.16M87.75 1.41L18 71.16m86.34-69.75L34.59 71.16m86.34-69.75L51.18 71.16m86.33-69.75L67.77 71.16M154.1 1.41L84.36 71.16m86.33-69.75l-69.75 69.75m86.34-69.75l-69.75 69.75m86.34-69.75l-69.75 69.75m16.59 0l69.75-69.75M167.3 71.16L237 1.41m16.59 0l-69.7 69.75m86.33-69.75l-69.75 69.75m86.34-69.75l-69.75 69.75m16.59 0L303.4 1.41m16.58 0l-69.74 69.75m86.33-69.75l-69.74 69.75m86.33-69.75l-69.75 69.75m86.34-69.75L300 71.16m86.34-69.75l-69.75 69.75m86.34-69.75l-69.75 69.75m86.33-69.75l-69.74 69.75M436.1 1.41l-69.74 69.75m86.33-69.75l-69.75 69.75m86.34-69.75l-69.75 69.75m86.34-69.75l-69.75 69.75m86.34-69.75l-69.75 69.75M519 1.41l-69.7 69.75m86.33-69.75l-69.74 69.75m86.33-69.75l-69.75 69.75m86.34-69.75l-69.75 69.75M585.4 1.41l-69.75 69.75M602 1.41l-69.76 69.75m86.33-69.75l-69.74 69.75m86.33-69.75l-69.74 69.75m16.58 0l69.75-69.75m16.59 0l-69.75 69.75m86.34-69.75l-69.75 69.75m86.34-69.75l-69.75 69.75M718.1 1.41l-69.74 69.75m86.33-69.75L665 71.16m86.28-69.75l-69.75 69.75m86.34-69.75l-69.75 69.75m16.59 0l69.75-69.75m16.59 0L731.3 71.16m86.33-69.75l-69.74 69.75m16.59 0l69.74-69.75m16.59 0l-69.75 69.75M867.4 1.41l-69.75 69.75M884 1.41l-69.76 69.75m86.33-69.75l-69.74 69.75m86.33-69.75l-69.74 69.75m86.33-69.75L864 71.16m86.34-69.75l-69.75 69.75m86.34-69.75l-69.75 69.75m86.34-69.75l-69.75 69.75m86.33-69.75l-69.74 69.75m86.33-69.75L947 71.16m86.33-69.75l-69.8 69.75m16.59 0l69.75-69.75m16.59 0l-69.75 69.75m86.34-69.75l-69.75 69.75m86.33-69.75l-69.74 69.75m86.33-69.75l-69.74 69.75m86.33-69.75l-69.75 69.75m86.34-69.75l-69.75 69.75M1166 1.41l-69.75 69.75m86.34-69.75l-69.75 69.75m86.33-69.75l-69.74 69.75m86.33-69.75L1146 71.16m86.33-69.75l-69.75 69.75m16.59 0l69.75-69.75m16.59 0l-69.75 69.75m86.34-69.75l-69.75 69.75m86.33-69.75L1229 71.16m86.33-69.75l-69.74 69.75m86.33-69.75l-69.75 69.75m16.59 0l69.75-69.75m16.59 0l-69.8 69.75m86.33-69.75l-69.74 69.75m86.33-69.75l-69.74 69.75m86.33-69.75l-69.75 69.75m86.34-69.75l-69.75 69.75m16.59 0L1448 1.41m16.59 0l-69.75 69.75m86.33-69.75l-69.74 69.75m86.33-69.75L1428 71.16m86.33-69.75l-69.75 69.75m86.34-69.75l-69.75 69.75m86.34-69.75l-69.75 69.75m16.59 0l69.75-69.75m16.58 0L1511 71.16m86.33-69.75l-69.74 69.75m86.33-69.75l-69.75 69.75m86.34-69.75l-69.75 69.75m86.34-69.75l-69.8 69.75m16.59 0l69.75-69.75m16.58 0l-69.74 69.75m86.33-69.75l-69.74 69.75m86.33-69.75l-69.75 69.75M1730 1.41l-69.75 69.75m86.34-69.75l-69.75 69.75" fill="none" stroke="#3b3c3e" stroke-miterlimit="10" stroke-width="4"/></svg>