<svg id="22990a0a-ba3d-4e5e-8525-b10e4aaf5611" data-name="Layer 1" xmlns="http://www.w3.org/2000/svg" viewBox="0 0 517.62 517.62"><defs><style></style><clipPath id="243350f9-b2a8-4106-a314-eb1ea37df250" transform="translate(17.74 17.74)"><circle class="0457c03b-45fe-4df7-9cfe-71ebcfb90acb" cx="241.07" cy="241.07" r="241.07"/></clipPath></defs><g clip-path="url(#243350f9-b2a8-4106-a314-eb1ea37df250)"><path class="477a66e3-4cd0-4ddb-ac83-c8637931997d" d="M190.87 493.46l302.59-302.59c-1-4.89-2.06-9.74-3.3-14.53L176.34 490.16c4.79 1.24 9.66 2.33 14.53 3.3zM124.58 470.55l346-346c-2-3.91-4.08-7.78-6.26-11.58L113 464.29c3.8 2.18 7.67 4.27 11.58 6.26z" transform="translate(17.74 17.74)"/><path class="477a66e3-4cd0-4ddb-ac83-c8637931997d" d="M136.67 476.3L476.3 136.67c-1.82-4.08-3.73-8.12-5.75-12.09l-346 346c4 1.99 8.04 3.9 12.12 5.72zM162.51 486.14l323.63-323.63c-1.43-4.45-3-8.86-4.63-13.2l-332.2 332.2c4.34 1.66 8.75 3.2 13.2 4.63zM176.34 490.16l313.82-313.82c-1.21-4.67-2.56-9.27-4-13.83L162.51 486.14c4.56 1.46 9.16 2.86 13.83 4.02z" transform="translate(17.74 17.74)"/><path class="477a66e3-4cd0-4ddb-ac83-c8637931997d" d="M149.31 481.51l332.2-332.2q-2.44-6.41-5.21-12.64L136.67 476.3q6.24 2.76 12.64 5.21zM113 464.29L464.29 113q-3.24-5.62-6.76-11.08L101.92 457.53q5.45 3.47 11.08 6.76zM91.3 450.31l359-359q-3.72-5.17-7.68-10.16L81.14 442.63q4.98 3.96 10.16 7.68zM71.42 434.51L434.51 71.42q-4.17-4.74-8.56-9.28L62.14 426q4.53 4.35 9.28 8.51z" transform="translate(17.74 17.74)"/><path class="477a66e3-4cd0-4ddb-ac83-c8637931997d" d="M101.92 457.53l355.61-355.61q-3.48-5.4-7.22-10.62l-359 359q5.21 3.7 10.61 7.23zM81.14 442.63L442.63 81.14q-3.94-5-8.12-9.72L71.42 434.51q4.76 4.17 9.72 8.12zM324.78 484.43l159.65-159.65a256.19 256.19 0 0 0 7.22-25L299.73 491.65a256.19 256.19 0 0 0 25.05-7.22zM355.48 471.58l116.1-116.1a256.07 256.07 0 0 0 12.85-30.7L324.78 484.43a256.07 256.07 0 0 0 30.7-12.85z" transform="translate(17.74 17.74)"/><path class="477a66e3-4cd0-4ddb-ac83-c8637931997d" d="M408.27 436.63l28.36-28.36a258.07 258.07 0 0 0 34.95-52.79l-116.1 116.1a258.07 258.07 0 0 0 52.79-34.95zM206.17 496L496 206.17q-1-7.72-2.55-15.3L190.87 493.46q7.58 1.54 15.3 2.54zM436.63 408.27l-28.36 28.36a260.08 260.08 0 0 0 28.36-28.36zM299.73 491.65l191.92-191.92q2.52-10.8 4.1-22l-218 218q11.16-1.57 21.98-4.08z" transform="translate(17.74 17.74)"/><path class="477a66e3-4cd0-4ddb-ac83-c8637931997d" d="M222.33 497.69l275.36-275.36c-.39-5.44-1-10.83-1.68-16.16L206.17 496c5.33.73 10.72 1.3 16.16 1.69zM239.5 498.35L498.35 239.5q0-8.66-.66-17.17L222.33 497.69q8.5.62 17.17.66zM241.07 498.37c5.65 0 11.25-.2 16.82-.56l239.92-239.92c.36-5.57.56-11.17.56-16.82v-1.57L239.5 498.35zM277.78 495.75l218-218q1.41-9.82 2.06-19.89L257.89 497.81q10.05-.64 19.89-2.06zM-16.18 236.67L236.67-16.18q-9.51.15-18.84 1l-233 233q-.83 9.34-1.01 18.85z" transform="translate(17.74 17.74)"/><path class="477a66e3-4cd0-4ddb-ac83-c8637931997d" d="M-16.24 241.07q0 6.62.33 13.16L254.23-15.91q-6.54-.33-13.16-.33c-1.47 0-2.94 0-4.4.06L-16.18 236.67c-.03 1.46-.06 2.93-.06 4.4zM-15.18 217.83l233-233q-10.38.93-20.51 2.66L-12.52 197.32q-1.72 10.13-2.66 20.51zM-12.27 286.28L286.28-12.27a249.62 249.62 0 0 0-15.58-2.26L-14.53 270.7c.6 5.24 1.34 10.44 2.26 15.58z" transform="translate(17.74 17.74)"/><path class="477a66e3-4cd0-4ddb-ac83-c8637931997d" d="M-14.53 270.7L270.7-14.53c-5.45-.62-10.93-1.1-16.47-1.38L-15.91 254.23c.28 5.54.76 11.02 1.38 16.47zM-7.52 174.48l182-182A255.13 255.13 0 0 0 148 1.12L1.12 148a255.13 255.13 0 0 0-8.64 26.48zM1.12 148L148 1.12a256.65 256.65 0 0 0-34 16.18L17.3 114a256.65 256.65 0 0 0-16.18 34zM114 17.3A258.47 258.47 0 0 0 17.3 114zM-9.19 301L301-9.19q-7.31-1.76-14.76-3.08L-12.27 286.28Q-11 293.74-9.19 301z" transform="translate(17.74 17.74)"/><path class="477a66e3-4cd0-4ddb-ac83-c8637931997d" d="M-12.52 197.32L197.32-12.52q-11.61 2-22.84 5l-182 182q-3 11.24-5 22.84zM4 341.33L341.33 4Q335 1.36 328.51-1L-1 328.51q2.36 6.49 5 12.82zM29.38 387.35l358-358q-5.3-3.66-10.78-7.07L22.31 376.57q3.4 5.49 7.07 10.78z" transform="translate(17.74 17.74)"/><path class="477a66e3-4cd0-4ddb-ac83-c8637931997d" d="M36.91 397.66L397.66 36.91q-5.06-3.88-10.31-7.53l-358 358q3.65 5.22 7.56 10.28zM53.29 417L417 53.29q-4.6-4.32-9.43-8.41L44.88 407.53q4.12 4.82 8.41 9.47zM22.31 376.57L376.57 22.31q-5.52-3.43-11.24-6.59L15.72 365.33q3.15 5.67 6.59 11.24z" transform="translate(17.74 17.74)"/><path class="477a66e3-4cd0-4ddb-ac83-c8637931997d" d="M44.88 407.53L407.53 44.88q-4.83-4.11-9.87-8L36.91 397.66q3.87 5.04 7.97 9.87zM-5.41 315.1L315.1-5.41q-7-2.08-14.06-3.78L-9.19 301q1.69 7.15 3.78 14.1zM62.14 426L426 62.14q-4.38-4.53-9-8.85L53.29 417q4.32 4.56 8.85 9z" transform="translate(17.74 17.74)"/><path class="477a66e3-4cd0-4ddb-ac83-c8637931997d" d="M-1 328.51L328.51-1c-4.41-1.58-8.89-3-13.41-4.41L-5.41 315.1c1.41 4.52 2.83 9 4.41 13.41zM15.72 365.33L365.33 15.72q-5.79-3.2-11.74-6.1l-344 344q2.93 5.93 6.13 11.71z" transform="translate(17.74 17.74)"/><path class="477a66e3-4cd0-4ddb-ac83-c8637931997d" d="M9.62 353.59l344-344q-6-3-12.26-5.59L4 341.33q2.67 6.23 5.62 12.26z" transform="translate(17.74 17.74)"/></g></svg>