<svg id="ff3c7193-b325-4760-aba7-2a41173ba4c7" data-name="Layer 1" xmlns="http://www.w3.org/2000/svg" viewBox="0 0 139.85 115.54"><defs><style>.e1a3876d-053d-430a-9557-da527d9b6582{fill:#3b3b3d}</style></defs><path class="e1a3876d-053d-430a-9557-da527d9b6582" d="M106.67 2.9A30.32 30.32 0 0 1 137 33.19v49.16a30.29 30.29 0 1 1-60.57 0V33.19A30.32 30.32 0 0 1 106.67 2.9m0-2.9a33.19 33.19 0 0 0-33.19 33.19v49.16a33.19 33.19 0 1 0 66.37 0V33.19A33.18 33.18 0 0 0 106.67 0z"/><path class="e1a3876d-053d-430a-9557-da527d9b6582" d="M100.86 33.14V21.46a.85.85 0 0 1 1-.92h4.46a6.76 6.76 0 1 1 0 13.52h-4.46a.85.85 0 0 1-1-.92zm5.1-1.67a3.93 3.93 0 0 0 4.14-4.17 3.92 3.92 0 0 0-4.1-4.17h-2v8.34zM105.07 54.4V42.72a.85.85 0 0 1 1-.92h1.2a.83.83 0 0 1 .93.92V54.4a.83.83 0 0 1-.93.92H106a.85.85 0 0 1-.93-.92zM101.54 73.88c-.26-.58 0-1 .65-1.14l.83-.19c.54-.14.83.09 1.14.59a2.76 2.76 0 0 0 2.44 1.2c1.31 0 2.18-.58 2.18-1.47 0-.67-.52-1.21-1.54-1.56l-1.76-.64c-1.61-.52-3.58-1.72-3.6-3.81 0-2.47 2.15-4 4.8-4a4.45 4.45 0 0 1 4.32 2.46c.29.56 0 1-.56 1.18l-.77.21a1 1 0 0 1-1.2-.52 1.9 1.9 0 0 0-1.76-.89c-1 0-1.79.48-1.79 1.37 0 .48.21 1 1.41 1.45l1.76.64c2.64.89 3.63 2.28 3.67 4 0 2.65-2.26 4.06-5.14 4.06-2.53-.02-4.37-1.14-5.08-2.94zM112.43 85.24V86a.85.85 0 0 1-1 .93h-3.13v10a.83.83 0 0 1-.93.92h-1.16a.83.83 0 0 1-.93-.92v-10h-3.09a.84.84 0 0 1-.93-.93v-.74a.83.83 0 0 1 .93-.92h9.24a.85.85 0 0 1 1 .9zM31.44 50.4h4.01l-1.98-5.46-2.03 5.46z"/><path class="e1a3876d-053d-430a-9557-da527d9b6582" d="M55.5 57.7a33.19 33.19 0 1 0-44.63 0 33.2 33.2 0 1 0 44.63 0zM39 86a.85.85 0 0 1-.94.93h-3.15v10a.83.83 0 0 1-.92.92h-1.17a.83.83 0 0 1-.92-.92v-10h-3.1a.83.83 0 0 1-.92-.93v-.73a.83.83 0 0 1 .92-.93h9.25a.85.85 0 0 1 .94.93zm0-21.26a.85.85 0 0 1-.94.93h-3.15v10a.83.83 0 0 1-.92.92h-1.17a.83.83 0 0 1-.92-.92v-10h-3.1a.83.83 0 0 1-.92-.93V64a.83.83 0 0 1 .92-.93h9.25A.85.85 0 0 1 39 64zm.09-9.39h-1.27a1.06 1.06 0 0 1-1.08-.73l-.68-1.78h-5.22l-.65 1.76a1.07 1.07 0 0 1-1.07.75h-1.21c-.7 0-1-.42-.74-1.06l4.52-11.73a1.07 1.07 0 0 1 1.09-.74h1.37a1.06 1.06 0 0 1 1.08.74l4.58 11.73c.24.61-.03 1.03-.73 1.03zm3.25-33.73l-3.67 11.7a1.06 1.06 0 0 1-1.07.77h-.81a1 1 0 0 1-1-.77l-2.28-7.5-2.27 7.5a1 1 0 0 1-1 .77h-.81a1.06 1.06 0 0 1-1.07-.77L24.6 21.59a.74.74 0 0 1 .77-1.06h1.2a1 1 0 0 1 1.05.79l2.26 7.6 2.22-7.17a1 1 0 0 1 1-.78h.65a1 1 0 0 1 1.05.78l2.2 7.17 2.26-7.6a1 1 0 0 1 1-.79h1.22a.74.74 0 0 1 .85 1.06z"/></svg>