<svg id="e84885bc-6133-499e-993d-703cd47c31f8" data-name="Layer 1" xmlns="http://www.w3.org/2000/svg" viewBox="0 0 628.9 623.64"><defs><style>.\34 bb2c59f-0a51-4347-a1bd-e81ae3faf833,.\37 82074ae-9a35-43ed-b875-d2d3fad52b1e,.\37 8f2df26-b388-4bf7-9d3b-0dfd2ad979ca,.e3b29f5e-5d4f-46cb-bee7-75ddb77f6be2{fill:none}.bc302559-bb8d-42b5-b669-d0b3557fdab0{clip-path:url(#024387da-06dc-4fc4-b5ad-fb579ec2c5c7)}.\34 bb2c59f-0a51-4347-a1bd-e81ae3faf833,.\37 8f2df26-b388-4bf7-9d3b-0dfd2ad979ca,.e3b29f5e-5d4f-46cb-bee7-75ddb77f6be2{stroke:#3c3c3d;stroke-miterlimit:10}.\34 bb2c59f-0a51-4347-a1bd-e81ae3faf833{stroke-width:1.27px}.\37 8f2df26-b388-4bf7-9d3b-0dfd2ad979ca{stroke-width:3.69px}.e3b29f5e-5d4f-46cb-bee7-75ddb77f6be2{stroke-width:7.37px}.\34 96bf3e1-a58e-45a2-9cc3-8cfa6a85e048,.\38 37b27f4-b791-492a-a1a2-cf5e2729f28e{font-size:17.2px;font-weight:700}.\32 f9ff700-ad03-42a0-95f1-ced7c98616c8,.\34 96bf3e1-a58e-45a2-9cc3-8cfa6a85e048,.e67ce091-9b3e-431b-804d-2d171763f6f0{fill:#3c3c3d}.\34 96bf3e1-a58e-45a2-9cc3-8cfa6a85e048{font-family:InfoTextPro-Bold,Info Text Pro}.d474f3d3-ea46-4ec8-8404-26eed863184c{letter-spacing:0}.\30 f04ae31-5f68-472e-9013-c4de8d7be4be{letter-spacing:-.07em}.\36 78825b7-7b0d-4f93-9bed-4005def6a3d0{letter-spacing:.04em}.e0f5f671-8166-4b38-b60b-13bfd01afec9{letter-spacing:.02em}.e4317f68-fd27-4f2f-9497-180aa7e92d18{letter-spacing:-.01em}.\30 f2b89fa-bd47-4015-9f83-c0b4655e80e0{letter-spacing:-.02em}.\32 f9ff700-ad03-42a0-95f1-ced7c98616c8{font-size:14.74px;font-family:InfoTextPro,Info Text Pro}.\32 414610f-e78a-4809-82c1-53043d3bef2a{letter-spacing:-.05em}.\34 196ee81-4835-465f-af73-7dd3ad44f412{letter-spacing:-.01em}.e55eab71-ed2b-4ea4-abed-b6c0e1b12152{letter-spacing:-.02em}.\35 71eb24e-257e-4feb-b511-bbf9011a7b5e{letter-spacing:-.01em}.\36 c374be5-df20-4f64-8086-59eec9d4baa8{letter-spacing:-.02em}.\30 45198e4-1f45-40a8-be5b-5ffc63070caf{letter-spacing:-.04em}.\31 d177b21-157e-445f-8b15-161e249973eb{letter-spacing:.01em}.\30 39ef2c2-8527-4514-87cc-222b460cd8a9{letter-spacing:0}.c3c65ce9-e6a8-422e-b00f-00b0eb5677d0{letter-spacing:-.01em}.\30 cddca13-0eaf-4333-b774-f0a0c7fca03d,.c66a0cbe-c9bb-4046-a93b-ac842f4f6959{letter-spacing:-.02em}.e8451e2a-b8fb-4969-867f-cf6e9b0ad95c{letter-spacing:-.06em}.\30 dd65c75-25b8-474b-a464-c9f6996e8a02{letter-spacing:-.02em}.\36 b498655-edcf-4563-a878-7b4061370abe{letter-spacing:0}.f71bd07c-bcdc-43ed-81e1-bb0d57b16142{letter-spacing:-.03em}.e21ac5a8-e1b4-4311-aed0-6495b21588f4{letter-spacing:.01em}.\38 37b27f4-b791-492a-a1a2-cf5e2729f28e{fill:#f3f1ea;font-family:ChollaSansOT-Bold,Cholla Sans OT}</style><clipPath id="024387da-06dc-4fc4-b5ad-fb579ec2c5c7"><path class="782074ae-9a35-43ed-b875-d2d3fad52b1e" d="M90.17 531s99.93-112.22 118-137.61 103.46-127.79 121.58-149.7c17.37-21 72.08-84.37 86.82-100.75s39.59-38 49-42.9c10.44-5.42 21.09-12.49 21.09-12.49l-.31 334.08s-65.52-.61-92.14-.61c-28.87 0-48.53-1.23-67 9.21-12.13 6.88-27.64 11.88-36.24 23.34s-17.82 20.28-34.4 22.12c-10.66 1.18-24-3.69-24-3.69s-47.41 41-83.55 52.83c-25.74 8.5-58.85 6.17-58.85 6.17z"/></clipPath></defs><title>map</title><g class="bc302559-bb8d-42b5-b669-d0b3557fdab0"><path class="4bb2c59f-0a51-4347-a1bd-e81ae3faf833" d="M526.24-184.52L84.4 256.14M526.24-171.73L84.4 268.93M526.24-158.94L84.4 281.72M526.24-146.14L84.4 294.52M526.24-133.35L84.4 307.31M526.24-120.56L84.4 320.1M526.24-107.77L84.4 332.89M526.24-94.97L84.4 345.69M526.24-82.18L84.4 358.48M526.24-69.39L84.4 371.27M526.24-56.6L84.4 384.06M526.24-43.8L84.4 396.85M526.24-31.01L84.4 409.65M526.24-18.22L84.4 422.44M526.24-5.43L84.4 435.23M526.24 7.37L84.4 448.02M526.24 20.16L84.4 460.82M526.24 32.95L84.4 473.61M526.24 45.74L84.4 486.4M526.24 58.53L84.4 499.19M526.24 71.33L84.4 511.99M526.24 84.12L84.4 524.78M526.24 96.91L84.4 537.57M526.24 109.7L84.4 550.36M526.24 122.5L84.4 563.15M526.24 135.29L84.4 575.95M526.24 148.08L84.4 588.74M526.24 160.87L84.4 601.53M526.24 173.67L84.4 614.32M526.24 186.46L84.4 627.12M526.24 199.25L84.4 639.91M526.24 212.04L84.4 652.7M526.24 224.83L84.4 665.49M526.24 237.63L84.4 678.29M526.24 250.42L84.4 691.08M526.24 263.21L84.4 703.87M526.24 276L84.4 716.66M526.24 288.8L84.4 729.46M526.24 301.59L84.4 742.25M526.24 314.38L84.4 755.04M526.24 327.17L84.4 767.83M526.24 339.97L84.4 780.62M526.24 352.76L84.4 793.42M526.24 365.55L84.4 806.21M526.24 378.34L84.4 819M526.24 391.14L84.4 831.79M526.24 403.93L84.4 844.59M526.24 416.72L84.4 857.38M526.24 429.51L84.4 870.17M526.24 442.3L84.4 882.96M526.24 455.1L84.4 895.76M526.24 467.89L84.4 908.55M526.24 480.68L84.4 921.34M526.24 493.47L84.4 934.13M526.24 506.27L84.4 946.93M526.24 519.06L84.4 959.72M526.24 531.85L84.4 972.51M526.24 544.64L84.4 985.3M526.24 557.44L84.4 998.09M526.24 570.23L84.4 1010.89M526.24 583.02L84.4 1023.68M526.24 595.81L84.4 1036.47"/></g><circle class="782074ae-9a35-43ed-b875-d2d3fad52b1e" cx="356.5" cy="297.81" r="272.4"/><path class="78f2df26-b388-4bf7-9d3b-0dfd2ad979ca" d="M65.6 555.85c16-14.74 184.29-208.55 227.29-266.29s131.46-158.49 158.49-179.38S504.21 81.92 523.87 66s23.34-43 23.34-43"/><path class="78f2df26-b388-4bf7-9d3b-0dfd2ad979ca" d="M487.01 62.47l-1.96 362.25-.5 30.08"/><path class="e3b29f5e-5d4f-46cb-bee7-75ddb77f6be2" d="M509.84 369.52c-17.92 0-84.12 4.11-112.52 7.27-55.32 6.14-85.08 11.67-113.32 38.7s-58.05 61.12-91.22 83.23-64.5 36.56-106.28 31.64c0 0-33.58-4.91-41.77-4.91"/><path class="78f2df26-b388-4bf7-9d3b-0dfd2ad979ca" d="M485.17 421.63H367.83c-24.75 0-41.77 6.14-68.18 24.57-10.44 7.28-35 43-63.28 25.8-23.3-14.18-64.23-39.21-62.65-36.86"/><text class="496bf3e1-a58e-45a2-9cc3-8cfa6a85e048" transform="rotate(-90 391.965 -118.725)"><tspan class="d474f3d3-ea46-4ec8-8404-26eed863184c">W</tspan><tspan class="0f04ae31-5f68-472e-9013-c4de8d7be4be" x="13.66" y="0">A</tspan><tspan class="678825b7-7b0d-4f93-9bed-4005def6a3d0" x="22.17" y="0">T</tspan><tspan class="e0f5f671-8166-4b38-b60b-13bfd01afec9" x="30.72" y="0">T</tspan><tspan class="e4317f68-fd27-4f2f-9497-180aa7e92d18" x="38.92" y="0"> </tspan><tspan class="0f2b89fa-bd47-4015-9f83-c0b4655e80e0" x="42.98" y="0">A</tspan><tspan x="52.36" y="0">VE.</tspan></text><text class="2f9ff700-ad03-42a0-95f1-ced7c98616c8" transform="translate(458.79 498.02)"><tspan class="2414610f-e78a-4809-82c1-53043d3bef2a">T</tspan><tspan x="5.71" y="0">o</tspan><tspan class="4196ee81-4835-465f-af73-7dd3ad44f412" x="12.84" y="0"> A</tspan><tspan class="e55eab71-ed2b-4ea4-abed-b6c0e1b12152" x="24.56" y="0">r</tspan><tspan x="29.34" y="0">den</tspan></text><text class="2f9ff700-ad03-42a0-95f1-ced7c98616c8" transform="translate(27.89 587.2)"><tspan class="2414610f-e78a-4809-82c1-53043d3bef2a">T</tspan><tspan x="5.71" y="0">o Dow</tspan><tspan class="571eb24e-257e-4feb-b511-bbf9011a7b5e" x="41.99" y="0">n</tspan><tspan x="49.33" y="0">town </tspan><tspan class="571eb24e-257e-4feb-b511-bbf9011a7b5e" x="5.17" y="17.2">S</tspan><tspan x="12.08" y="17.2">a</tspan><tspan class="6c374be5-df20-4f64-8086-59eec9d4baa8" x="19.08" y="17.2">c</tspan><tspan class="045198e4-1f45-40a8-be5b-5ffc63070caf" x="24.72" y="17.2">r</tspan><tspan x="29.27" y="17.2">ame</tspan><tspan class="571eb24e-257e-4feb-b511-bbf9011a7b5e" x="54.39" y="17.2">n</tspan><tspan x="61.74" y="17.2">to</tspan></text><text class="2f9ff700-ad03-42a0-95f1-ced7c98616c8" transform="translate(459.67 12.31)"><tspan class="2414610f-e78a-4809-82c1-53043d3bef2a">T</tspan><tspan x="5.71" y="0">o No</tspan><tspan class="1d177b21-157e-445f-8b15-161e249973eb" x="32.57" y="0">r</tspan><tspan class="039ef2c2-8527-4514-87cc-222b460cd8a9" x="37.86" y="0">t</tspan><tspan x="41.77" y="0">h</tspan><tspan x="-4.33" y="17.2">Hi</tspan><tspan class="571eb24e-257e-4feb-b511-bbf9011a7b5e" x="7.92" y="17.2">g</tspan><tspan x="15.12" y="17.2">h</tspan><tspan class="571eb24e-257e-4feb-b511-bbf9011a7b5e" x="22.61" y="17.2">l</tspan><tspan x="26.12" y="17.2">an</tspan><tspan class="c3c65ce9-e6a8-422e-b00f-00b0eb5677d0" x="40.61" y="17.2">d</tspan><tspan x="47.83" y="17.2">s</tspan></text><text class="2f9ff700-ad03-42a0-95f1-ced7c98616c8" transform="translate(232.8 154.78)"><tspan class="571eb24e-257e-4feb-b511-bbf9011a7b5e">M</tspan><tspan x="10.87" y="0">c</tspan><tspan class="c66a0cbe-c9bb-4046-a93b-ac842f4f6959" x="16.72" y="0">C</tspan><tspan x="23.65" y="0">lel</tspan><tspan class="571eb24e-257e-4feb-b511-bbf9011a7b5e" x="37.79" y="0">l</tspan><tspan x="41.3" y="0">an </tspan><tspan x="-13.59" y="17.2">Ind</tspan><tspan class="571eb24e-257e-4feb-b511-bbf9011a7b5e" x="5.02" y="17.2">us</tspan><tspan class="039ef2c2-8527-4514-87cc-222b460cd8a9" x="18.02" y="17.2">t</tspan><tspan class="0cddca13-0eaf-4333-b774-f0a0c7fca03d" x="21.93" y="17.2">r</tspan><tspan class="c3c65ce9-e6a8-422e-b00f-00b0eb5677d0" x="26.78" y="17.2">i</tspan><tspan x="30.29" y="17.2">al </tspan><tspan class="e8451e2a-b8fb-4969-867f-cf6e9b0ad95c" x="44.61" y="17.2">P</tspan><tspan x="51.21" y="17.2">a</tspan><tspan class="0cddca13-0eaf-4333-b774-f0a0c7fca03d" x="58.21" y="17.2">r</tspan><tspan class="c3c65ce9-e6a8-422e-b00f-00b0eb5677d0" x="63.06" y="17.2">k</tspan></text><text class="496bf3e1-a58e-45a2-9cc3-8cfa6a85e048" transform="rotate(-54.41 434.644 -94)"><tspan class="0dd65c75-25b8-474b-a464-c9f6996e8a02">R</tspan><tspan class="6b498655-edcf-4563-a878-7b4061370abe" x="9.18" y="0">OS</tspan><tspan x="27.11" y="0">EVILLE </tspan><tspan class="6b498655-edcf-4563-a878-7b4061370abe" x="76.33" y="0">R</tspan><tspan class="e4317f68-fd27-4f2f-9497-180aa7e92d18" x="85.69" y="0">D</tspan><tspan x="94.93" y="0">.</tspan></text><text class="496bf3e1-a58e-45a2-9cc3-8cfa6a85e048" transform="translate(360.67 443.31)"><tspan class="f71bd07c-bcdc-43ed-81e1-bb0d57b16142">L</tspan><tspan x="6.9" y="0">ON</tspan><tspan class="e4317f68-fd27-4f2f-9497-180aa7e92d18" x="26.69" y="0">G</tspan><tspan x="36.19" y="0">VIEW D</tspan><tspan class="e21ac5a8-e1b4-4311-aed0-6495b21588f4" x="85.52" y="0">R</tspan><tspan x="95.13" y="0">.</tspan></text><circle class="e67ce091-9b3e-431b-804d-2d171763f6f0" cx="407.56" cy="373.61" r="14.44"/><text class="837b27f4-b791-492a-a1a2-cf5e2729f28e" transform="translate(399.37 379.45)">80</text></svg>