<svg id="1c566026-2fdd-4c9c-a2fe-685644e52f5f" data-name="Layer 1" xmlns="http://www.w3.org/2000/svg" viewBox="0 0 549.04 623.64"><defs><style>.cb5ac8a4-dc2c-472b-8dff-2c5e7fc6197c{fill:none;stroke:#3b3b3d;stroke-miterlimit:10}.add50027-13f0-454d-af06-63a3005cc371{font-size:17.2px;fill:#3b3b3d}.eac0a083-6d18-4da0-9a31-522cc9abd448{fill:#3b3b3d}.add50027-13f0-454d-af06-63a3005cc371,.eac0a083-6d18-4da0-9a31-522cc9abd448{font-family:ff-info-text-web-pro,BlinkMacSystemFont,Helvetica,Arial,sans-serif;font-weight:600}.eac0a083-6d18-4da0-9a31-522cc9abd448{font-size:14.74px;font-weight:300}.a83dbc7a-967b-4356-8ecd-a0eedb3768d9{letter-spacing:-.02em}</style></defs><path class="cb5ac8a4-dc2c-472b-8dff-2c5e7fc6197c" d="M380.88 421l105.61-105.36v-12.8L367.94 421.09c4.06-.09 8.4-.09 12.94-.09z"/><path class="cb5ac8a4-dc2c-472b-8dff-2c5e7fc6197c" d="M393.67 421l92.81-92.56v-12.8L380.88 421h12.79z"/><path class="cb5ac8a4-dc2c-472b-8dff-2c5e7fc6197c" d="M394.25 421h12.21l80-79.79v-12.8L393.67 421zM367.94 421.09L486.5 302.84v-12.8L354.21 422c4.35-.52 8.9-.78 13.73-.91zM291.05 453.57c5.43-7.24 13.61-11.9 22-16.08l173.49-173.06v-12.81L263 474.54c12.72-3.16 20.62-11.06 28.05-20.97z"/><path class="cb5ac8a4-dc2c-472b-8dff-2c5e7fc6197c" d="M327.29 430.23a62.06 62.06 0 0 1 10.58-4.74l148.66-148.26v-12.8L313 437.49c4.89-2.49 9.82-4.73 14.29-7.26z"/><path class="cb5ac8a4-dc2c-472b-8dff-2c5e7fc6197c" d="M354.21 422l132.31-132v-12.77L337.87 425.49a78.89 78.89 0 0 1 16.34-3.49zM470.15 421.49l16.26-16.22v-12.8l-29 28.91z"/><path class="cb5ac8a4-dc2c-472b-8dff-2c5e7fc6197c" d="M482.87 421.6l3.53-3.52v-12.81l-16.26 16.22z"/><path class="cb5ac8a4-dc2c-472b-8dff-2c5e7fc6197c" d="M486.39 421.63v-3.55l-3.53 3.52zM444.71 421.28l41.72-41.61v-12.81L432 421.19zM457.43 421.38l29-28.91v-12.8l-41.72 41.61zM419.23 421.11l67.23-67.05v-12.81l-80 79.79z"/><path class="cb5ac8a4-dc2c-472b-8dff-2c5e7fc6197c" d="M432 421.19l54.47-54.33v-12.8l-67.23 67.05zM90.17 531h.79l395.7-394.63v-12.79L172.21 437.2C136.9 478.5 90.17 531 90.17 531z"/><path class="cb5ac8a4-dc2c-472b-8dff-2c5e7fc6197c" d="M208.12 393.37c-5.7 8-19.58 24.73-35.91 43.83l314.46-313.62v-12.8l-263.2 262.5c-6.75 8.55-12.13 15.56-15.35 20.09zM103.55 531.26l383.09-382.07v-12.8L91 531c1.72.12 6.32.33 12.55.26z"/><path class="cb5ac8a4-dc2c-472b-8dff-2c5e7fc6197c" d="M117 530.69L486.63 162v-12.81L103.55 531.26c3.92-.05 8.45-.21 13.45-.57zM223.47 373.28l263.21-262.5V98L278.24 305.87c-19.58 23.76-40.33 49.13-54.77 67.41zM416.57 142.94c-12.51 13.9-53.8 61.63-76.63 88.6L480.13 91.73c-4 2.45-9.27 5.59-14.52 8.31-9.45 4.96-34.3 26.52-49.04 42.9zM256.65 475.69a48.27 48.27 0 0 0 6.38-1.15l223.52-222.92v-12.8L249.07 475.68a38.4 38.4 0 0 0 7.58.01z"/><path class="cb5ac8a4-dc2c-472b-8dff-2c5e7fc6197c" d="M329.75 243.69c-8 9.63-29 34.82-51.51 62.18L486.69 98V87.55s-2.64 1.75-6.57 4.18L339.94 231.54c-4.07 4.81-7.56 8.97-10.19 12.15zM232.69 472s2.21.81 5.55 1.69L486.57 226v-12.81L206.68 492.37c15.21-11.04 26.01-20.37 26.01-20.37z"/><path class="cb5ac8a4-dc2c-472b-8dff-2c5e7fc6197c" d="M206.68 492.37l279.91-279.16v-12.8L171 515.15a321.11 321.11 0 0 0 35.68-22.78zM249.07 475.68l237.49-236.86V226L238.24 473.69a69.56 69.56 0 0 0 10.83 1.99zM131.47 529l355.15-354.2V162L117 530.69c4.57-.35 9.49-.89 14.47-1.69z"/><path class="cb5ac8a4-dc2c-472b-8dff-2c5e7fc6197c" d="M149.14 524.83a139.66 139.66 0 0 0 21.86-9.68l315.6-314.74V187.6L148.17 525.14z"/><path class="cb5ac8a4-dc2c-472b-8dff-2c5e7fc6197c" d="M148.17 525.14L486.61 187.6v-12.8L131.47 529a118.61 118.61 0 0 0 16.7-3.86z"/><path class="6161a7ae-eaaa-4e84-9bac-ead473ea3642" d="M65.6 555.85c16-14.74 184.29-208.55 227.29-266.29s131.46-158.49 158.49-179.38S504.21 81.92 523.87 66s23.34-43 23.34-43"/><path class="6161a7ae-eaaa-4e84-9bac-ead473ea3642" d="M487.01 62.47l-1.96 362.25-.5 30.08"/><path class="56d83dd0-c1c5-4414-9101-aefef69b43f8" d="M509.84 369.52c-17.92 0-84.12 4.11-112.52 7.27-55.32 6.14-85.08 11.67-113.32 38.7s-58.05 61.12-91.22 83.23-64.5 36.56-106.28 31.64c0 0-33.58-4.91-41.77-4.91"/><path class="6161a7ae-eaaa-4e84-9bac-ead473ea3642" d="M485.17 421.63H367.83c-24.75 0-41.77 6.14-68.18 24.57-10.44 7.28-35 43-63.28 25.8-23.3-14.18-64.23-39.21-62.65-36.86"/><text class="add50027-13f0-454d-af06-63a3005cc371" transform="rotate(-90 391.965 -118.725)"><tspan letter-spacing="0">W</tspan><tspan class="552d626b-c512-4509-85da-8b83b9ce1d72" x="13.66" y="0">A</tspan><tspan x="22.17" y="0" letter-spacing=".04em">T</tspan><tspan class="48e26247-62f9-4379-8ad2-b2e33973580c" x="30.72" y="0">T</tspan><tspan class="0b47fcbb-524a-4552-8f63-2cab271e28f4" x="38.92" y="0"> </tspan><tspan x="42.98" y="0" letter-spacing="-.02em">A</tspan><tspan x="52.36" y="0">VE.</tspan></text><text class="eac0a083-6d18-4da0-9a31-522cc9abd448" transform="translate(458.79 498.02)"><tspan class="9699b01d-27b9-4db0-b2be-bcd4615681aa">T</tspan><tspan x="5.71" y="0">o</tspan><tspan class="0d011da5-245d-4bac-902f-0362272c0161" x="12.84" y="0"> A</tspan><tspan class="08f94277-6090-421f-b341-fd92bd961376" x="24.56" y="0">r</tspan><tspan x="29.34" y="0">den</tspan></text><text class="eac0a083-6d18-4da0-9a31-522cc9abd448" transform="translate(27.89 587.2)"><tspan class="9699b01d-27b9-4db0-b2be-bcd4615681aa">T</tspan><tspan x="5.71" y="0">o Dow</tspan><tspan class="6578b582-af1a-4bc9-b773-96483f19fe9c" x="41.99" y="0">n</tspan><tspan x="49.33" y="0">town </tspan><tspan class="6578b582-af1a-4bc9-b773-96483f19fe9c" x="5.17" y="17.2">S</tspan><tspan x="12.08" y="17.2">a</tspan><tspan class="403c91c5-0ef4-48bb-b030-9ac7c1179b43" x="19.08" y="17.2">c</tspan><tspan x="24.72" y="17.2" letter-spacing="-.04em">r</tspan><tspan x="29.27" y="17.2">ame</tspan><tspan class="6578b582-af1a-4bc9-b773-96483f19fe9c" x="54.39" y="17.2">n</tspan><tspan x="61.74" y="17.2">to</tspan></text><text class="eac0a083-6d18-4da0-9a31-522cc9abd448" transform="translate(459.67 12.31)"><tspan class="9699b01d-27b9-4db0-b2be-bcd4615681aa">T</tspan><tspan x="5.71" y="0">o No</tspan><tspan class="1ab13d6a-a320-47b6-8ae9-68f1be0e88b5" x="32.57" y="0">r</tspan><tspan class="17bf61ff-45e4-4446-9bb2-18a2f1817c29" x="37.86" y="0">t</tspan><tspan x="41.77" y="0">h</tspan><tspan x="-4.33" y="17.2">Hi</tspan><tspan class="6578b582-af1a-4bc9-b773-96483f19fe9c" x="7.92" y="17.2">g</tspan><tspan x="15.12" y="17.2">h</tspan><tspan class="6578b582-af1a-4bc9-b773-96483f19fe9c" x="22.61" y="17.2">l</tspan><tspan x="26.12" y="17.2">an</tspan><tspan class="59333784-28e0-463d-8818-729d072a7a93" x="40.61" y="17.2">d</tspan><tspan x="47.83" y="17.2">s</tspan></text><text class="eac0a083-6d18-4da0-9a31-522cc9abd448" transform="translate(232.8 154.78)"><tspan class="6578b582-af1a-4bc9-b773-96483f19fe9c">M</tspan><tspan x="10.87" y="0">c</tspan><tspan class="158c9eef-6286-471d-8e69-00e083cb0a3b" x="16.72" y="0">C</tspan><tspan x="23.65" y="0">lel</tspan><tspan class="6578b582-af1a-4bc9-b773-96483f19fe9c" x="37.79" y="0">l</tspan><tspan x="41.3" y="0">an </tspan><tspan x="-13.59" y="17.2">Ind</tspan><tspan class="6578b582-af1a-4bc9-b773-96483f19fe9c" x="5.02" y="17.2">us</tspan><tspan class="17bf61ff-45e4-4446-9bb2-18a2f1817c29" x="18.02" y="17.2">t</tspan><tspan class="a83dbc7a-967b-4356-8ecd-a0eedb3768d9" x="21.93" y="17.2">r</tspan><tspan class="59333784-28e0-463d-8818-729d072a7a93" x="26.78" y="17.2">i</tspan><tspan x="30.29" y="17.2">al </tspan><tspan class="87dc17c5-ac76-4eee-9a59-a7590b4c9c97" x="44.61" y="17.2">P</tspan><tspan x="51.21" y="17.2">a</tspan><tspan class="a83dbc7a-967b-4356-8ecd-a0eedb3768d9" x="58.21" y="17.2">r</tspan><tspan class="59333784-28e0-463d-8818-729d072a7a93" x="63.06" y="17.2">k</tspan></text><text class="add50027-13f0-454d-af06-63a3005cc371" transform="rotate(-54.41 434.644 -94)"><tspan class="32bec885-cbab-43cd-97e2-6a392b975730">R</tspan><tspan class="4807a609-2adc-4c43-9833-5f04b0495f7c" x="9.18" y="0">OS</tspan><tspan x="27.11" y="0">EVILLE </tspan><tspan class="4807a609-2adc-4c43-9833-5f04b0495f7c" x="76.33" y="0">R</tspan><tspan class="0b47fcbb-524a-4552-8f63-2cab271e28f4" x="85.69" y="0">D</tspan><tspan x="94.93" y="0">.</tspan></text><text class="add50027-13f0-454d-af06-63a3005cc371" transform="translate(360.67 443.31)"><tspan letter-spacing="-.03em">L</tspan><tspan x="6.9" y="0">ON</tspan><tspan class="0b47fcbb-524a-4552-8f63-2cab271e28f4" x="26.69" y="0">G</tspan><tspan x="36.19" y="0">VIEW D</tspan><tspan class="27fd865c-01eb-4bb5-9638-eb7709259614" x="85.52" y="0">R</tspan><tspan x="95.13" y="0">.</tspan></text><circle cx="407.56" cy="373.61" r="14.44" fill="#3b3b3d"/><text class="8936efa4-e56c-419f-8ec2-5aea7a80cfb1" transform="translate(399.37 379.45)">80</text></svg>