<svg data-name="Layer 1" xmlns="http://www.w3.org/2000/svg" viewBox="0 0 618.47 623.64"><g fill="none" stroke="#3b3b3d" stroke-miterlimit="10" stroke-width="1.273"><path d="M393.67 421l92.81-92.56v-12.8L380.88 421h12.79z"/><path d="M394.25 421h12.21l80-79.79v-12.8L393.67 421zM380.88 421l105.61-105.36v-12.8L367.94 421.09c4.06-.09 8.4-.09 12.94-.09zM419.23 421.11l67.23-67.05v-12.81l-80 79.79z"/><path d="M367.94 421.09L486.5 302.84v-12.8L354.21 422c4.35-.52 8.9-.78 13.73-.91zM327.29 430.23a62.06 62.06 0 0 1 10.58-4.74l148.66-148.26v-12.8L313 437.49c4.89-2.49 9.82-4.73 14.29-7.26z"/><path d="M291.05 453.57c5.43-7.24 13.61-11.9 22-16.08l173.49-173.06v-12.81L263 474.54c12.72-3.16 20.62-11.06 28.05-20.97zM354.21 422l132.31-132v-12.77L337.87 425.49a78.89 78.89 0 0 1 16.34-3.49zM482.87 421.6l3.53-3.52v-12.81l-16.26 16.22z"/><path d="M486.39 421.63v-3.55l-3.53 3.52zM470.15 421.49l16.26-16.22v-12.8l-29 28.91z"/><path d="M457.43 421.38l29-28.91v-12.8l-41.72 41.61zM444.71 421.28l41.72-41.61v-12.81L432 421.19z"/><path d="M432 421.19l54.47-54.33v-12.8l-67.23 67.05zM117 530.69L486.63 162v-12.81L103.55 531.26c3.92-.05 8.45-.21 13.45-.57zM256.65 475.69a48.27 48.27 0 0 0 6.38-1.15l223.52-222.92v-12.8L249.07 475.68a38.4 38.4 0 0 0 7.58.01z"/><path d="M103.55 531.26l383.09-382.07v-12.8L91 531c1.72.12 6.32.33 12.55.26zM416.57 142.94c-12.51 13.9-53.8 61.63-76.63 88.6L480.13 91.73c-4 2.45-9.27 5.59-14.52 8.31-9.45 4.96-34.3 26.52-49.04 42.9zM208.12 393.37c-5.7 8-19.58 24.73-35.91 43.83l314.46-313.62v-12.8l-263.2 262.5c-6.75 8.55-12.14 15.56-15.35 20.09z"/><path d="M329.75 243.69c-8 9.63-29 34.82-51.51 62.18L486.69 98V87.55s-2.64 1.75-6.57 4.18L339.94 231.54c-4.07 4.81-7.56 8.97-10.19 12.15z"/><path d="M223.47 373.28l263.21-262.5V98L278.24 305.87c-19.58 23.76-40.33 49.13-54.77 67.41zM90.17 531h.79l395.7-394.63v-12.79L172.21 437.2C136.9 478.5 90.17 531 90.17 531zM206.68 492.37l279.91-279.16v-12.8L171 515.15a321.11 321.11 0 0 0 35.68-22.78z"/><path d="M232.69 472s2.21.81 5.55 1.69L486.57 226v-12.81L206.68 492.37c15.21-11.04 26.01-20.37 26.01-20.37zM131.47 529l355.15-354.2V162L117 530.69c4.57-.35 9.49-.89 14.47-1.69z"/><path d="M249.07 475.68l237.49-236.86V226L238.24 473.69a69.56 69.56 0 0 0 10.83 1.99zM148.17 525.14L486.61 187.6v-12.8L131.47 529a118.61 118.61 0 0 0 16.7-3.86z"/><path d="M149.14 524.83a139.66 139.66 0 0 0 21.86-9.68l315.6-314.74V187.6L148.17 525.14z"/></g><path d="M465.61 100c-9.45 4.91-34.3 26.52-49 42.9s-69.45 79.74-86.82 100.75C311.63 265.6 226.14 368 208.12 393.37S90.17 531 90.17 531s33.11 2.35 59-6.15C185.28 513 232.69 472 232.69 472s13.3 4.87 24 3.69c16.58-1.84 25.8-10.65 34.4-22.12s24.11-16.46 36.24-23.34c18.43-10.44 38.09-9.21 67-9.21 26.62 0 92.14.61 92.14.61l.31-334.08s-10.73 7.07-21.17 12.45z" fill="none" stroke="#3b3b3d" stroke-miterlimit="10" stroke-width="3.686"/><path d="M65.6 555.85c16-14.74 184.29-208.55 227.29-266.29s131.46-158.49 158.49-179.38S504.21 81.92 523.87 66s23.34-43 23.34-43" fill="none" stroke="#3b3b3d" stroke-miterlimit="10" stroke-width="3.686"/><path fill="none" stroke="#3b3b3d" stroke-miterlimit="10" stroke-width="3.686" d="M487.01 62.47l-1.96 362.25-.5 30.08"/><path d="M509.84 369.52c-17.92 0-84.12 4.11-112.52 7.27-55.32 6.14-85.08 11.67-113.32 38.7s-58 61.12-91.22 83.23-64.5 36.56-106.28 31.64c0 0-33.58-4.91-41.77-4.91" fill="none" stroke="#3b3b3d" stroke-miterlimit="10" stroke-width="7.372"/><path d="M485.17 421.63H367.83c-24.75 0-41.77 6.14-68.18 24.57-10.44 7.28-35 43-63.28 25.8-23.3-14.18-64.23-39.21-62.65-36.86" fill="none" stroke="#3b3b3d" stroke-miterlimit="10" stroke-width="3.686"/><text transform="rotate(-90 391.965 -118.725)" font-size="17.2" fill="#3b3b3d" font-family="InfoTextPro-Bold,Info Text Pro" font-weight="700"><tspan letter-spacing="-.005em">W</tspan><tspan x="13.66" y="0" letter-spacing="-.07em">A</tspan><tspan x="22.17" y="0" letter-spacing=".04em">T</tspan><tspan x="30.72" y="0" letter-spacing=".02em">T</tspan><tspan x="38.92" y="0" letter-spacing="-.01em"> </tspan><tspan x="42.98" y="0" letter-spacing="-.02em">A</tspan><tspan x="52.36" y="0">VE.</tspan></text><text transform="translate(458.79 498.02)" font-size="14.743" fill="#3b3b3d" font-family="InfoTextPro,Info Text Pro"><tspan letter-spacing="-.05em">T</tspan><tspan x="5.71" y="0">o</tspan><tspan x="12.84" y="0" letter-spacing="-.005em"> A</tspan><tspan x="24.56" y="0" letter-spacing="-.025em">r</tspan><tspan x="29.34" y="0">den</tspan></text><text transform="translate(27.89 587.2)" font-size="14.743" fill="#3b3b3d" font-family="InfoTextPro,Info Text Pro"><tspan letter-spacing="-.05em">T</tspan><tspan x="5.71" y="0">o Dow</tspan><tspan x="41.99" y="0" letter-spacing="-.01em">n</tspan><tspan x="49.33" y="0">town </tspan><tspan x="5.17" y="17.2" letter-spacing="-.01em">S</tspan><tspan x="12.08" y="17.2">a</tspan><tspan x="19.08" y="17.2" letter-spacing="-.015em">c</tspan><tspan x="24.72" y="17.2" letter-spacing="-.04em">r</tspan><tspan x="29.27" y="17.2">ame</tspan><tspan x="54.39" y="17.2" letter-spacing="-.01em">n</tspan><tspan x="61.74" y="17.2">to</tspan></text><text transform="translate(459.67 12.31)" font-size="14.743" fill="#3b3b3d" font-family="InfoTextPro,Info Text Pro"><tspan letter-spacing="-.05em">T</tspan><tspan x="5.71" y="0">o No</tspan><tspan x="32.57" y="0" letter-spacing=".01em">r</tspan><tspan x="37.86" y="0" letter-spacing="-.005em">t</tspan><tspan x="41.77" y="0">h</tspan><tspan x="-4.33" y="17.2">Hi</tspan><tspan x="7.92" y="17.2" letter-spacing="-.01em">g</tspan><tspan x="15.12" y="17.2">h</tspan><tspan x="22.61" y="17.2" letter-spacing="-.01em">l</tspan><tspan x="26.12" y="17.2">an</tspan><tspan x="40.61" y="17.2" letter-spacing="-.01em">d</tspan><tspan x="47.83" y="17.2">s</tspan></text><text transform="translate(232.8 154.78)" font-size="14.743" fill="#3b3b3d" font-family="InfoTextPro,Info Text Pro"><tspan letter-spacing="-.01em">M</tspan><tspan x="10.87" y="0">c</tspan><tspan x="16.72" y="0" letter-spacing="-.02em">C</tspan><tspan x="23.65" y="0">lel</tspan><tspan x="37.79" y="0" letter-spacing="-.01em">l</tspan><tspan x="41.3" y="0">an </tspan><tspan x="-13.59" y="17.2">Ind</tspan><tspan x="5.02" y="17.2" letter-spacing="-.01em">us</tspan><tspan x="18.02" y="17.2" letter-spacing="-.005em">t</tspan><tspan x="21.93" y="17.2" letter-spacing="-.02em">r</tspan><tspan x="26.78" y="17.2" letter-spacing="-.01em">i</tspan><tspan x="30.29" y="17.2">al </tspan><tspan x="44.61" y="17.2" letter-spacing="-.06em">P</tspan><tspan x="51.21" y="17.2">a</tspan><tspan x="58.21" y="17.2" letter-spacing="-.02em">r</tspan><tspan x="63.06" y="17.2" letter-spacing="-.01em">k</tspan></text><text transform="rotate(-54.41 434.644 -94)" font-size="17.2" fill="#3b3b3d" font-family="InfoTextPro-Bold,Info Text Pro" font-weight="700"><tspan letter-spacing="-.015em">R</tspan><tspan x="9.18" y="0" letter-spacing="-.005em">OS</tspan><tspan x="27.11" y="0">EVILLE </tspan><tspan x="76.33" y="0" letter-spacing="-.005em">R</tspan><tspan x="85.69" y="0" letter-spacing="-.01em">D</tspan><tspan x="94.93" y="0">.</tspan></text><text transform="translate(360.67 443.31)" font-size="17.2" fill="#3b3b3d" font-family="InfoTextPro-Bold,Info Text Pro" font-weight="700"><tspan letter-spacing="-.03em">L</tspan><tspan x="6.9" y="0">ON</tspan><tspan x="26.69" y="0" letter-spacing="-.01em">G</tspan><tspan x="36.19" y="0">VIEW D</tspan><tspan x="85.52" y="0" letter-spacing=".01em">R</tspan><tspan x="95.13" y="0">.</tspan></text><path d="M615.4 306.45z" fill="#f2f2eb"/><rect x="402.17" y="374.43" width="2.58" height="3.44" rx=".77" ry=".77" fill="#3b3b3d"/><path d="M407.56 359.18A14.44 14.44 0 1 0 422 373.61a14.44 14.44 0 0 0-14.44-14.43zm-1 18.12a2.15 2.15 0 0 1-2.15 2.15h-1.83a2.15 2.15 0 0 1-2.15-2.15v-2.23a1.73 1.73 0 0 1 1.24-1.45v-.05a1.55 1.55 0 0 1-1.08-1.44V370a2.15 2.15 0 0 1 2.15-2.15h1.51a2.15 2.15 0 0 1 2.15 2.15v2.15a1.55 1.55 0 0 1-1.08 1.44v.05a1.73 1.73 0 0 1 1.24 1.45zm8.18 0a2.15 2.15 0 0 1-2.15 2.15h-1.82a2.15 2.15 0 0 1-2.15-2.15V370a2.15 2.15 0 0 1 2.15-2.15h1.82a2.15 2.15 0 0 1 2.15 2.15z" fill="#3b3b3d"/><rect x="402.33" y="369.41" width="2.27" height="3.44" rx=".77" ry=".77" fill="#3b3b3d"/><rect x="410.36" y="369.41" width="2.58" height="8.46" rx=".77" ry=".77" fill="#3b3b3d"/><path d="M405.29 373.62v-.05a1.55 1.55 0 0 0 1.08-1.44V370a2.15 2.15 0 0 0-2.15-2.15h-1.51a2.15 2.15 0 0 0-2.15 2.15v2.15a1.55 1.55 0 0 0 1.08 1.44v.05a1.73 1.73 0 0 0-1.24 1.45v2.23a2.15 2.15 0 0 0 2.15 2.15h1.83a2.15 2.15 0 0 0 2.15-2.15v-2.23a1.73 1.73 0 0 0-1.24-1.47zm-3-3.43a.77.77 0 0 1 .77-.78h.73a.77.77 0 0 1 .77.78v1.89a.76.76 0 0 1-.77.77h-.73a.76.76 0 0 1-.77-.77zm2.42 6.91a.76.76 0 0 1-.77.77h-1a.77.77 0 0 1-.78-.77v-1.89a.78.78 0 0 1 .78-.78h1a.77.77 0 0 1 .77.78zM412.56 367.83h-1.82a2.15 2.15 0 0 0-2.15 2.15v7.32a2.15 2.15 0 0 0 2.15 2.15h1.82a2.15 2.15 0 0 0 2.15-2.15V370a2.15 2.15 0 0 0-2.15-2.17zm.38 9.27a.76.76 0 0 1-.77.77h-1a.77.77 0 0 1-.78-.77v-6.91a.78.78 0 0 1 .78-.78h1a.77.77 0 0 1 .77.78z" fill="#f2f2eb"/></svg>