<svg data-name="Layer 1" xmlns="http://www.w3.org/2000/svg" viewBox="0 0 520.77 602.6"><g fill="none" stroke="#3b3b3d" stroke-miterlimit="10" stroke-width=".5"><path d="M352.62 419.1l105.61-105.33V301L339.67 419.22c4.11-.11 8.41-.13 12.95-.12z"/><path d="M339.67 419.22L458.24 301v-12.84L326 420.11c4.3-.5 8.85-.76 13.67-.89zM365.4 419.14l92.82-92.57v-12.8L352.62 419.1c4.06.01 8.31.04 12.78.04z"/><path d="M326 420.11l132.3-131.95v-12.8L309.61 423.62a77.61 77.61 0 0 1 16.39-3.51zM262.78 451.7c5.44-7.24 13.62-11.9 22-16.09l173.5-173.06v-12.8L234.77 472.67c12.69-3.16 20.59-11.07 28.01-20.97zM366 419.14h12.21l80-79.79v-12.78l-92.81 92.57z"/><path d="M299 428.36a60.21 60.21 0 0 1 10.58-4.74l148.68-148.26v-12.81L284.75 435.61c4.88-2.44 9.81-4.72 14.25-7.25zM441.89 419.61l16.26-16.21v-12.81l-29 28.91z"/><path d="M454.61 419.72l3.52-3.52v-12.8l-16.26 16.21zM391 419.23l67.23-67.05v-12.8l-80 79.79z"/><path d="M458.13 419.76v-3.56l-3.52 3.52zM403.71 419.31L458.18 365v-12.82L391 419.23z"/><path d="M416.44 419.41l41.73-41.62V365l-54.47 54.32z"/><path d="M429.17 419.5l29-28.91v-12.8l-41.73 41.62zM204.43 470.13s2.2.81 5.54 1.68l248.34-247.67v-12.8L178.42 490.5c15.21-11.05 26.01-20.37 26.01-20.37zM179.85 391.5c-5.69 8-19.58 24.73-35.9 43.82l314.46-313.61V108.9l-263.2 262.51c-6.76 8.59-12.14 15.59-15.36 20.09zM75.29 529.38l383.09-382.06v-12.81L62.7 529.15c1.75.1 6.35.31 12.59.23z"/><path d="M61.91 529.1h.79l395.69-394.59v-12.8L144 435.32c-35.36 41.3-82.09 93.78-82.09 93.78zM195.21 371.41L458.42 108.9V96.1L250 304c-19.6 23.75-40.35 49.13-54.79 67.41z"/><path d="M301.48 241.81c-8 9.64-29 34.82-51.51 62.19L458.43 96.1V85.68s-2.64 1.75-6.57 4.17L311.68 229.67c-4.07 4.81-7.56 8.96-10.2 12.14z"/><path d="M388.31 141.07c-12.52 13.9-53.8 61.62-76.63 88.6L451.87 89.85c-4 2.45-9.28 5.59-14.52 8.32-9.45 4.91-34.3 26.52-49.04 42.9zM103.2 527.13l355.16-354.2v-12.81L88.69 528.81c4.62-.35 9.54-.88 14.51-1.68z"/><path d="M88.69 528.81l369.68-368.69v-12.8L75.29 529.38c3.92-.04 8.48-.2 13.4-.57zM178.42 490.5l279.9-279.16v-12.81L142.74 513.28a321.27 321.27 0 0 0 35.68-22.78zM220.81 473.8L458.3 237v-12.86L210 471.81a67.42 67.42 0 0 0 10.81 1.99z"/><path d="M120.88 523a139.16 139.16 0 0 0 21.86-9.68l315.59-314.79v-12.8L119.91 523.26z"/><path d="M119.91 523.26l338.44-337.53v-12.8L103.2 527.13a118.45 118.45 0 0 0 16.71-3.87zM228.38 473.81a48.16 48.16 0 0 0 6.39-1.14l223.52-222.92V237L220.81 473.8a36.84 36.84 0 0 0 7.57.01z"/><path data-name="SVGID" d="M61.91 529.1s99.92-112.21 117.94-137.6 103.51-127.78 121.63-149.69c17.38-21 72.08-84.36 86.83-100.74s39.59-38 49-42.9c10.44-5.43 21.09-12.49 21.09-12.49l-.31 334.08s-65.52-.62-92.14-.62c-28.88 0-48.53-1.23-67 9.22-12.14 6.87-27.65 11.87-36.25 23.34S245 472 228.38 473.81c-10.65 1.19-23.95-3.68-23.95-3.68S157 511.08 120.88 523c-25.88 8.46-58.97 6.1-58.97 6.1z"/></g><path d="M37.34 554c16-14.74 184.29-208.55 227.29-266.3s131.46-158.51 158.49-179.4S476 80.05 495.6 64.08s23.35-43 23.35-43" fill="none" stroke="#3b3b3d" stroke-miterlimit="10" stroke-width="3.686"/><path fill="none" stroke="#3b3b3d" stroke-miterlimit="10" stroke-width="3.686" d="M458.75 60.59l-1.97 362.26-.49 30.08"/><path d="M481.58 367.65c-17.92 0-84.13 4.11-112.52 7.26-55.29 6.14-85.08 11.67-113.34 38.7s-58.05 61.13-91.22 83.24S100 533.4 58.22 528.49c0 0-33.58-4.92-41.77-4.92" fill="none" stroke="#3b3b3d" stroke-miterlimit="10" stroke-width="7.372"/><path d="M456.9 419.76H339.57c-24.75 0-41.77 6.14-68.19 24.57-10.43 7.28-35 43-63.27 25.8-23.31-14.19-64.23-39.22-62.66-36.86" fill="none" stroke="#3b3b3d" stroke-miterlimit="10" stroke-width="3.686"/><g fill="#3b3b3d"><path d="M482 259.43a.6.6 0 0 1 .43.6v2.27a.61.61 0 0 1-.43.6l-7.62 1.31c-.45.07-1.68.16-2.18.21.48 0 1.73.1 2.2.19l7.6 1.27a.61.61 0 0 1 .43.6v2.31a.61.61 0 0 1-.43.6l-10.49 1.67c-.31.05-.6-.06-.6-.4v-1.56a.56.56 0 0 1 .51-.62l7.12-.79c.57-.07 1.71-.13 2.43-.18-.74-.08-1.76-.17-2.43-.29l-7.13-1.22a.55.55 0 0 1-.5-.62v-2a.56.56 0 0 1 .5-.62l7.1-1.29c.74-.14 1.6-.23 2.46-.31l-2.41-.21-7.15-.72a.55.55 0 0 1-.5-.59v-1.32c0-.34.29-.45.6-.4zM482.43 248.56v1.55a.59.59 0 0 1-.43.6l-2.15.55v3.35l2.15.52a.6.6 0 0 1 .43.6v1.43c0 .34-.29.48-.6.39l-10.49-2.8a.62.62 0 0 1-.43-.6v-2.36a.62.62 0 0 1 .43-.6l10.49-3c.31-.11.6.03.6.37zm-8.67 4.14a11.43 11.43 0 0 1-1.55.28 8.81 8.81 0 0 1 1.55.27l4 .88v-2.35zM473 241.61v2.24h9a.49.49 0 0 1 .48.48v1.36a.49.49 0 0 1-.48.48h-9v2.23a.49.49 0 0 1-.48.48h-1.13a.49.49 0 0 1-.48-.48v-6.79a.49.49 0 0 1 .48-.48h1.13a.49.49 0 0 1 .48.48zM473 233.06v2.24h9a.49.49 0 0 1 .48.48v1.36a.49.49 0 0 1-.48.48h-9v2.23a.5.5 0 0 1-.48.49h-1.13a.5.5 0 0 1-.48-.49v-6.79a.49.49 0 0 1 .48-.48h1.13a.49.49 0 0 1 .48.48zM482.43 219.23v1.55a.59.59 0 0 1-.43.6l-2.15.55v3.36l2.15.51a.6.6 0 0 1 .43.6v1.43c0 .35-.29.48-.6.4l-10.49-2.81a.62.62 0 0 1-.43-.6v-2.35a.64.64 0 0 1 .43-.61l10.49-3c.31-.11.6.03.6.37zm-8.67 4.15a11.41 11.41 0 0 1-1.55.27 9.85 9.85 0 0 1 1.55.28l4 .88v-2.36zM482 212.68a.62.62 0 0 1 .43.6v2a.64.64 0 0 1-.43.61l-10.49 2.94c-.31.08-.6-.06-.6-.4v-1.56a.58.58 0 0 1 .5-.62l7-1.65a18.33 18.33 0 0 1 2.66-.37 21.53 21.53 0 0 1-2.66-.39l-7-1.6a.59.59 0 0 1-.53-.64v-1.39c0-.34.29-.48.6-.39zM482.43 202.76v5.43a.49.49 0 0 1-.48.48h-10.56a.49.49 0 0 1-.48-.48v-5.43a.5.5 0 0 1 .48-.49h1a.5.5 0 0 1 .48.49v3.59h2.5v-3.25a.49.49 0 0 1 .48-.48h.93a.49.49 0 0 1 .48.48v3.25h3.1v-3.59a.5.5 0 0 1 .48-.49H482a.5.5 0 0 1 .43.49zM482.55 199.25a1.38 1.38 0 1 1-1.38-1.38 1.38 1.38 0 0 1 1.38 1.38z"/></g><g fill="#3b3b3d"><path d="M436.89 487.34h-2.24v8.51a.31.31 0 0 1-.31.29h-.57a.3.3 0 0 1-.31-.29v-8.51h-2.24a.3.3 0 0 1-.33-.29v-.49a.3.3 0 0 1 .33-.29h5.67a.29.29 0 0 1 .3.29v.49a.29.29 0 0 1-.3.29zM439.8 496.22c-1.71 0-2.83-1.36-2.83-3.63s1.12-3.63 2.83-3.63 2.83 1.37 2.83 3.63-1.12 3.63-2.83 3.63zm0-6.27c-1 0-1.61.87-1.61 2.64s.59 2.65 1.61 2.65 1.6-.84 1.6-2.65-.59-2.59-1.6-2.59zM454.51 496.14h-.77a.46.46 0 0 1-.4-.29l-.7-2.46h-3.31l-.66 2.46a.38.38 0 0 1-.35.29h-.72a.22.22 0 0 1-.21-.32l2.71-9.26a.41.41 0 0 1 .4-.29h.93a.41.41 0 0 1 .4.29l2.88 9.26a.22.22 0 0 1-.2.32zm-3.33-8a9.25 9.25 0 0 1-.22-1.21 9.25 9.25 0 0 1-.22 1.21l-1.14 4.27h2.76zM459.77 490.08a.31.31 0 0 1-.43.27 3.14 3.14 0 0 0-.82-.16c-.43 0-1 .53-1 1.81v3.85a.31.31 0 0 1-.31.29h-.56a.31.31 0 0 1-.31-.29v-6.52a.3.3 0 0 1 .31-.29h.35a.31.31 0 0 1 .31.22l.2.8a2 2 0 0 1 1.65-1.1c.47 0 .84.23.77.52zM465.67 496.14h-.31a.33.33 0 0 1-.38-.29l-.12-.64a1.82 1.82 0 0 1-1.73 1c-1.51 0-2.46-1.21-2.46-3.6 0-1.56.52-3.66 2.51-3.66a1.72 1.72 0 0 1 1.65 1V486a.3.3 0 0 1 .31-.29h.53a.3.3 0 0 1 .31.29v9.85a.31.31 0 0 1-.31.29zm-2.24-6.2c-1.3 0-1.5 1.74-1.5 2.67 0 1.88.56 2.63 1.49 2.63s1.44-.84 1.44-2.61-.53-2.69-1.43-2.69zM473 492.89h-3.76c.06 1.48.57 2.29 1.9 2.29a4.56 4.56 0 0 0 1.4-.23.28.28 0 0 1 .38.19l.14.37a.3.3 0 0 1-.2.38 3.79 3.79 0 0 1-1.71.33c-2 0-3.14-1.29-3.14-3.67s1.1-3.59 2.67-3.59c1.36 0 2.61.83 2.61 3.62a.31.31 0 0 1-.29.31zm-2.29-3c-.48 0-1.29.28-1.47 2h2.84c0-.89-.37-1.98-1.34-1.98zM480 496.14h-.56a.3.3 0 0 1-.31-.29v-4.78c0-.78-.27-1.1-.92-1.1a1.75 1.75 0 0 0-1.71 1.82v4.06a.31.31 0 0 1-.31.29h-.56a.31.31 0 0 1-.31-.29v-6.52a.3.3 0 0 1 .31-.29h.37c.2 0 .29.06.34.23l.16.73a2.54 2.54 0 0 1 2-1 1.72 1.72 0 0 1 1.81 1.85v5a.3.3 0 0 1-.31.29z"/></g><g fill="#3b3b3d"><path d="M6 576.53H3.76V585a.31.31 0 0 1-.31.3h-.58a.31.31 0 0 1-.31-.3v-8.5H.32a.31.31 0 0 1-.32-.3v-.48a.31.31 0 0 1 .32-.3H6a.29.29 0 0 1 .29.3v.48a.29.29 0 0 1-.29.33zM8.9 585.4c-1.7 0-2.83-1.35-2.83-3.62s1.13-3.63 2.83-3.63 2.83 1.37 2.83 3.63-1.12 3.62-2.83 3.62zm0-6.26c-1 0-1.6.87-1.6 2.64s.59 2.65 1.6 2.65 1.61-.84 1.61-2.65-.59-2.64-1.61-2.64zM19.79 585.33h-2.1a.31.31 0 0 1-.31-.3v-9.28a.3.3 0 0 1 .31-.3h2c2.71 0 3.85 1.64 3.85 4.82.05 3.39-.94 5.06-3.75 5.06zm1.71-8.14a2.34 2.34 0 0 0-1.76-.69h-1.16v7.75h1.16c1.45 0 2.55-.44 2.55-3.77 0-1.87-.29-2.7-.79-3.29zM28 585.4c-1.71 0-2.83-1.35-2.83-3.62s1.12-3.63 2.83-3.63 2.83 1.37 2.83 3.63-1.15 3.62-2.83 3.62zm0-6.26c-1 0-1.61.87-1.61 2.64s.59 2.65 1.61 2.65 1.6-.84 1.6-2.65-.6-2.64-1.6-2.64zM39.69 585.06a.33.33 0 0 1-.34.27h-1.08c-.17 0-.26-.06-.31-.27l-1.12-4.51a10.81 10.81 0 0 1-.25-1.51 10.57 10.57 0 0 1-.25 1.51l-1.12 4.51a.32.32 0 0 1-.34.27h-1.09c-.18 0-.26-.06-.31-.27l-1.63-6.48a.26.26 0 0 1 .23-.36h.69c.2 0 .3.08.34.3l1.06 4.63a11.11 11.11 0 0 1 .21 1.57 15 15 0 0 1 .27-1.56l1.18-4.66a.33.33 0 0 1 .35-.28H37a.36.36 0 0 1 .37.3l1.2 4.64a12.05 12.05 0 0 1 .25 1.56c.06-.48.11-1.06.22-1.56l1-4.66a.34.34 0 0 1 .35-.28h.65a.24.24 0 0 1 .24.34zM47.55 585.33H47a.3.3 0 0 1-.31-.3v-4.77c0-.78-.27-1.11-.92-1.11a1.76 1.76 0 0 0-1.72 1.85v4a.3.3 0 0 1-.31.3h-.56a.31.31 0 0 1-.31-.3v-6.51a.3.3 0 0 1 .31-.3h.33c.2 0 .29.06.34.24l.16.72a2.56 2.56 0 0 1 2-1 1.72 1.72 0 0 1 1.85 1.85v5a.31.31 0 0 1-.31.33zM52.5 585.3a3.08 3.08 0 0 1-.81.1c-1 0-1.48-.45-1.48-1.4v-4.83h-.73a.3.3 0 0 1-.3-.31v-.33a.3.3 0 0 1 .3-.31h.73v-1.48a.33.33 0 0 1 .23-.33l.54-.19c.18-.06.39-.07.39.16v1.84h.88a.31.31 0 0 1 .29.31v.33a.31.31 0 0 1-.29.31h-.88v4.68c0 .4.16.58.53.58a2.66 2.66 0 0 0 .45-.06.26.26 0 0 1 .31.24l.06.31a.29.29 0 0 1-.22.38zM56.51 585.4c-1.71 0-2.83-1.35-2.83-3.62s1.12-3.63 2.83-3.63 2.83 1.37 2.83 3.63-1.12 3.62-2.83 3.62zm0-6.26c-1 0-1.61.87-1.61 2.64s.59 2.65 1.61 2.65 1.61-.84 1.61-2.65-.59-2.64-1.61-2.64zM68.23 585.06a.32.32 0 0 1-.34.27h-1.08c-.17 0-.26-.06-.31-.27l-1.12-4.51a12.51 12.51 0 0 1-.25-1.51 9.32 9.32 0 0 1-.25 1.51l-1.12 4.51a.31.31 0 0 1-.34.27h-1.09c-.17 0-.26-.06-.31-.27l-1.63-6.48a.26.26 0 0 1 .23-.36h.7c.19 0 .29.08.34.3l1.06 4.63a12.73 12.73 0 0 1 .2 1.57c.08-.48.14-1.06.27-1.56l1.18-4.66a.33.33 0 0 1 .35-.28h.86a.38.38 0 0 1 .37.3l1.19 4.64a12.05 12.05 0 0 1 .25 1.56c.06-.48.12-1.06.22-1.56l1-4.66a.34.34 0 0 1 .36-.28h.65a.24.24 0 0 1 .23.34zM76.09 585.33h-.56a.31.31 0 0 1-.31-.3v-4.77c0-.78-.27-1.11-.92-1.11a1.76 1.76 0 0 0-1.71 1.85v4a.3.3 0 0 1-.3.3h-.57a.3.3 0 0 1-.3-.3v-6.51a.29.29 0 0 1 .3-.3h.33c.21 0 .29.06.34.24l.16.72a2.56 2.56 0 0 1 2-1A1.72 1.72 0 0 1 76.4 580v5a.31.31 0 0 1-.31.33zM8 602.6a7.21 7.21 0 0 1-2.29-.41.28.28 0 0 1-.2-.37l.14-.57a.28.28 0 0 1 .39-.21 5.9 5.9 0 0 0 2 .43 1.58 1.58 0 0 0 1.79-1.65 1.7 1.7 0 0 0-1.27-1.68l-.69-.3c-1.08-.45-2.2-1-2.2-2.64s1.06-2.62 3-2.62a6.3 6.3 0 0 1 1.79.31.31.31 0 0 1 .18.38l-.12.47a.31.31 0 0 1-.34.24 4.66 4.66 0 0 0-1.51-.28c-1.21 0-1.71.55-1.71 1.46s.69 1.22 1.51 1.58l.82.35a2.6 2.6 0 0 1 1.85 2.68A2.75 2.75 0 0 1 8 602.6zM17.4 602.53h-.6a.3.3 0 0 1-.33-.27l-.11-.73a2.25 2.25 0 0 1-2 1.07 1.83 1.83 0 0 1-1.89-2.06 2.08 2.08 0 0 1 2.14-2.26l1.72-.1v-.38c0-.93-.23-1.39-1.34-1.39a5 5 0 0 0-1.4.25.28.28 0 0 1-.37-.22l-.09-.47a.27.27 0 0 1 .21-.35 6.88 6.88 0 0 1 1.71-.27c2.23 0 2.43 1.43 2.43 2.61v2.61a5.85 5.85 0 0 0 .09 1.22l.09.44a.23.23 0 0 1-.26.3zM16.31 599l-1 .05c-1 0-1.67.28-1.67 1.47 0 .77.38 1.12 1 1.12a1.68 1.68 0 0 0 1.65-1.47zM23.74 602.43a4.35 4.35 0 0 1-1.34.17c-1.72 0-2.87-1.31-2.87-3.68 0-2.09 1.22-3.57 2.86-3.57a3.31 3.31 0 0 1 1.25.25c.19.09.28.21.22.37l-.15.43a.24.24 0 0 1-.37.17 3 3 0 0 0-1-.2c-.91 0-1.56 1-1.56 2.55 0 1.74.58 2.59 1.7 2.59a4.31 4.31 0 0 0 1-.13.28.28 0 0 1 .37.22l.1.46a.32.32 0 0 1-.21.37zM29 596.47a.31.31 0 0 1-.43.27 3.29 3.29 0 0 0-.83-.17c-.42 0-1 .54-1 1.82v3.84a.31.31 0 0 1-.31.3h-.56a.31.31 0 0 1-.31-.3v-6.51a.3.3 0 0 1 .31-.3h.34a.3.3 0 0 1 .31.23l.21.79a1.93 1.93 0 0 1 1.65-1.09c.47 0 .84.22.76.52zM34.59 602.53H34a.29.29 0 0 1-.32-.27l-.12-.73a2.24 2.24 0 0 1-2 1.07 1.83 1.83 0 0 1-1.89-2.06 2.08 2.08 0 0 1 2.14-2.26l1.72-.1v-.38c0-.93-.23-1.39-1.34-1.39a5 5 0 0 0-1.4.25.28.28 0 0 1-.37-.22l-.12-.44c0-.18 0-.31.21-.35a6.88 6.88 0 0 1 1.71-.27c2.23 0 2.43 1.43 2.43 2.61v2.61a5.85 5.85 0 0 0 .09 1.22l.09.44a.23.23 0 0 1-.24.27zM33.5 599l-1 .05c-1 0-1.67.28-1.67 1.47 0 .77.38 1.12 1 1.12a1.68 1.68 0 0 0 1.65-1.47zM45.64 602.53h-.56a.3.3 0 0 1-.31-.3v-4.77c0-.78-.27-1.11-.92-1.11a1.76 1.76 0 0 0-1.71 1.83v4.05a.3.3 0 0 1-.31.3h-.56a.31.31 0 0 1-.31-.3v-4.77c0-.78-.26-1.11-.91-1.11a1.76 1.76 0 0 0-1.71 1.83v4.05a.31.31 0 0 1-.31.3h-.56a.31.31 0 0 1-.31-.3v-6.51a.3.3 0 0 1 .31-.3h.32c.21 0 .3.06.34.24l.16.72a2.57 2.57 0 0 1 2-1 1.67 1.67 0 0 1 1.71 1.09 2.59 2.59 0 0 1 2.11-1.12 1.72 1.72 0 0 1 1.89 1.84v5a.31.31 0 0 1-.36.34zM53 599.27h-3.77c.06 1.49.58 2.3 1.91 2.3a4.61 4.61 0 0 0 1.4-.23.29.29 0 0 1 .38.19l.13.37a.28.28 0 0 1-.19.38 3.85 3.85 0 0 1-1.71.32c-2 0-3.14-1.28-3.14-3.67 0-2.22 1.09-3.58 2.67-3.58 1.36 0 2.61.83 2.61 3.61a.31.31 0 0 1-.29.31zm-2.28-3c-.49 0-1.3.28-1.48 2h2.85c-.04-.93-.41-1.98-1.38-1.98zM60 602.53h-.56a.31.31 0 0 1-.31-.3v-4.77c0-.78-.26-1.11-.91-1.11a1.76 1.76 0 0 0-1.71 1.83v4.05a.31.31 0 0 1-.31.3h-.56a.31.31 0 0 1-.31-.3v-6.51a.3.3 0 0 1 .31-.3h.32c.21 0 .3.06.34.24l.16.72a2.57 2.57 0 0 1 2-1 1.72 1.72 0 0 1 1.81 1.84v5a.31.31 0 0 1-.27.31zM64.91 602.5a3.08 3.08 0 0 1-.81.1c-1 0-1.48-.45-1.48-1.4v-4.83h-.74a.3.3 0 0 1-.29-.31v-.33a.3.3 0 0 1 .29-.31h.74v-1.48a.33.33 0 0 1 .22-.33l.55-.19c.17-.06.38-.07.38.16v1.84h.89a.31.31 0 0 1 .29.31v.33a.31.31 0 0 1-.29.31h-.89v4.69c0 .39.16.57.53.57a2.77 2.77 0 0 0 .46-.06.27.27 0 0 1 .31.24l.06.31a.3.3 0 0 1-.22.38zM68.92 602.6c-1.71 0-2.83-1.35-2.83-3.62s1.12-3.63 2.83-3.63 2.83 1.37 2.83 3.63-1.12 3.62-2.83 3.62zm0-6.26c-1 0-1.61.87-1.61 2.64s.59 2.65 1.61 2.65 1.6-.84 1.6-2.65-.59-2.64-1.6-2.64z"/></g><g fill="#3b3b3d"><path d="M437.78 1.64h-2.25v8.5a.31.31 0 0 1-.3.3h-.58a.32.32 0 0 1-.31-.3v-8.5h-2.24a.3.3 0 0 1-.32-.3V.85a.3.3 0 0 1 .32-.29h5.68a.28.28 0 0 1 .29.29v.49a.29.29 0 0 1-.29.3zM440.68 10.51c-1.71 0-2.83-1.36-2.83-3.63s1.12-3.62 2.83-3.62 2.83 1.37 2.83 3.62-1.12 3.63-2.83 3.63zm0-6.26c-1 0-1.61.86-1.61 2.63s.59 2.66 1.61 2.66 1.61-.84 1.61-2.66-.59-2.63-1.61-2.63zM455.28 10.44h-1a.4.4 0 0 1-.35-.24l-3.13-7a14.07 14.07 0 0 1-.64-1.93c.07.63.17 1.62.17 2.18v6.68a.31.31 0 0 1-.31.28h-.51a.31.31 0 0 1-.31-.28V.84c0-.19.13-.28.31-.28h1.12a.34.34 0 0 1 .34.21l3.06 7c.3.66.46 1.33.64 1.83a16.56 16.56 0 0 1-.18-2.17V.84a.3.3 0 0 1 .31-.28h.52a.29.29 0 0 1 .3.28v9.32a.3.3 0 0 1-.34.28zM460.41 10.51c-1.71 0-2.83-1.36-2.83-3.63s1.12-3.62 2.83-3.62 2.83 1.37 2.83 3.62-1.12 3.63-2.83 3.63zm0-6.26c-1 0-1.61.86-1.61 2.63s.59 2.66 1.61 2.66S462 8.7 462 6.88s-.58-2.63-1.59-2.63zM468.66 4.38a.3.3 0 0 1-.42.26 3.31 3.31 0 0 0-.83-.16c-.43 0-1 .53-1 1.81v3.85a.32.32 0 0 1-.31.3h-.56a.32.32 0 0 1-.31-.3V3.63a.3.3 0 0 1 .31-.3h.34a.32.32 0 0 1 .31.22l.2.8A2 2 0 0 1 468 3.26c.48 0 .84.22.77.51zM472.81 10.41a3.14 3.14 0 0 1-.81.1c-1 0-1.48-.46-1.48-1.4V4.27h-.74a.29.29 0 0 1-.29-.3v-.33a.3.3 0 0 1 .29-.31h.74V1.84a.32.32 0 0 1 .22-.32l.55-.19c.17-.06.38-.08.38.16v1.84h.88a.31.31 0 0 1 .3.31V4a.3.3 0 0 1-.3.3h-.88V9c0 .4.16.58.53.58a2.77 2.77 0 0 0 .46-.06.26.26 0 0 1 .31.23l.03.25a.31.31 0 0 1-.19.41zM479.1 10.44h-.53a.32.32 0 0 1-.31-.3V5.37c0-.79-.29-1.11-.94-1.11a1.78 1.78 0 0 0-1.74 1.83v4.05a.32.32 0 0 1-.31.3h-.53a.32.32 0 0 1-.31-.3V.29a.3.3 0 0 1 .31-.29h.53a.3.3 0 0 1 .31.29v4a2.57 2.57 0 0 1 2-1 1.71 1.71 0 0 1 1.81 1.84v5a.32.32 0 0 1-.29.31zM434.11 27.64h-.56a.32.32 0 0 1-.31-.3v-4.41h-3.73v4.41a.31.31 0 0 1-.31.3h-.56a.32.32 0 0 1-.31-.3v-9.28a.3.3 0 0 1 .31-.3h.56a.3.3 0 0 1 .31.3v3.81h3.73v-3.81a.3.3 0 0 1 .31-.3h.56a.3.3 0 0 1 .31.3v9.28a.32.32 0 0 1-.31.3zM437.5 18.84a.86.86 0 0 1-.85-.86.86.86 0 0 1 1.71 0 .86.86 0 0 1-.86.86zm.27 8.8h-.53a.32.32 0 0 1-.31-.3v-6.51a.31.31 0 0 1 .31-.3h.53a.31.31 0 0 1 .31.3v6.51a.32.32 0 0 1-.31.3zM445.6 21.49h-.81a2.62 2.62 0 0 1 .56 1.49 2.39 2.39 0 0 1-2.6 2.55 3.08 3.08 0 0 1-.75-.09.77.77 0 0 0-.29.52c0 .34.23.43.85.43h1.15a1.89 1.89 0 0 1 2.15 1.9c0 1.67-1.53 2.28-2.87 2.28s-2.85-.44-2.85-2a.3.3 0 0 1 .31-.3h.65a.32.32 0 0 1 .31.29c.1.84.91 1 1.62 1 .87 0 1.67-.4 1.67-1.09s-.34-1-1.17-1h-1.4c-.88 0-1.56-.32-1.56-1.11a1.66 1.66 0 0 1 .65-1.23 2.44 2.44 0 0 1-1.08-2.13 2.41 2.41 0 0 1 2.6-2.56c.32 0 .59.07.9.07h2a.3.3 0 0 1 .29.31v.37a.28.28 0 0 1-.33.3zm-2.85-.15c-.75 0-1.38.27-1.38 1.64s.63 1.68 1.38 1.68 1.39-.31 1.39-1.68-.64-1.64-1.39-1.64zM452.45 27.64h-.53a.32.32 0 0 1-.31-.3v-4.77c0-.78-.29-1.11-.94-1.11a1.78 1.78 0 0 0-1.74 1.83v4.05a.32.32 0 0 1-.31.3h-.53a.32.32 0 0 1-.31-.3V17.5a.3.3 0 0 1 .31-.3h.53a.3.3 0 0 1 .31.3v4a2.57 2.57 0 0 1 2-1 1.72 1.72 0 0 1 1.81 1.84v5a.32.32 0 0 1-.29.3zM456.11 27.64h-.53a.32.32 0 0 1-.31-.3V17.5a.31.31 0 0 1 .31-.3h.53a.31.31 0 0 1 .31.3v9.84a.32.32 0 0 1-.31.3zM463.21 27.64h-.6a.3.3 0 0 1-.32-.27l-.12-.74a2.23 2.23 0 0 1-2 1.08 1.83 1.83 0 0 1-1.89-2.06 2.08 2.08 0 0 1 2.14-2.26l1.72-.1v-.38c0-.93-.23-1.39-1.34-1.39a5 5 0 0 0-1.4.25.29.29 0 0 1-.37-.22l-.09-.47c0-.18 0-.31.21-.36a7.44 7.44 0 0 1 1.71-.26c2.23 0 2.43 1.43 2.43 2.61v2.61a5.85 5.85 0 0 0 .09 1.22l.09.44a.23.23 0 0 1-.26.3zm-1.09-3.51h-1c-1 0-1.67.28-1.67 1.48 0 .76.38 1.12 1 1.12a1.68 1.68 0 0 0 1.65-1.48zM470.45 27.64h-.56a.32.32 0 0 1-.31-.3v-4.77c0-.78-.26-1.11-.91-1.11a1.76 1.76 0 0 0-1.67 1.83v4.05a.32.32 0 0 1-.31.3h-.56a.32.32 0 0 1-.31-.3v-6.51a.3.3 0 0 1 .31-.3h.32c.21 0 .3.06.34.24l.17.72a2.51 2.51 0 0 1 2-1 1.72 1.72 0 0 1 1.81 1.84v5a.31.31 0 0 1-.32.31zM477.82 27.64h-.31a.34.34 0 0 1-.38-.3l-.12-.63a1.8 1.8 0 0 1-1.72 1c-1.52 0-2.46-1.21-2.46-3.6 0-1.56.51-3.65 2.5-3.65a1.7 1.7 0 0 1 1.65 1V17.5a.3.3 0 0 1 .31-.3h.53a.3.3 0 0 1 .31.3v9.84a.31.31 0 0 1-.31.3zm-2.24-6.21c-1.29 0-1.5 1.74-1.5 2.67 0 1.89.56 2.64 1.49 2.64s1.43-.84 1.43-2.61-.52-2.7-1.42-2.7zM482 27.71a4.87 4.87 0 0 1-2-.41.3.3 0 0 1-.17-.4l.14-.44a.25.25 0 0 1 .38-.19 3.81 3.81 0 0 0 1.64.39c.73 0 1.07-.32 1.07-.92s-.54-.92-1.26-1.29-1.76-.88-1.76-2 .87-2 2.26-2a3.31 3.31 0 0 1 1.51.31.3.3 0 0 1 .14.4l-.14.36c-.05.18-.2.21-.36.15a3.43 3.43 0 0 0-1.2-.26c-.66 0-1 .35-1 .84s.56.85 1.2 1.19c.95.5 1.85.94 1.85 2.23a2.06 2.06 0 0 1-2.3 2.04z"/></g><g fill="#3b3b3d"><path d="M214.16 152.9h-.78a.26.26 0 0 1-.28-.25l-.38-6.85c0-.36-.05-1.51-.05-2a16.62 16.62 0 0 1-.31 2l-1.57 5.81c-.06.21-.14.3-.31.3h-.87c-.18 0-.25-.09-.31-.3l-1.58-5.81a18 18 0 0 1-.32-2v2l-.43 6.86c0 .16-.1.26-.25.26H206a.24.24 0 0 1-.23-.29l.75-9.3a.32.32 0 0 1 .34-.28h1.13a.33.33 0 0 1 .3.23l1.6 6.15a11.55 11.55 0 0 1 .22 1.65 9.88 9.88 0 0 1 .23-1.67l1.6-6.13a.32.32 0 0 1 .31-.23h1.11a.29.29 0 0 1 .32.28l.74 9.34c-.04.13-.1.23-.26.23zM220.43 152.8a4.35 4.35 0 0 1-1.34.18c-1.73 0-2.88-1.32-2.88-3.69 0-2.09 1.23-3.57 2.86-3.57a3.35 3.35 0 0 1 1.26.26c.19.08.28.2.22.36l-.15.43a.25.25 0 0 1-.37.18 2.82 2.82 0 0 0-1-.21c-.92 0-1.56 1-1.56 2.55 0 1.74.57 2.6 1.69 2.6a3.77 3.77 0 0 0 1-.14.28.28 0 0 1 .37.22l.11.46a.33.33 0 0 1-.21.37zM227.61 152.58a3.8 3.8 0 0 1-1.81.4c-2.36 0-3.73-1.85-3.73-5.09s1.56-4.94 3.81-4.94a3.27 3.27 0 0 1 1.7.39.3.3 0 0 1 .12.42l-.24.46a.27.27 0 0 1-.4.12 2.51 2.51 0 0 0-1.13-.28c-1.65 0-2.54 1.15-2.54 3.85s1.05 3.93 2.51 3.93a3.42 3.42 0 0 0 1.21-.28.26.26 0 0 1 .37.1l.26.56a.27.27 0 0 1-.13.36zM230.28 152.9h-.53a.31.31 0 0 1-.31-.29v-9.85a.31.31 0 0 1 .31-.29h.53a.31.31 0 0 1 .31.29v9.85a.31.31 0 0 1-.31.29zM237.63 149.65h-3.75c.05 1.48.57 2.29 1.9 2.29a4.56 4.56 0 0 0 1.4-.23.29.29 0 0 1 .38.19l.13.37a.28.28 0 0 1-.19.38 3.82 3.82 0 0 1-1.71.33c-2 0-3.14-1.29-3.14-3.67 0-2.23 1.09-3.59 2.67-3.59 1.36 0 2.61.83 2.61 3.62a.31.31 0 0 1-.3.31zm-2.28-3c-.49 0-1.3.28-1.47 2h2.84c-.03-.94-.4-1.98-1.37-1.98zM240.76 152.9h-.53a.31.31 0 0 1-.31-.29v-9.85a.31.31 0 0 1 .31-.29h.53a.31.31 0 0 1 .31.29v9.85a.31.31 0 0 1-.31.29zM244.42 152.9h-.53a.3.3 0 0 1-.31-.29v-9.85a.3.3 0 0 1 .31-.29h.53a.31.31 0 0 1 .31.29v9.85a.31.31 0 0 1-.31.29zM251.52 152.9h-.6a.3.3 0 0 1-.33-.26l-.11-.74a2.26 2.26 0 0 1-2 1.08 1.84 1.84 0 0 1-1.89-2.07 2.08 2.08 0 0 1 2.14-2.25l1.72-.11v-.38c0-.93-.23-1.38-1.34-1.38a4.69 4.69 0 0 0-1.4.25.29.29 0 0 1-.37-.22l-.09-.48a.27.27 0 0 1 .21-.35 7.38 7.38 0 0 1 1.71-.27c2.23 0 2.43 1.43 2.43 2.61v2.61a5.94 5.94 0 0 0 .09 1.23l.09.44a.23.23 0 0 1-.26.29zm-1.09-3.51l-1 .05c-.95 0-1.66.28-1.66 1.47 0 .77.38 1.12 1 1.12a1.68 1.68 0 0 0 1.65-1.47zM258.76 152.9h-.56a.31.31 0 0 1-.31-.29v-4.78c0-.78-.26-1.1-.91-1.1a1.75 1.75 0 0 0-1.71 1.82v4.06a.31.31 0 0 1-.31.29h-.56a.31.31 0 0 1-.31-.29v-6.52a.3.3 0 0 1 .31-.29h.32c.21 0 .3.06.34.23l.16.73a2.56 2.56 0 0 1 2-1 1.72 1.72 0 0 1 1.81 1.85v5a.31.31 0 0 1-.27.29zM193.13 170.1h-.62a.31.31 0 0 1-.31-.29v-9.29a.3.3 0 0 1 .31-.29h.62a.3.3 0 0 1 .31.29v9.29a.31.31 0 0 1-.31.29zM200.62 170.1h-.56a.31.31 0 0 1-.31-.29V165c0-.78-.26-1.1-.91-1.1a1.76 1.76 0 0 0-1.71 1.83v4.05a.31.31 0 0 1-.31.29h-.56a.31.31 0 0 1-.31-.29v-6.52a.3.3 0 0 1 .31-.29h.32c.21 0 .3.06.34.23l.16.73a2.54 2.54 0 0 1 2-1 1.71 1.71 0 0 1 1.81 1.84v5a.31.31 0 0 1-.27.33zM208 170.1h-.31c-.22 0-.34-.08-.38-.29l-.12-.64a1.81 1.81 0 0 1-1.72 1c-1.52 0-2.46-1.21-2.46-3.6 0-1.56.51-3.65 2.5-3.65a1.72 1.72 0 0 1 1.65 1V160a.3.3 0 0 1 .31-.29h.53a.3.3 0 0 1 .31.29v9.85a.31.31 0 0 1-.31.25zm-2.24-6.2c-1.29 0-1.5 1.74-1.5 2.67 0 1.88.56 2.63 1.49 2.63s1.44-.84 1.44-2.6-.54-2.7-1.44-2.7zM215.54 170.1h-.34a.28.28 0 0 1-.29-.25l-.19-.76a2.59 2.59 0 0 1-2.16 1.09 1.65 1.65 0 0 1-1.75-1.87v-5a.3.3 0 0 1 .31-.29h.56a.3.3 0 0 1 .31.29v4.87c0 .72.34 1 .9 1 1 0 1.78-.75 1.78-2.31v-3.59a.3.3 0 0 1 .33-.28h.56a.3.3 0 0 1 .31.29v6.52a.31.31 0 0 1-.33.29zM219.74 170.18a4.75 4.75 0 0 1-2-.42.29.29 0 0 1-.16-.39l.13-.45a.27.27 0 0 1 .39-.19 3.63 3.63 0 0 0 1.63.4c.74 0 1.08-.32 1.08-.93s-.55-.91-1.27-1.28-1.75-.88-1.75-2 .87-2 2.25-2a3.48 3.48 0 0 1 1.52.3.3.3 0 0 1 .13.4l-.13.37a.25.25 0 0 1-.37.15 3.31 3.31 0 0 0-1.19-.27c-.66 0-1 .36-1 .84s.56.86 1.21 1.2c.94.5 1.84.94 1.84 2.22a2.05 2.05 0 0 1-2.31 2.05zM226.1 170.07a3 3 0 0 1-.81.11c-1 0-1.48-.46-1.48-1.4v-4.84h-.73a.3.3 0 0 1-.3-.31v-.32a.3.3 0 0 1 .3-.31h.73v-1.49a.32.32 0 0 1 .22-.32l.55-.2c.18-.05.38-.07.38.17V163h.89a.31.31 0 0 1 .29.31v.32a.31.31 0 0 1-.29.31H225v4.69c0 .4.16.57.53.57a4.28 4.28 0 0 0 .46 0 .26.26 0 0 1 .31.23l.06.31a.29.29 0 0 1-.26.33zM231.15 164.05a.3.3 0 0 1-.42.26 3.31 3.31 0 0 0-.83-.16c-.43 0-1 .53-1 1.81v3.85a.31.31 0 0 1-.31.29H228a.31.31 0 0 1-.31-.29v-6.52a.3.3 0 0 1 .31-.29h.34a.3.3 0 0 1 .31.22l.2.8a1.94 1.94 0 0 1 1.66-1.09c.47 0 .84.22.76.51zM233.15 161.3a.86.86 0 1 1 .85-.85.85.85 0 0 1-.85.85zm.26 8.8h-.53a.31.31 0 0 1-.31-.29v-6.52a.31.31 0 0 1 .31-.29h.53a.31.31 0 0 1 .31.29v6.52a.31.31 0 0 1-.31.29zM240.52 170.1h-.61a.29.29 0 0 1-.32-.26l-.12-.74a2.25 2.25 0 0 1-2 1.08 1.84 1.84 0 0 1-1.89-2.07 2.08 2.08 0 0 1 2.14-2.25l1.73-.1v-.39c0-.93-.24-1.38-1.35-1.38a4.69 4.69 0 0 0-1.4.25.28.28 0 0 1-.36-.22l-.09-.48a.27.27 0 0 1 .2-.35 7.44 7.44 0 0 1 1.71-.26c2.23 0 2.44 1.42 2.44 2.6v2.61a6.67 6.67 0 0 0 .08 1.23l.09.44a.22.22 0 0 1-.25.29zm-1.09-3.5h-1c-1 0-1.67.28-1.67 1.47 0 .77.39 1.12 1 1.12a1.68 1.68 0 0 0 1.66-1.47zM243.92 170.1h-.53a.31.31 0 0 1-.31-.29V160a.31.31 0 0 1 .31-.29h.53a.31.31 0 0 1 .31.29v9.85a.31.31 0 0 1-.31.25zM252.75 166h-1.16v3.82a.31.31 0 0 1-.31.29h-.57a.3.3 0 0 1-.31-.29v-9.29a.3.3 0 0 1 .31-.29h2c2 0 3.11 1.13 3.11 2.81a2.81 2.81 0 0 1-3.07 2.95zm.05-4.7h-1.21v3.7h1.21a1.72 1.72 0 0 0 1.78-1.88 1.61 1.61 0 0 0-1.78-1.83zM261.44 170.1h-.61a.29.29 0 0 1-.32-.26l-.12-.74a2.25 2.25 0 0 1-2 1.08 1.84 1.84 0 0 1-1.89-2.07 2.08 2.08 0 0 1 2.14-2.25l1.73-.1v-.39c0-.93-.24-1.38-1.35-1.38a4.69 4.69 0 0 0-1.4.25.28.28 0 0 1-.36-.22l-.09-.48a.27.27 0 0 1 .2-.35 7.44 7.44 0 0 1 1.71-.26c2.23 0 2.44 1.42 2.44 2.6v2.61a6.67 6.67 0 0 0 .08 1.23l.09.44a.22.22 0 0 1-.25.29zm-1.09-3.5h-1c-1 0-1.67.28-1.67 1.47 0 .77.39 1.12 1 1.12a1.68 1.68 0 0 0 1.66-1.47zM267.44 164.05a.31.31 0 0 1-.43.26 3.31 3.31 0 0 0-.83-.16c-.42 0-1 .53-1 1.81v3.85a.31.31 0 0 1-.31.29h-.56a.31.31 0 0 1-.31-.29v-6.52a.3.3 0 0 1 .31-.29h.34a.29.29 0 0 1 .31.22l.21.8a1.91 1.91 0 0 1 1.65-1.09c.47 0 .84.22.76.51zM273.53 170.1h-.9a.43.43 0 0 1-.36-.25l-2.27-3.67v3.63a.3.3 0 0 1-.31.29h-.53a.31.31 0 0 1-.31-.29V160a.3.3 0 0 1 .31-.29h.53a.3.3 0 0 1 .31.29v6.09l1.86-2.83a.42.42 0 0 1 .38-.22h.8a.2.2 0 0 1 .16.35l-2 2.71 2.49 3.69c.1.11.04.31-.16.31z"/></g><g fill="#3b3b3d"><path d="M233.39 303.94l-.92 1.18a.72.72 0 0 1-.9.26 23 23 0 0 0-3.17-1.08 1.93 1.93 0 0 0-2 .46l-.27.35 3.56 2.79a.48.48 0 0 1 .07.66l-.83 1.07a.5.5 0 0 1-.67.1l-8.34-6.53a.48.48 0 0 1-.07-.66l1.93-2.48c1.85-2.36 3.62-1.76 4.6-1a2.64 2.64 0 0 1 .76 3.49 2.61 2.61 0 0 1 2.05-.38c.93.2 3.1.85 3.87 1.08.42.13.62.33.33.69zm-10.07-2.59l-.75 1 2.22 1.73.65-.82a1.42 1.42 0 0 0-.26-2.13 1.27 1.27 0 0 0-1.86.22zM236.78 299.8c-1.72 2.21-4.22 2.05-7.25-.32s-3.8-4.72-2.06-7 4.26-2 7.24.31 3.8 4.8 2.07 7.01zm-7.89-6.16c-1 1.24.28 2.52 2.11 3.95 2 1.56 3.35 2.3 4.32 1.07s-.09-2.38-2.08-3.94c-1.83-1.43-3.37-2.33-4.35-1.08zM242.11 293a8.51 8.51 0 0 1-2.23 2 .5.5 0 0 1-.63-.14l-.71-.86a.45.45 0 0 1 .14-.65 6.79 6.79 0 0 0 1.8-1.5 1.19 1.19 0 0 0-.17-1.9c-.7-.55-1.49-.19-2.38.25-1.25.62-2.74 1.38-4.52 0-1.49-1.16-1.69-3.06-.36-4.77a6.59 6.59 0 0 1 1.84-1.62.43.43 0 0 1 .59.16l.65.82a.36.36 0 0 1-.13.59 4.27 4.27 0 0 0-1.41 1.16 1.08 1.08 0 0 0 .19 1.71c.56.43 1.34 0 2.29-.44 1.26-.59 2.82-1.21 4.54.14s1.86 3.28.5 5.05zM249 284l-3.34 4.28a.5.5 0 0 1-.68.08l-8.32-6.5a.49.49 0 0 1-.08-.67l3.34-4.28a.49.49 0 0 1 .68-.09l.8.63a.49.49 0 0 1 .08.67l-2.23 2.88 2 1.53 2-2.56a.5.5 0 0 1 .68-.08l.73.57a.49.49 0 0 1 .08.67l-2 2.57 2.44 1.9 2.22-2.83a.49.49 0 0 1 .67-.08l.87.67a.5.5 0 0 1 .06.64zM253.34 277.71a.63.63 0 0 1 0 .74l-1.27 1.55a.61.61 0 0 1-.7.21l-10.08-4.14a.42.42 0 0 1-.23-.68l1-1.24a.6.6 0 0 1 .77-.18l6.56 3a18.74 18.74 0 0 1 2.33 1.36 21.33 21.33 0 0 1-1.86-1.95l-4.53-5.57a.6.6 0 0 1 0-.83l.86-1.1c.21-.27.52-.2.72.06zM257.33 273.31l-.88 1.12a.5.5 0 0 1-.68.09l-8.32-6.5a.5.5 0 0 1-.08-.68l.88-1.13a.49.49 0 0 1 .67-.08l8.32 6.5a.49.49 0 0 1 .09.68zM262.21 267.06l-3.06 3.94a.5.5 0 0 1-.68.08l-8.32-6.5a.5.5 0 0 1-.08-.68l.84-1.07a.49.49 0 0 1 .67-.08l7.07 5.53 1.93-2.47a.5.5 0 0 1 .68-.08l.86.67a.49.49 0 0 1 .09.66zM266.77 261.22l-3.06 3.91a.48.48 0 0 1-.67.09l-8.32-6.5a.49.49 0 0 1-.09-.68l.84-1.07a.49.49 0 0 1 .67-.08l7.08 5.53 1.93-2.47a.49.49 0 0 1 .67-.08l.87.67a.5.5 0 0 1 .08.68zM271.62 255l-3.34 4.28a.5.5 0 0 1-.68.09l-8.32-6.5a.5.5 0 0 1-.08-.68l3.34-4.28a.5.5 0 0 1 .68-.09l.8.63a.5.5 0 0 1 .08.68l-2.21 2.87 2 1.53 2-2.56a.5.5 0 0 1 .68-.08l.73.57a.5.5 0 0 1 .08.68l-2 2.56 2.44 1.9 2.22-2.83a.49.49 0 0 1 .67-.08l.87.67a.5.5 0 0 1 .04.64zM280.39 243.79l-.92 1.18a.73.73 0 0 1-.9.26 23 23 0 0 0-3.17-1.09 1.94 1.94 0 0 0-2 .47l-.27.35 3.56 2.78a.49.49 0 0 1 .07.67l-.84 1.07a.49.49 0 0 1-.66.09l-8.35-6.52a.49.49 0 0 1-.07-.66l1.94-2.48c1.84-2.36 3.62-1.76 4.6-1a2.65 2.65 0 0 1 .76 3.5 2.62 2.62 0 0 1 2-.39c.93.21 3.11.86 3.87 1.08.47.13.66.32.38.69zm-10.07-2.59l-.75 1 2.22 1.73.65-.83a1.42 1.42 0 0 0-.26-2.12 1.26 1.26 0 0 0-1.86.22zM283.68 239.57l-2 2.54a.49.49 0 0 1-.67.08l-8.32-6.5a.5.5 0 0 1-.09-.68l1.91-2.44c1-1.28 3-2.95 7.11.26 2.69 2.08 4.05 4.17 2.06 6.74zm-7.91-5.57l-.54.69 6.06 4.73.49-.62c1-1.33.68-2.33-1.65-4.15-2.02-1.55-3.35-1.91-4.36-.65zM287.93 234.33a1.38 1.38 0 1 1-.24-1.93 1.37 1.37 0 0 1 .24 1.93z"/></g><g fill="#3b3b3d"><path d="M338.86 441.4h-5a.5.5 0 0 1-.49-.48l-.06-10.56a.49.49 0 0 1 .48-.48h1.36a.49.49 0 0 1 .48.48v9h3.13a.5.5 0 0 1 .49.48v1.1a.49.49 0 0 1-.39.46zM344.17 441.49c-2.8 0-4.22-2-4.25-5.89s1.34-5.91 4.18-5.93 4.23 2.09 4.25 5.88-1.35 5.92-4.18 5.94zm-.06-10c-1.58 0-1.81 1.78-1.8 4.1 0 2.53.28 4.06 1.85 4.05s1.81-1.54 1.8-4.07c.04-2.33-.27-4.1-1.85-4.09zM357.62 441.29h-2.08a.54.54 0 0 1-.54-.39l-2.35-6.15c-.28-.7-.51-1.83-.8-2.88.13 1.07.35 2.59.35 3.45v5.52a.48.48 0 0 1-.47.47h-1.24a.5.5 0 0 1-.49-.46l-.06-10.6a.48.48 0 0 1 .48-.46h2a.85.85 0 0 1 .75.4l2.13 5.76c.26.72.47 1.68.79 2.8-.11-1.12-.2-2.37-.21-3.23v-5.28a.49.49 0 0 1 .48-.47h1.2a.51.51 0 0 1 .49.47l.06 10.59a.49.49 0 0 1-.49.46zM367.16 440.94a8.13 8.13 0 0 1-2.5.43c-3.7 0-4.92-2.47-4.94-5.91s1.75-5.89 4.71-5.91a6.58 6.58 0 0 1 3 .67.45.45 0 0 1 .23.62l-.41.88a.43.43 0 0 1-.62.23 4.61 4.61 0 0 0-2.14-.45c-1.49 0-2.36 1.14-2.34 4.08s1 3.78 2.53 3.77a2.57 2.57 0 0 0 .77-.1v-2.76h-1.17a.5.5 0 0 1-.49-.48v-1a.49.49 0 0 1 .47-.49h3a.5.5 0 0 1 .48.48v5.09c.02.45-.04.66-.58.85zM374.92 440.75a.63.63 0 0 1-.6.44h-2a.62.62 0 0 1-.6-.43l-3-10.47c-.08-.31.05-.6.39-.6h1.57a.58.58 0 0 1 .62.49l1.69 7a17.81 17.81 0 0 1 .38 2.66 21.9 21.9 0 0 1 .38-2.67l1.56-7a.58.58 0 0 1 .63-.53h1.39c.35 0 .49.29.4.6zM380.84 441.15h-1.43a.49.49 0 0 1-.48-.48l-.06-10.56a.49.49 0 0 1 .48-.48h1.42a.5.5 0 0 1 .49.48l.06 10.56a.49.49 0 0 1-.48.48zM389.23 441.1h-5.43a.49.49 0 0 1-.48-.48l-.07-10.56a.49.49 0 0 1 .48-.48h5.44a.49.49 0 0 1 .48.48v1a.51.51 0 0 1-.48.49h-3.6v2.49h3.25a.49.49 0 0 1 .48.48v.93a.49.49 0 0 1-.48.48h-3.25v3.1h3.59a.49.49 0 0 1 .49.47v1.11a.49.49 0 0 1-.42.49zM402.47 440.59c0 .26-.34.43-.6.44h-2.27a.62.62 0 0 1-.6-.43l-1.35-7.6c-.07-.44-.17-1.68-.22-2.18 0 .48-.09 1.74-.18 2.2l-1.25 7.61a.62.62 0 0 1-.6.43h-2.31a.59.59 0 0 1-.6-.43l-1.73-10.48c-.06-.31 0-.6.39-.6h1.56a.57.57 0 0 1 .63.51l.83 7.11c.07.57.13 1.71.19 2.43.08-.74.16-1.76.27-2.43l1.2-7.14a.55.55 0 0 1 .62-.5h2a.57.57 0 0 1 .63.5l1.33 7.09c.14.74.23 1.6.32 2.46 0-.67.14-1.88.19-2.41l.68-7.16a.55.55 0 0 1 .58-.5h1.33c.34 0 .45.29.4.6zM413.21 441H410a.5.5 0 0 1-.49-.48l-.06-10.56a.49.49 0 0 1 .48-.48h3.09c1.64 0 4.18.52 4.21 5.73.02 3.35-.79 5.73-4.02 5.79zm-.56-9.65h-.87v7.69h.79c1.69 0 2.25-.91 2.23-3.86.03-2.61-.51-3.88-2.15-3.87zM426.63 440.88h-1.5a.73.73 0 0 1-.76-.55 24.68 24.68 0 0 0-1.12-3.16 1.93 1.93 0 0 0-1.59-1.26h-.45v4.53a.48.48 0 0 1-.48.46h-1.33a.49.49 0 0 1-.48-.46l-.06-10.59a.49.49 0 0 1 .47-.47h3.15c3 0 3.62 1.75 3.63 3a2.62 2.62 0 0 1-2.27 2.76 2.67 2.67 0 0 1 1.57 1.37c.42.86 1.26 3 1.55 3.71.16.38.13.66-.33.66zm-4.22-9.5h-1.22v2.82h1.05a1.42 1.42 0 0 0 1.51-1.52 1.26 1.26 0 0 0-1.34-1.3zM429.74 441a1.38 1.38 0 0 1 0-2.75 1.38 1.38 0 1 1 0 2.75z"/></g><circle cx="379.3" cy="371.74" r="14.44" fill="#3b3b3d"/><g fill="#f2f2eb"><path d="M376.11 377.58h-1.82a2.15 2.15 0 0 1-2.15-2.15v-2.24a1.73 1.73 0 0 1 1.24-1.44v-.05a1.57 1.57 0 0 1-1.08-1.45v-2.15a2.15 2.15 0 0 1 2.15-2.15H376a2.15 2.15 0 0 1 2.15 2.15v2.15a1.56 1.56 0 0 1-1.15 1.45v.05a1.71 1.71 0 0 1 1.24 1.44v2.24a2.15 2.15 0 0 1-2.13 2.15zm.38-4.25a.76.76 0 0 0-.77-.77h-1a.77.77 0 0 0-.78.77v1.89a.78.78 0 0 0 .78.78h1a.77.77 0 0 0 .77-.78zm-.15-5a.77.77 0 0 0-.78-.77h-.72a.76.76 0 0 0-.77.77v1.89a.77.77 0 0 0 .77.78h.72a.78.78 0 0 0 .78-.78zM384.3 377.58h-1.82a2.15 2.15 0 0 1-2.15-2.15v-7.33a2.15 2.15 0 0 1 2.15-2.15h1.82a2.15 2.15 0 0 1 2.15 2.15v7.33a2.15 2.15 0 0 1-2.15 2.15zm.38-9.27a.77.77 0 0 0-.77-.77h-1a.76.76 0 0 0-.77.77v6.91a.77.77 0 0 0 .77.78h1a.78.78 0 0 0 .77-.78z"/></g></svg>