<svg id="5299a8f4-7a9a-4232-8121-50562c7b15bf" data-name="Layer 1" xmlns="http://www.w3.org/2000/svg" viewBox="0 0 18 18"><defs><style></style></defs><path class="8e5311de-d5f5-41cb-92c0-42e1a327b157" d="M18.75 9.75c0 1.79 0 3-.06 3.71a5.51 5.51 0 0 1-1.45 3.78 5.51 5.51 0 0 1-3.78 1.45c-.68 0-1.92.06-3.71.06s-3 0-3.71-.06a5.51 5.51 0 0 1-3.78-1.45 5.51 5.51 0 0 1-1.45-3.78c0-.68-.06-1.92-.06-3.71s0-3 .06-3.71a5.51 5.51 0 0 1 1.45-3.78A5.51 5.51 0 0 1 6 .81C6.72.77 8 .75 9.75.75s3 0 3.71.06a5.51 5.51 0 0 1 3.78 1.45A5.51 5.51 0 0 1 18.69 6c.04.72.06 2 .06 3.75zm-8.1-7.39H6.52a11.24 11.24 0 0 0-1.21.11 4.61 4.61 0 0 0-.84.22 3.08 3.08 0 0 0-1.74 1.75 4.61 4.61 0 0 0-.22.84 11.24 11.24 0 0 0-.11 1.21V13.01a11.24 11.24 0 0 0 .11 1.21 4.61 4.61 0 0 0 .22.84 3.08 3.08 0 0 0 1.71 1.71 4.61 4.61 0 0 0 .84.22 11.24 11.24 0 0 0 1.21.11h6.52a11.24 11.24 0 0 0 1.21-.1 4.61 4.61 0 0 0 .84-.22 3.08 3.08 0 0 0 1.71-1.71 4.61 4.61 0 0 0 .22-.84A11.24 11.24 0 0 0 17.1 13V10.65v-.9-2.13-1.13a11.24 11.24 0 0 0-.1-1.21 4.61 4.61 0 0 0-.22-.84 3.08 3.08 0 0 0-1.71-1.71 4.61 4.61 0 0 0-.84-.22A11.24 11.24 0 0 0 13 2.4h-1.13zM13 6.48a4.45 4.45 0 0 1 1.35 3.27 4.61 4.61 0 0 1-4.62 4.62 4.61 4.61 0 0 1-4.6-4.62 4.61 4.61 0 0 1 4.62-4.62A4.45 4.45 0 0 1 13 6.48zm-1.15 5.39a2.86 2.86 0 0 0 .88-2.12 3 3 0 0 0-3-3 3 3 0 0 0-3 3 3 3 0 0 0 3 3 2.86 2.86 0 0 0 2.14-.88zm3.45-7.69A1.08 1.08 0 0 1 14.55 6a1.06 1.06 0 0 1-1.07-1 1.08 1.08 0 0 1 1.84-.77z" transform="translate(-.75 -.75)"/></svg>