<svg data-name="Layer 1" xmlns="http://www.w3.org/2000/svg" viewBox="0 0 121.46 129.55"><path d="M38.51 0h60.92c.17.26.27.66.5.74 4.2 1.54 5.33 4.87 5.32 8.93v44.82c0 1.63.32 2.35 2.09 2.21s3.57 0 5.36 0a8.36 8.36 0 0 1 8.76 8.75v55.35a8.79 8.79 0 0 1-8.94 8.78q-51.81-.11-103.61 0A8.79 8.79 0 0 1 0 120.74Q.08 76.88 0 33a8.38 8.38 0 0 1 8.79-8.73h21.64c1.46 0 2-.36 2-1.94-.11-4.34 0-8.68 0-13 0-3.92 1.21-7.13 5.29-8.56.28-.11.52-.5.79-.77zm2 64.63v54.79c0 1.42.25 2.06 1.87 2 6.89-.08 13.79-.07 20.68 0 1.47 0 1.82-.51 1.8-1.91-.07-6.9 0-13.79-.06-20.69 0-1.41.44-1.79 1.74-1.72a39.22 39.22 0 0 0 4.6 0c1.44-.09 1.84.43 1.82 1.86-.07 6.84 0 13.67-.06 20.5 0 1.53.44 2 1.94 2 6.77-.07 13.54-.09 20.31 0 1.75 0 2.09-.59 2.09-2.21q-.07-54.51 0-109c0-1.66-.4-2.19-2.12-2.18q-26.25.07-52.49 0c-1.7 0-2.13.48-2.13 2.17.01 18.12-.01 36.26-.01 54.39zM8.12 76.82v42.52c0 1.75.56 2.14 2.19 2.12q10.05-.12 20.1 0c1.57 0 2.06-.42 2.06-2q-.07-42.42 0-84.84c0-1.88-.64-2.22-2.3-2.2q-10.07.11-20.11 0c-1.51 0-1.95.42-1.94 2 .03 14.06 0 28.23 0 42.4zm100.95-4c4.27 0 4.27 0 4.27-4.16 0-3.93 0-3.93-3.92-3.93-4.17 0-4.17 0-4.17 4.25 0 3.87 0 3.87 3.82 3.87zM113.34 85c0-4.1 0-4.1-4-4.1-4.14 0-4.14 0-4.14 4.09s0 4 4 4 4.14.01 4.14-3.99zm0 32.42c0-4.13 0-4.13-4.12-4.12-4 0-4 0-4 3.87 0 4.21 0 4.21 4.21 4.22 3.91.04 3.91.04 3.91-3.93zm-8.09-16.41c0 4.19 0 4.19 4 4.19s4 0 4-4 0-4.11-4.14-4.11c-3.86.05-3.86.05-3.86 3.96zM72.88 36.29v-.2c0-3.69 0-3.69-3.79-3.71-4.31 0-4.31 0-4.31 4.28 0 3.82 0 3.82 3.85 3.82 4.25 0 4.25 0 4.25-4.19zM52.65 97.14c-4.06 0-4.06 0-4.07 4s0 4.09 4.16 4.09c3.94 0 3.94 0 3.94-3.92 0-4.17 0-4.17-4.03-4.17zm.12-56.66c3.9 0 3.9 0 3.91-3.9 0-4.19 0-4.19-4.17-4.19-3.93 0-3.93 0-3.93 3.87 0 4.22 0 4.22 4.19 4.22zM85 32.38h-.2c-3.81 0-3.81 0-3.82 3.84 0 4.26 0 4.26 4.19 4.26 3.9 0 3.9 0 3.9-4-.01-4.1-.01-4.1-4.07-4.1zm-4 69v.19c0 3.71 0 3.71 3.77 3.71 4.32 0 4.32 0 4.32-4.29 0-3.8 0-3.8-3.85-3.81-4.24-.05-4.24-.05-4.24 4.16zm-28.27-85.2c-4.15 0-4.15 0-4.15 4.11s0 4 4.07 4 4 0 4-4 .03-4.11-3.92-4.11zm16.18 8.1c4 0 4 0 4-3.9 0-4.2 0-4.2-4.25-4.2-3.85 0-3.85 0-3.85 3.81-.02 4.29-.02 4.29 4.1 4.29zM69 80.94c-4.22 0-4.22 0-4.22 4.2 0 3.9 0 3.9 4 3.9 4.15 0 4.15 0 4.15-4.11s-.05-3.99-3.93-3.99zm-16.49 0h-.19c-3.73 0-3.73 0-3.74 3.75 0 4.35 0 4.35 4.29 4.35 3.81 0 3.81 0 3.81-3.85 0-4.25 0-4.25-4.17-4.25zm16.2-8.09c4.17 0 4.17 0 4.17-4.08s0-4-4-4-4 0-4 4-.1 4.08 3.83 4.08zm.22-24.27c-4.15 0-4.15 0-4.15 4.07s0 4 4 4 4.08 0 4.08-4 .02-4.07-3.93-4.07zm-16.29 0c-4.06 0-4.06 0-4.06 4s0 4.09 4.16 4.09c3.94 0 3.94 0 3.94-3.91 0-4.18 0-4.18-4.04-4.18zm32.45 16.18c-4.12 0-4.12 0-4.12 4.12s0 4 4.08 4 4 0 4-4 .01-4.12-3.96-4.12zm-36.51 4v.19c0 3.91 0 3.91 4 3.91 4.14 0 4.14 0 4.14-4.09s0-4-4-4-4.14-.01-4.14 3.98zM81 52.78V53c0 3.69 0 3.69 3.78 3.7 4.31 0 4.31 0 4.31-4.3 0-3.79 0-3.79-3.86-3.79C81 48.58 81 48.58 81 52.78zm4.1-36.6h-.19c-3.91 0-3.91 0-3.91 3.94 0 4.16 0 4.16 4.09 4.16s4 0 4-4-.03-4.1-4.02-4.1zm.07 64.76C81 80.94 81 80.94 81 85s0 4 4 4 4.06 0 4.06-4 0-4-3.92-4.06zM24.3 93.25v-.19c0-4 0-4-4-4s-4.06 0-4.06 4 0 4.09 4.14 4.09c3.92-.01 3.92-.01 3.92-3.9zM16.22 61c0 3.74 0 3.74 3.73 3.74 4.36 0 4.36 0 4.35-4.26 0-3.83 0-3.83-3.82-3.83-4.27.02-4.27.02-4.26 4.35zm4 19.92h.19c3.91 0 3.91 0 3.91-3.93 0-4.16 0-4.16-4.07-4.16s-4 0-4 4-.03 4.11 3.95 4.11zm.24-40.46c-4.23 0-4.23 0-4.23 4.2 0 3.89 0 3.89 4 3.9 4.12 0 4.12 0 4.12-4.11s-.05-3.97-3.91-3.97zm-4.23 68.78v.2c0 3.87 0 3.87 4 3.88s4.11 0 4.11-4.12 0-4-4.06-4-4.06.04-4.07 4.06z" fill="#f3c300"/></svg>